<svg width="650" height="623" viewBox="0 0 650 623" fill="none" xmlns="http://www.w3.org/2000/svg">
<g clip-path="url(#clip0)">
<path d="M171.608 383.32C258.772 296.176 258.772 154.887 171.608 67.7424C84.4434 -19.4019 -56.8783 -19.4019 -144.043 67.7424C-231.207 154.887 -231.207 296.176 -144.043 383.32C-56.8783 470.464 84.4434 470.464 171.608 383.32Z" stroke="#E6E6C8" stroke-width="2" stroke-miterlimit="10"/>
<path d="M373.271 174.681C383.032 174.681 390.945 166.77 390.945 157.011C390.945 147.252 383.032 139.34 373.271 139.34C363.51 139.34 355.597 147.252 355.597 157.011C355.597 166.77 363.51 174.681 373.271 174.681Z" stroke="#E6E6C8" stroke-width="2" stroke-miterlimit="10"/>
<path d="M150.574 580.593C149.565 580.593 148.05 580.088 147.04 579.079C145.02 577.059 145.02 574.03 147.04 572.515L541.934 177.713C543.954 175.694 546.983 175.694 548.498 177.713C550.518 179.733 550.518 182.762 548.498 184.276L153.604 579.079C152.594 580.088 151.584 580.593 150.574 580.593Z" stroke="#E6E6C8" stroke-width="2" stroke-miterlimit="10"/>
<path d="M247.531 537.177C246.521 537.177 245.006 536.672 243.996 535.662C241.977 533.643 241.977 530.614 243.996 529.099L638.89 134.297C640.91 132.277 643.94 132.277 645.455 134.297C647.475 136.316 647.475 139.345 645.455 140.86L250.561 535.662C250.056 536.672 249.046 537.177 247.531 537.177Z" stroke="#E6E6C8" stroke-width="2" stroke-miterlimit="10"/>
</g>
<defs>
<clipPath id="clip0">
<rect width="862" height="623" fill="white" transform="translate(-212)"/>
</clipPath>
</defs>
</svg>
