<svg width="989" height="1217" viewBox="0 0 989 1217" fill="none" xmlns="http://www.w3.org/2000/svg">
<g clip-path="url(#clip0)">
<path d="M966.427 604.926C901.352 618.614 859.675 682.556 873.339 747.745C887.003 812.933 950.833 854.683 1015.91 840.995C1080.98 827.308 1122.66 763.365 1109 698.177C1095.33 632.988 1031.5 591.238 966.427 604.926Z" stroke="#E6E6C8" stroke-width="2" stroke-miterlimit="10"/>
<path d="M642.37 363.75C623.137 383.017 623.137 414.256 642.37 433.523C661.604 452.791 692.788 452.791 712.022 433.523C731.256 414.256 731.256 383.017 712.022 363.75C692.788 344.482 661.604 344.482 642.37 363.75Z" stroke="#E6E6C8" stroke-width="2" stroke-miterlimit="10"/>
<path d="M194.54 4.09552C167.69 8.46074 149.457 33.8039 153.814 60.7009C158.172 87.598 183.47 105.864 210.32 101.498C237.17 97.1331 255.404 71.7901 251.047 44.8931C246.689 17.996 221.39 -0.269696 194.54 4.09552Z" stroke="#E6E6C8" stroke-width="2" stroke-miterlimit="10"/>
<path d="M133.822 800.267C123.136 810.971 123.136 828.326 133.822 839.03C144.507 849.734 161.831 849.734 172.517 839.03C183.202 828.326 183.202 810.971 172.517 800.267C161.831 789.563 144.507 789.563 133.822 800.267Z" stroke="#E6E6C8" stroke-width="2" stroke-miterlimit="10"/>
<path d="M545.187 111.7C546.555 111.7 548.607 112.385 549.975 113.756C552.711 116.497 552.711 120.608 549.975 122.664L15.0487 658.528C12.3125 661.269 8.20821 661.269 6.15607 658.528C3.41987 655.787 3.41987 651.675 6.15606 649.62L540.398 113.756C541.767 112.385 543.135 111.7 545.187 111.7Z" stroke="#E6E6C8" stroke-width="2" stroke-miterlimit="10"/>
<path d="M677.209 52.7596C678.577 52.7596 680.629 53.4447 681.997 54.8152C684.733 57.5562 684.733 61.6677 681.997 63.7235L147.071 599.587C144.334 602.328 140.23 602.328 138.178 599.587C135.442 596.846 135.442 592.735 138.178 590.679L673.104 54.8152C673.788 53.4447 675.156 52.7596 677.209 52.7596Z" stroke="#E6E6C8" stroke-width="2" stroke-miterlimit="10"/>
<path d="M661.475 664.69C662.843 664.69 664.895 665.376 666.264 666.746C669 669.487 669 673.599 666.264 675.654L131.337 1211.52C128.601 1214.26 124.497 1214.26 122.445 1211.52C119.708 1208.78 119.708 1204.67 122.445 1202.61L656.687 666.746C658.055 665.376 660.107 664.69 661.475 664.69Z" stroke="#E6E6C8" stroke-width="2" stroke-miterlimit="10"/>
<path d="M793.497 605.761C794.865 605.761 796.917 606.446 798.285 607.817C801.021 610.558 801.021 614.669 798.285 616.725L263.359 1152.59C260.623 1155.33 256.518 1155.33 254.466 1152.59C251.73 1149.85 251.73 1145.74 254.466 1143.68L788.709 607.817C790.077 606.446 792.129 605.761 793.497 605.761Z" stroke="#E6E6C8" stroke-width="2" stroke-miterlimit="10"/>
</g>
<defs>
<clipPath id="clip0">
<rect width="1115" height="1217" fill="white" transform="translate(1115 1217) rotate(180)"/>
</clipPath>
</defs>
</svg>
