<svg width="202" height="157" viewBox="0 0 202 157" fill="none" xmlns="http://www.w3.org/2000/svg">
<path d="M194.581 25.837C194.148 23.9204 190.129 7.10368 170.098 7.10368C150.066 7.10368 140.421 17.1195 140.421 17.1195V41.2317C140.421 45.6213 136.897 49.1454 132.507 49.1454H103.82C99.4303 49.1454 95.9062 45.6213 95.9062 41.2317V17.1195C95.9062 12.7298 99.4303 9.20577 103.82 9.20577C103.82 9.20577 96.6481 0.488281 85.5812 0.488281C74.5144 0.488281 70.0629 9.20577 70.0629 9.20577C74.4525 9.20577 77.9766 12.7298 77.9766 17.1195V41.2317C77.9766 45.6213 74.4525 49.1454 70.0629 49.1454C66.9716 59.594 59.8616 60.9542 59.8616 60.9542H70.0629C74.4525 60.9542 77.9766 64.4783 77.9766 68.868V92.9801C77.9766 97.3698 74.4525 100.894 70.0629 100.894H41.3756C36.9859 100.894 33.4618 97.3698 33.4618 92.9801V70.7846C26.3518 73.9995 16.2124 79.9348 10.8335 90.8162C5.51645 101.698 10.8335 115.299 22.4568 121.049C34.0801 126.799 47.62 111.033 62.7674 111.033C77.853 111.033 88.5489 136.815 89.1672 138.299C89.7854 139.783 100.852 156.414 122.244 156.414C143.636 156.414 147.098 142.379 147.098 139.597C147.098 138.113 150.313 120.307 148.52 104.356C146.975 90.6926 140.421 78.451 140.421 78.451V93.1038C140.421 97.4934 136.897 101.018 132.507 101.018H103.82C99.4303 101.018 95.9062 97.4934 95.9062 93.1038V68.9916C95.9062 64.6019 99.4303 61.0779 103.82 61.0779H132.507C136.897 61.0779 140.421 64.6019 140.421 68.9916V78.451C162.864 59.0376 162.184 65.5912 179.495 53.8442C196.745 42.0354 194.952 27.7536 194.581 25.837Z" fill="#E5F9FA"/>
<path d="M140.421 92.9801V89.7651L132.816 78.8837C131.085 76.3489 128.427 74.6796 125.397 74.185C122.368 73.6903 119.338 74.3704 116.803 76.1015C111.672 79.7493 110.435 86.8593 114.021 92.0527L120.204 100.894H132.507C136.897 100.894 140.421 97.3697 140.421 92.9801Z" fill="#E5F9FA"/>
<path d="M132.507 102.131H103.82C98.7503 102.131 94.6698 98.0505 94.6698 92.9807V68.8685C94.6698 63.7988 98.7503 59.7183 103.82 59.7183H132.507C137.577 59.7183 141.658 63.7988 141.658 68.8685V92.9807C141.658 97.9886 137.515 102.131 132.507 102.131ZM103.82 62.1913C100.11 62.1913 97.1428 65.159 97.1428 68.8685V92.9807C97.1428 96.6903 100.11 99.6579 103.82 99.6579H132.507C136.217 99.6579 139.185 96.6903 139.185 92.9807V68.8685C139.185 65.159 136.217 62.1913 132.507 62.1913H103.82Z" fill="#001B2A"/>
<path d="M109.261 77.5239C111.89 77.5239 114.021 75.3925 114.021 72.7633C114.021 70.1341 111.89 68.0027 109.261 68.0027C106.631 68.0027 104.5 70.1341 104.5 72.7633C104.5 75.3925 106.631 77.5239 109.261 77.5239Z" fill="#E5F9FA"/>
<path d="M109.261 93.8459C111.89 93.8459 114.021 91.7145 114.021 89.0853C114.021 86.4561 111.89 84.3247 109.261 84.3247C106.632 84.3247 104.5 86.4561 104.5 89.0853C104.5 91.7145 106.632 93.8459 109.261 93.8459Z" fill="#E5F9FA"/>
<path d="M127.067 77.5237C129.696 77.5237 131.827 75.3923 131.827 72.763C131.827 70.1338 129.696 68.0024 127.067 68.0024C124.437 68.0024 122.306 70.1338 122.306 72.763C122.306 75.3923 124.437 77.5237 127.067 77.5237Z" fill="#E5F9FA"/>
<path d="M127.067 93.8459C129.696 93.8459 131.827 91.7145 131.827 89.0853C131.827 86.4561 129.696 84.3247 127.067 84.3247C124.437 84.3247 122.306 86.4561 122.306 89.0853C122.306 91.7145 124.437 93.8459 127.067 93.8459Z" fill="#E5F9FA"/>
<path d="M132.507 50.3817H103.82C98.7503 50.3817 94.6698 46.3012 94.6698 41.2314V17.1193C94.6698 12.0495 98.7503 7.96899 103.82 7.96899H132.507C137.577 7.96899 141.658 12.0495 141.658 17.1193V41.2314C141.658 46.3012 137.515 50.3817 132.507 50.3817ZM103.82 10.442C100.11 10.442 97.1428 13.4097 97.1428 17.1193V41.2314C97.1428 44.941 100.11 47.9087 103.82 47.9087H132.507C136.217 47.9087 139.185 44.941 139.185 41.2314V17.1193C139.185 13.4097 136.217 10.442 132.507 10.442H103.82Z" fill="#001B2A"/>
<path d="M127.067 25.8384C129.696 25.8384 131.827 23.7069 131.827 21.0777C131.827 18.4485 129.696 16.3171 127.067 16.3171C124.437 16.3171 122.306 18.4485 122.306 21.0777C122.306 23.7069 124.437 25.8384 127.067 25.8384Z" fill="#001B2A"/>
<path d="M127.067 42.0991C129.696 42.0991 131.827 39.9677 131.827 37.3385C131.827 34.7093 129.696 32.5779 127.067 32.5779C124.437 32.5779 122.306 34.7093 122.306 37.3385C122.306 39.9677 124.437 42.0991 127.067 42.0991Z" fill="#001B2A"/>
<path d="M109.261 25.8384C111.89 25.8384 114.021 23.7069 114.021 21.0777C114.021 18.4485 111.89 16.3171 109.261 16.3171C106.632 16.3171 104.5 18.4485 104.5 21.0777C104.5 23.7069 106.632 25.8384 109.261 25.8384Z" fill="#001B2A"/>
<path d="M70.063 102.131H41.3757C36.306 102.131 32.2254 98.0505 32.2254 92.9807V68.8685C32.2254 63.7988 36.306 59.7183 41.3757 59.7183H70.063C75.1327 59.7183 79.2133 63.7988 79.2133 68.8685V92.9807C79.2133 97.9886 75.1327 102.131 70.063 102.131ZM41.3757 62.1913C37.6661 62.1913 34.6985 65.159 34.6985 68.8685V92.9807C34.6985 96.6903 37.6661 99.6579 41.3757 99.6579H70.063C73.7726 99.6579 76.7402 96.6903 76.7402 92.9807V68.8685C76.7402 65.159 73.7726 62.1913 70.063 62.1913H41.3757Z" fill="#001B2A"/>
<path d="M46.8782 77.5239C49.5074 77.5239 51.6388 75.3925 51.6388 72.7633C51.6388 70.1341 49.5074 68.0027 46.8782 68.0027C44.249 68.0027 42.1176 70.1341 42.1176 72.7633C42.1176 75.3925 44.249 77.5239 46.8782 77.5239Z" fill="#001B2A"/>
<path d="M46.8781 93.8459C49.5073 93.8459 51.6387 91.7145 51.6387 89.0853C51.6387 86.4561 49.5073 84.3247 46.8781 84.3247C44.2489 84.3247 42.1175 86.4561 42.1175 89.0853C42.1175 91.7145 44.2489 93.8459 46.8781 93.8459Z" fill="#001B2A"/>
<path d="M64.6223 77.5237C67.2516 77.5237 69.383 75.3923 69.383 72.763C69.383 70.1338 67.2516 68.0024 64.6223 68.0024C61.9931 68.0024 59.8617 70.1338 59.8617 72.763C59.8617 75.3923 61.9931 77.5237 64.6223 77.5237Z" fill="#001B2A"/>
<path d="M24.1261 107.015C23.6315 107.015 23.1987 106.706 23.0132 106.273L19.7983 98.607C19.551 97.9887 19.7982 97.2468 20.4783 96.9995C21.0966 96.7522 21.8385 96.9995 22.0858 97.6796L25.3008 105.346C25.5481 105.964 25.3008 106.706 24.6207 106.953C24.4352 107.015 24.3116 107.015 24.1261 107.015Z" fill="#001B2A"/>
<path d="M18.6853 104.851C18.1907 104.851 17.7579 104.542 17.5725 104.109C17.3252 103.491 17.5725 102.749 18.2525 102.502L25.919 99.2866C26.5372 99.0393 27.2792 99.2866 27.5265 99.9667C27.7738 100.585 27.5265 101.327 26.8464 101.574L19.1799 104.789C18.9945 104.789 18.8708 104.851 18.6853 104.851Z" fill="#001B2A"/>
<path d="M175.971 29.176C175.044 29.176 174.24 28.4341 174.24 27.4448V20.3967C174.24 19.4693 174.982 18.6655 175.971 18.6655C176.96 18.6655 177.702 19.4075 177.702 20.3967V27.4448C177.64 28.4341 176.899 29.176 175.971 29.176Z" fill="#00C1C9"/>
<path d="M179.434 25.6515H172.385C171.458 25.6515 170.654 24.9095 170.654 23.9203C170.654 22.9311 171.396 22.1892 172.385 22.1892H179.434C180.361 22.1892 181.165 22.9311 181.165 23.9203C181.165 24.9095 180.423 25.6515 179.434 25.6515Z" fill="#00C1C9"/>
<path d="M83.4792 154.498C82.5518 154.498 81.7481 153.756 81.7481 152.767V145.718C81.7481 144.791 82.49 143.987 83.4792 143.987C84.4684 143.987 85.2103 144.729 85.2103 145.718V152.767C85.2103 153.694 84.4684 154.498 83.4792 154.498Z" fill="#00C1C9"/>
<path d="M87.0032 150.973H79.955C79.0276 150.973 78.2238 150.231 78.2238 149.242C78.2238 148.253 78.9658 147.511 79.955 147.511H87.0032C87.9306 147.511 88.7343 148.253 88.7343 149.242C88.7343 150.231 87.9306 150.973 87.0032 150.973Z" fill="#00C1C9"/>
<path d="M164.78 83.5226C163.853 83.5226 163.049 82.7807 163.049 81.7915V74.7433C163.049 73.816 163.791 73.0122 164.78 73.0122C165.77 73.0122 166.512 73.7541 166.512 74.7433V81.7915C166.512 82.7807 165.708 83.5226 164.78 83.5226Z" fill="#E5F9FA"/>
<path d="M168.304 80.0609H161.256C160.329 80.0609 159.525 79.319 159.525 78.3298C159.525 77.3405 160.267 76.5986 161.256 76.5986H168.304C169.232 76.5986 170.036 77.3405 170.036 78.3298C170.036 79.319 169.232 80.0609 168.304 80.0609Z" fill="#E5F9FA"/>
<path d="M200.145 139.475H193.406C192.726 139.475 192.169 138.919 192.169 138.239C192.169 137.559 192.726 137.002 193.406 137.002H200.145C200.825 137.002 201.381 137.559 201.381 138.239C201.381 138.919 200.825 139.475 200.145 139.475Z" fill="#001B2A"/>
<path d="M16.4596 139.968H1.99232C1.06493 139.968 0.2612 139.226 0.2612 138.237C0.2612 137.248 1.00311 136.506 1.99232 136.506H16.4596C17.387 136.506 18.1908 137.248 18.1908 138.237C18.1908 139.226 17.387 139.968 16.4596 139.968Z" fill="#00C1C9"/>
<path d="M179.31 139.475H31.8546C31.1745 139.475 30.6181 138.919 30.6181 138.239C30.6181 137.559 31.1745 137.002 31.8546 137.002H179.31C179.99 137.002 180.546 137.559 180.546 138.239C180.546 138.919 179.99 139.475 179.31 139.475Z" fill="#001B2A"/>
<path d="M167.13 111.095L163.977 106.273V98.6062L158.845 91.2489L155.507 86.4883C154.456 84.9426 152.354 84.6335 150.808 85.6845L150.313 86.0555C148.768 87.1065 148.459 89.2086 149.51 90.7543L151.921 94.1547L147.717 88.1576C146.666 86.6119 144.564 86.3028 143.018 87.3538L142.523 87.7248C140.978 88.7758 140.669 90.8779 141.72 92.4236L145.182 97.3697L140.978 91.3725C139.927 89.8269 137.825 89.5177 136.279 90.5688L135.784 90.9397C134.239 91.9908 133.93 94.0929 134.981 95.6385L139.308 101.821L126.51 83.5206C125.336 81.7895 122.986 81.4185 121.255 82.5932C119.586 83.7679 119.153 86.1173 120.328 87.8484L130.282 102.068L134.424 107.942C134.424 107.942 123.914 104.48 123.914 110.662C123.914 119.751 144.935 111.033 147.964 124.759" fill="white"/>
<path d="M147.902 125.748C147.346 125.748 146.851 125.377 146.665 124.759C145.182 118.081 138.999 117.401 132.94 116.721C127.87 116.165 122.553 115.547 122.553 110.353C122.553 108.251 123.542 107.138 124.346 106.52C126.201 105.16 129.169 105.283 131.394 105.654L119.215 88.2194C117.669 85.9936 118.164 82.8405 120.451 81.2949C121.564 80.553 122.862 80.2438 124.223 80.4293C125.521 80.6766 126.696 81.4185 127.438 82.4696L133.62 91.2489C133.929 90.6306 134.424 90.0742 135.042 89.6414L135.537 89.2704C136.526 88.5903 137.762 88.2812 138.937 88.5285C139.308 88.5903 139.679 88.714 139.988 88.8376C140.297 87.9103 140.916 87.0447 141.719 86.4883L142.214 86.1173C143.203 85.4372 144.44 85.1281 145.614 85.3754C146.542 85.5609 147.346 85.9936 148.026 86.6119C148.335 85.9318 148.891 85.3754 149.509 84.8808L150.004 84.5098C150.993 83.8297 152.23 83.5206 153.404 83.7679C154.641 83.9534 155.692 84.6335 156.372 85.6845L164.842 97.8024C164.966 97.9879 165.09 98.2352 165.09 98.4825V105.902L168.057 110.415C168.428 110.971 168.305 111.775 167.686 112.146C167.13 112.517 166.326 112.393 165.955 111.775L162.802 106.953C162.678 106.767 162.617 106.52 162.617 106.273V98.9771L154.332 87.1683C154.023 86.7356 153.528 86.4264 152.972 86.3028C152.415 86.1791 151.859 86.3028 151.364 86.6737L150.87 87.0447C150.437 87.3538 150.128 87.8484 150.004 88.4049C149.88 88.9613 150.004 89.4559 150.313 89.9505L152.724 93.4128C153.095 93.9692 152.972 94.773 152.415 95.1439C151.859 95.5149 151.055 95.3912 150.684 94.8348L148.273 91.4343L148.211 91.3725L146.48 88.8376C145.8 87.9103 144.502 87.663 143.512 88.343L143.018 88.714C142.585 89.0231 142.276 89.5177 142.152 90.0742C142.028 90.6306 142.152 91.187 142.523 91.6816L145.985 96.6277C146.356 97.1842 146.233 97.9879 145.676 98.3589C145.12 98.7298 144.316 98.6062 143.945 98.0497L139.741 92.0526C139.061 91.1252 137.762 90.8779 136.773 91.558L136.279 91.9289C135.846 92.2381 135.537 92.7327 135.413 93.2891C135.289 93.8456 135.413 94.3402 135.722 94.8348L140.112 101.079C140.483 101.636 140.359 102.439 139.803 102.81C139.246 103.181 138.443 103.058 138.072 102.501L133.744 96.3186L133.682 96.2568L125.274 84.2007C124.903 83.6442 124.284 83.2733 123.666 83.1497C122.986 83.026 122.306 83.2115 121.749 83.5824C120.637 84.3862 120.327 85.9318 121.131 87.1065L135.166 107.2C135.475 107.633 135.475 108.189 135.166 108.622C134.857 109.055 134.3 109.24 133.806 109.055C131.58 108.313 127.376 107.571 125.706 108.807C125.397 109.055 124.903 109.488 124.903 110.6C124.903 113.321 127.376 113.877 133.064 114.495C139.308 115.176 147.036 116.041 148.891 124.449C149.015 125.13 148.644 125.748 147.964 125.933C148.026 125.748 147.964 125.748 147.902 125.748Z" fill="#001B2A"/>
<path d="M164.534 138.238L177.703 129.025C179.681 127.665 180.114 124.945 178.754 123.028L171.644 112.889C170.284 110.91 167.563 110.478 165.647 111.838L148.954 123.523C146.975 124.883 146.542 127.603 147.903 129.52L154.023 138.299H164.534V138.238Z" fill="white"/>
<path d="M164.905 139.473H153.405L146.913 130.199C146.048 128.963 145.738 127.479 145.986 126.057C146.233 124.573 147.037 123.337 148.273 122.471L164.966 110.786C166.203 109.92 167.687 109.611 169.109 109.859C170.593 110.106 171.829 110.91 172.695 112.146L179.805 122.286C180.67 123.522 180.979 125.006 180.732 126.428C180.485 127.912 179.681 129.148 178.444 130.014L164.905 139.473ZM154.703 137H164.163L177.022 128.035C177.703 127.541 178.135 126.861 178.321 126.057C178.444 125.253 178.259 124.45 177.826 123.769L170.716 113.63C170.222 112.95 169.541 112.517 168.738 112.332C167.934 112.208 167.13 112.393 166.45 112.826L149.757 124.511C149.077 125.006 148.644 125.686 148.459 126.49C148.335 127.293 148.521 128.097 148.953 128.777L154.703 137Z" fill="#001B2A"/>
<path d="M167.872 125.377C169.921 125.377 171.582 123.717 171.582 121.668C171.582 119.619 169.921 117.958 167.872 117.958C165.823 117.958 164.162 119.619 164.162 121.668C164.162 123.717 165.823 125.377 167.872 125.377Z" fill="#00C1C9"/>
<path d="M70.063 50.3817H41.3757C36.306 50.3817 32.2254 46.3012 32.2254 41.2314V17.1193C32.2254 12.0495 36.306 7.96899 41.3757 7.96899H70.063C75.1327 7.96899 79.2133 12.0495 79.2133 17.1193V41.2314C79.2133 46.3012 75.1327 50.3817 70.063 50.3817ZM41.3757 10.442C37.6661 10.442 34.6985 13.4097 34.6985 17.1193V41.2314C34.6985 44.941 37.6661 47.9087 41.3757 47.9087H70.063C73.7726 47.9087 76.7402 44.941 76.7402 41.2314V17.1193C76.7402 13.4097 73.7726 10.442 70.063 10.442H41.3757Z" fill="#001B2A"/>
<path d="M46.878 25.8384C49.5072 25.8384 51.6387 23.7069 51.6387 21.0777C51.6387 18.4485 49.5072 16.3171 46.878 16.3171C44.2488 16.3171 42.1174 18.4485 42.1174 21.0777C42.1174 23.7069 44.2488 25.8384 46.878 25.8384Z" fill="#E5F9FA"/>
<path d="M46.878 42.0991C49.5072 42.0991 51.6387 39.9677 51.6387 37.3385C51.6387 34.7093 49.5072 32.5779 46.878 32.5779C44.2488 32.5779 42.1174 34.7093 42.1174 37.3385C42.1174 39.9677 44.2488 42.0991 46.878 42.0991Z" fill="#E5F9FA"/>
<path d="M64.6223 25.8384C67.2515 25.8384 69.3829 23.7069 69.3829 21.0777C69.3829 18.4485 67.2515 16.3171 64.6223 16.3171C61.993 16.3171 59.8616 18.4485 59.8616 21.0777C59.8616 23.7069 61.993 25.8384 64.6223 25.8384Z" fill="#E5F9FA"/>
<path d="M64.6223 42.0991C67.2515 42.0991 69.3829 39.9677 69.3829 37.3385C69.3829 34.7093 67.2515 32.5779 64.6223 32.5779C61.993 32.5779 59.8616 34.7093 59.8616 37.3385C59.8616 39.9677 61.993 42.0991 64.6223 42.0991Z" fill="#E5F9FA"/>
</svg>
