<svg width="203" height="158" viewBox="0 0 203 158" fill="none" xmlns="http://www.w3.org/2000/svg">
<path d="M58.8188 138.568C58.8188 138.568 66.2379 157.549 78.1085 157.549C90.041 157.549 99.9332 145.678 99.9332 138.568H58.8188Z" fill="#E5F9FA"/>
<path d="M45.9586 51.0852C45.9586 51.0852 14.3655 43.4806 10.6559 62.7703C6.94632 82.0601 45.9586 91.1485 45.9586 97.0838V51.0852Z" fill="#E5F9FA"/>
<path d="M165.407 51.0841C165.407 51.0841 188.839 59.1215 188.839 77.5457C188.839 99.9886 165.407 101.411 165.407 101.411V51.0841Z" fill="#E5F9FA"/>
<path d="M147.539 19.676C147.539 19.676 152.424 25.1167 152.424 30.001C152.424 34.8852 152.424 43.2318 152.424 43.2318H158.421V28.3935C158.421 28.3935 158.606 19.676 147.539 19.676Z" fill="#E5F9FA"/>
<path d="M152.918 43.2327C152.918 43.2327 159.534 45.0256 159.534 52.6921C159.534 60.3585 159.534 124.287 159.534 124.287H165.407V43.2327H152.918Z" fill="#E5F9FA"/>
<path d="M81.0762 124.286C81.0762 124.286 80.087 131.211 75.6355 131.211H54.491C50.0395 131.211 49.0503 124.286 49.0503 124.286H81.0762Z" fill="#00C1C9"/>
<path d="M31.4299 139.805C26.422 139.805 22.1561 137.147 19.1884 132.015C17.0245 128.305 16.2826 124.596 16.2826 124.472C16.2207 124.101 16.2826 123.73 16.5299 123.483C16.7772 123.236 17.0863 123.05 17.4573 123.05H164.109V51.0847C164.109 47.4369 161.141 44.4693 157.493 44.4693H141.419C140.739 44.4693 140.182 43.9128 140.182 43.2327C140.182 42.5527 140.739 41.9962 141.419 41.9962H157.493C162.501 41.9962 166.582 46.0767 166.582 51.0847V124.287C166.582 124.967 166.025 125.523 165.345 125.523H19.0647C20.1158 128.986 23.3926 137.332 31.3681 137.332C32.0482 137.332 32.6047 137.889 32.6047 138.569C32.6047 139.249 32.11 139.805 31.4299 139.805Z" fill="#001B2A"/>
<path d="M45.959 125.523C45.2789 125.523 44.7224 124.967 44.7224 124.287V51.0847C44.7224 46.0767 48.803 41.9962 53.8109 41.9962H69.3911C70.0712 41.9962 70.6276 42.5527 70.6276 43.2327C70.6276 43.9128 70.0712 44.4693 69.3911 44.4693H53.8109C50.1632 44.4693 47.1955 47.4369 47.1955 51.0847V124.287C47.1955 124.967 46.6391 125.523 45.959 125.523Z" fill="#001B2A"/>
<path d="M155.02 124.287H152.547V56.1544H140.985V53.6814H153.783C154.463 53.6814 155.02 54.2378 155.02 54.9179V124.287Z" fill="#001B2A"/>
<path d="M58.8186 124.287H56.3456V54.9179C56.3456 54.2378 56.902 53.6814 57.5821 53.6814H69.4527V56.1544H58.8186V124.287Z" fill="#001B2A"/>
<path d="M151.496 139.805C150.816 139.805 150.259 139.249 150.259 138.569C150.259 137.889 150.816 137.332 151.496 137.332C161.511 137.332 164.17 124.163 164.17 124.04C164.294 123.36 164.974 122.927 165.592 123.051C166.272 123.174 166.705 123.854 166.581 124.473C166.581 124.596 165.839 128.306 163.675 132.015C160.77 137.147 156.504 139.805 151.496 139.805Z" fill="#001B2A"/>
<path d="M121.758 139.805C116.75 139.805 112.484 137.147 109.516 132.015C107.352 128.306 106.61 124.596 106.61 124.473C106.487 123.793 106.919 123.174 107.6 123.051C108.28 122.927 108.898 123.36 109.021 124.04C109.083 124.225 111.742 137.332 121.696 137.332C122.376 137.332 122.932 137.889 122.932 138.569C122.932 139.249 122.438 139.805 121.758 139.805Z" fill="#001B2A"/>
<path d="M182.842 139.805H68.0309C67.3508 139.805 66.7943 139.248 66.7943 138.568C66.7943 137.888 67.3508 137.332 68.0309 137.332H182.842C183.522 137.332 184.078 137.888 184.078 138.568C184.078 139.248 183.522 139.805 182.842 139.805Z" fill="#001B2A"/>
<path d="M53.7491 139.805H1.50605C0.825966 139.805 0.269531 139.248 0.269531 138.568C0.269531 137.888 0.825966 137.332 1.50605 137.332H53.7491C54.4292 137.332 54.9856 137.888 54.9856 138.568C54.9856 139.248 54.4292 139.805 53.7491 139.805Z" fill="#001B2A"/>
<path d="M188.839 30.8673C187.912 30.8673 187.108 30.1253 187.108 29.1361V20.9133C187.108 19.9859 187.85 19.1821 188.839 19.1821C189.828 19.1821 190.57 19.924 190.57 20.9133V29.1361C190.508 30.1253 189.767 30.8673 188.839 30.8673Z" fill="#00C1C9"/>
<path d="M192.92 26.7862H184.697C183.769 26.7862 182.966 26.0443 182.966 25.0551C182.966 24.0659 183.708 23.324 184.697 23.324H192.92C193.847 23.324 194.651 24.0659 194.651 25.0551C194.651 26.0443 193.847 26.7862 192.92 26.7862Z" fill="#00C1C9"/>
<path d="M145.623 154.21C144.695 154.21 143.892 153.468 143.892 152.479V144.256C143.892 143.329 144.634 142.525 145.623 142.525C146.612 142.525 147.354 143.267 147.354 144.256V152.479C147.354 153.468 146.55 154.21 145.623 154.21Z" fill="#00C1C9"/>
<path d="M149.703 150.068H141.48C140.553 150.068 139.749 149.326 139.749 148.337C139.749 147.347 140.491 146.605 141.48 146.605H149.703C150.631 146.605 151.434 147.347 151.434 148.337C151.434 149.326 150.692 150.068 149.703 150.068Z" fill="#00C1C9"/>
<path d="M29.2659 24.6847C28.7713 24.6847 28.3386 24.3756 28.1531 23.9428L24.9381 16.3382C24.6908 15.7199 24.9381 14.978 25.6182 14.7307C26.2365 14.4834 26.9784 14.7307 27.2257 15.4108L30.4406 23.0154C30.6879 23.6336 30.4406 24.3756 29.7605 24.6229C29.5751 24.6847 29.3896 24.6847 29.2659 24.6847Z" fill="#001B2A"/>
<path d="M23.8252 22.5205C23.3306 22.5205 22.8978 22.2114 22.7123 21.7786C22.465 21.1603 22.7123 20.4184 23.3924 20.1711L30.997 16.9562C31.6153 16.7089 32.3572 16.9562 32.6045 17.6362C32.8518 18.2545 32.6045 18.9964 31.9244 19.2437L24.3198 22.4587C24.1961 22.5205 24.0107 22.5205 23.8252 22.5205Z" fill="#001B2A"/>
<path d="M8.43053 129.294C7.93592 129.294 7.50311 128.985 7.31763 128.552L4.1027 120.947C3.8554 120.329 4.10269 119.587 4.78278 119.34C5.40104 119.093 6.14293 119.34 6.39024 120.02L9.60524 127.625C9.85255 128.243 9.60526 128.985 8.92517 129.232C8.80152 129.294 8.61601 129.294 8.43053 129.294Z" fill="#001B2A"/>
<path d="M3.05169 127.13C2.55708 127.13 2.12427 126.821 1.93879 126.388C1.69149 125.77 1.93878 125.028 2.61887 124.78L10.2235 121.565C10.8418 121.318 11.5837 121.565 11.831 122.245C12.0783 122.864 11.831 123.606 11.1509 123.853L3.54626 127.068C3.36078 127.068 3.23717 127.13 3.05169 127.13Z" fill="#001B2A"/>
<path d="M165.407 125.523H17.519C16.8389 125.523 16.2824 124.967 16.2824 124.286C16.2824 123.606 16.8389 123.05 17.519 123.05H165.407C166.087 123.05 166.644 123.606 166.644 124.286C166.644 124.967 166.087 125.523 165.407 125.523Z" fill="#001B2A"/>
<path d="M121.758 19.6765C121.758 19.6765 112.484 0.386719 98.0166 0.386719C83.5493 0.386719 78.1704 19.6765 78.1704 19.6765H121.758Z" fill="#E5F9FA"/>
<path d="M165.407 137.642C175.412 137.642 183.522 129.531 183.522 119.527C183.522 109.522 175.412 101.412 165.407 101.412C155.402 101.412 147.292 109.522 147.292 119.527C147.292 129.531 155.402 137.642 165.407 137.642Z" fill="white"/>
<path d="M165.407 138.877C154.711 138.877 146.056 130.222 146.056 119.526C146.056 108.83 154.711 100.174 165.407 100.174C176.103 100.174 184.759 108.83 184.759 119.526C184.759 130.222 176.041 138.877 165.407 138.877ZM165.407 102.647C156.071 102.647 148.529 110.252 148.529 119.526C148.529 128.8 156.133 136.404 165.407 136.404C174.681 136.404 182.286 128.8 182.286 119.526C182.286 110.252 174.681 102.647 165.407 102.647Z" fill="#001B2A"/>
<path d="M162.563 126.574C162.254 126.574 161.945 126.451 161.697 126.203L155.886 120.392C155.391 119.897 155.391 119.155 155.886 118.661C156.38 118.166 157.122 118.166 157.617 118.661L162.501 123.545L173.135 112.849C173.63 112.354 174.372 112.354 174.866 112.849C175.361 113.343 175.361 114.085 174.866 114.58L163.367 126.141C163.243 126.451 162.872 126.574 162.563 126.574Z" fill="#001B2A"/>
<path d="M140.986 125.522C140.306 125.522 139.749 124.966 139.749 124.286V28.3935C139.749 22.8909 144.201 18.4395 149.703 18.4395C155.206 18.4395 159.657 22.8909 159.657 28.3935V43.2317C159.657 43.9118 159.101 44.4682 158.421 44.4682C157.741 44.4682 157.184 43.9118 157.184 43.2317V28.3935C157.184 24.2511 153.845 20.9125 149.703 20.9125C145.561 20.9125 142.222 24.2511 142.222 28.3935V124.286C142.222 124.966 141.666 125.522 140.986 125.522Z" fill="#001B2A"/>
<path d="M69.3912 125.522C68.7111 125.522 68.1546 124.966 68.1546 124.286V28.3935C68.1546 22.8909 72.6061 18.4395 78.1086 18.4395H149.703C150.383 18.4395 150.94 18.9959 150.94 19.676C150.94 20.3561 150.383 20.9125 149.703 20.9125H78.1086C73.9663 20.9125 70.6277 24.2511 70.6277 28.3935V124.286C70.6277 124.966 70.0712 125.522 69.3912 125.522Z" fill="#001B2A"/>
<path d="M130.784 35.0096H101.85C100.922 35.0096 100.119 34.2677 100.119 33.2785C100.119 32.2893 100.861 31.5474 101.85 31.5474H130.784C131.712 31.5474 132.516 32.2893 132.516 33.2785C132.516 34.2677 131.774 35.0096 130.784 35.0096Z" fill="#00C1C9"/>
<path d="M130.784 47.8071H101.85C100.922 47.8071 100.119 47.0652 100.119 46.076C100.119 45.0868 100.861 44.3448 101.85 44.3448H130.784C131.712 44.3448 132.516 45.0868 132.516 46.076C132.516 47.0652 131.774 47.8071 130.784 47.8071Z" fill="#00C1C9"/>
<path d="M130.784 60.1117H79.5921C78.9121 60.1117 78.3556 59.5553 78.3556 58.8752C78.3556 58.1951 78.9121 57.6387 79.5921 57.6387H130.784C131.464 57.6387 132.021 58.1951 132.021 58.8752C132.021 59.5553 131.464 60.1117 130.784 60.1117Z" fill="#001B2A"/>
<path d="M130.784 72.8465H79.5924C78.9124 72.8465 78.3559 72.29 78.3559 71.6099C78.3559 70.9298 78.9124 70.3734 79.5924 70.3734H130.784C131.465 70.3734 132.021 70.9298 132.021 71.6099C132.021 72.29 131.465 72.8465 130.784 72.8465Z" fill="#001B2A"/>
<path d="M130.784 85.6452H79.5924C78.9124 85.6452 78.3559 85.0887 78.3559 84.4086C78.3559 83.7286 78.9124 83.1721 79.5924 83.1721H130.784C131.465 83.1721 132.021 83.7286 132.021 84.4086C132.021 85.0887 131.465 85.6452 130.784 85.6452Z" fill="#001B2A"/>
<path d="M130.784 98.3811H79.5924C78.9124 98.3811 78.3559 97.8247 78.3559 97.1446C78.3559 96.4645 78.9124 95.9081 79.5924 95.9081H130.784C131.465 95.9081 132.021 96.4645 132.021 97.1446C132.021 97.8247 131.465 98.3811 130.784 98.3811Z" fill="#001B2A"/>
<path d="M130.784 111.179H79.5924C78.9124 111.179 78.3559 110.622 78.3559 109.942C78.3559 109.262 78.9124 108.706 79.5924 108.706H130.784C131.465 108.706 132.021 109.262 132.021 109.942C132.021 110.622 131.465 111.179 130.784 111.179Z" fill="#001B2A"/>
<path d="M93.6884 48.8598H79.592C78.6647 48.8598 77.861 48.1178 77.861 47.1286V33.0323C77.861 32.1049 78.6028 31.3011 79.592 31.3011H93.6884C94.6158 31.3011 95.4195 32.0431 95.4195 33.0323V47.1286C95.4195 48.056 94.6158 48.8598 93.6884 48.8598ZM81.3232 45.3975H91.9573V34.7634H81.3232V45.3975Z" fill="#00C1C9"/>
<path d="M200.71 140.299H195.887C194.96 140.299 194.156 139.557 194.156 138.568C194.156 137.578 194.898 136.836 195.887 136.836H200.71C201.637 136.836 202.441 137.578 202.441 138.568C202.441 139.557 201.699 140.299 200.71 140.299Z" fill="#00C1C9"/>
</svg>
