<svg width="206" height="157" viewBox="0 0 206 157" fill="none" xmlns="http://www.w3.org/2000/svg">
<path d="M73.3682 7.91927C73.3682 7.91927 76.6449 0.871094 88.1446 0.871094C99.6443 0.871094 104.343 7.91927 104.343 7.91927H73.3682Z" fill="#E5F9FA"/>
<path d="M142.984 109.314C150.156 114.137 154.731 121.494 154.731 129.717C154.731 144.308 140.264 156.179 122.396 156.179C104.529 156.179 90.0612 144.308 90.0612 129.717C90.0612 123.72 92.4724 118.217 96.553 113.828L139.831 112.529L142.984 109.314Z" fill="#E5F9FA"/>
<path d="M124.189 24.3047H117.821V99.8562H124.189V24.3047Z" fill="#E5F9FA"/>
<path d="M125.611 31.8466C125.611 31.8466 146.013 6.8689 168.394 6.8689C190.775 6.8689 194.547 21.2125 195.412 22.5727C196.278 23.8711 201.842 36.4836 183.294 52.3111C164.808 68.1386 143.973 72.8374 143.973 72.8374V37.3492L138.223 32.1558L125.611 31.8466Z" fill="#E5F9FA"/>
<path d="M29.2239 74.3223C29.2239 74.3223 10.9234 84.5236 10.9234 100.722C10.9234 116.92 24.9579 121.681 26.689 121.928C28.4201 122.176 36.7048 124.278 52.0377 113.829H37.0758C32.748 113.829 29.2239 110.305 29.2239 105.977V74.3223Z" fill="#E5F9FA"/>
<path d="M136.06 115.064H37.1378C32.0681 115.064 27.9876 110.921 27.9876 105.913V39.7595C27.9876 34.6898 32.1299 30.6093 37.1378 30.6093H49.6267V33.0823H37.1378C33.4283 33.0823 30.4606 36.1118 30.4606 39.7595V105.913C30.4606 109.623 33.4901 112.591 37.1378 112.591H135.998C139.707 112.591 142.675 109.561 142.675 105.913V39.7595C142.675 36.05 139.646 33.0823 135.998 33.0823H123.694V30.6093H135.998C141.068 30.6093 145.148 34.7516 145.148 39.7595V105.913C145.21 110.983 141.129 115.064 136.06 115.064Z" fill="#001B2A"/>
<path d="M124.931 101.71H48.3902V15.7717C48.3902 10.702 52.4707 6.62146 57.5404 6.62146H108.671L124.931 22.8817V101.71ZM50.8632 99.237H122.458V23.9328L107.62 9.0945H57.5404C53.8309 9.0945 50.8632 12.0622 50.8632 15.7717V99.237Z" fill="#001B2A"/>
<path d="M123.694 24.4271H106.94V7.91956H109.413V21.9541H123.694V24.4271Z" fill="#001B2A"/>
<path d="M74.2335 32.2786H62.2392C61.4355 32.2786 60.7554 31.5985 60.7554 30.7948V18.8005C60.7554 17.9968 61.4355 17.3167 62.2392 17.3167H74.2335C75.0372 17.3167 75.7173 17.9968 75.7173 18.8005V30.7948C75.7173 31.5985 75.099 32.2786 74.2335 32.2786Z" fill="#00C1C9"/>
<path d="M74.2331 52.3118H62.2388C61.4351 52.3118 60.755 51.6317 60.755 50.8279V38.8337C60.755 38.0299 61.4351 37.3499 62.2388 37.3499H74.2331C75.0368 37.3499 75.7169 38.0299 75.7169 38.8337V50.8279C75.7169 51.6317 75.0987 52.3118 74.2331 52.3118Z" fill="#00C1C9"/>
<path d="M74.2331 72.2818H62.2388C61.4351 72.2818 60.755 71.6016 60.755 70.7979V58.8036C60.755 57.9999 61.4351 57.3198 62.2388 57.3198H74.2331C75.0368 57.3198 75.7169 57.9999 75.7169 58.8036V70.7979C75.7169 71.6016 75.0987 72.2818 74.2331 72.2818Z" fill="#00C1C9"/>
<path d="M74.2335 92.3114H62.2392C61.4355 92.3114 60.7554 91.6313 60.7554 90.8276V78.8333C60.7554 78.0296 61.4355 77.3495 62.2392 77.3495H74.2335C75.0372 77.3495 75.7173 78.0296 75.7173 78.8333V90.8276C75.7173 91.6313 75.099 92.3114 74.2335 92.3114Z" fill="#00C1C9"/>
<path d="M67.1235 28.3837C66.7525 28.3837 66.4434 28.26 66.1961 28.0127L63.9085 25.7252C63.4139 25.2306 63.4139 24.4268 63.9085 23.9322C64.4031 23.4376 65.2069 23.4376 65.7015 23.9322L67.0617 25.2924L70.7094 21.6446C71.204 21.15 72.0077 21.15 72.5024 21.6446C72.997 22.1392 72.997 22.943 72.5024 23.4376L67.9891 28.0127C67.8036 28.1982 67.4944 28.3837 67.1235 28.3837Z" fill="white"/>
<path d="M67.1235 48.354C66.7525 48.354 66.4434 48.2304 66.1961 47.9831L63.9085 45.6955C63.4139 45.2009 63.4139 44.3971 63.9085 43.9025C64.4031 43.4079 65.2069 43.4079 65.7015 43.9025L67.0617 45.2627L70.7094 41.615C71.204 41.1204 72.0077 41.1204 72.5024 41.615C72.997 42.1096 72.997 42.9133 72.5024 43.4079L67.9891 47.9831C67.8036 48.2304 67.4944 48.354 67.1235 48.354Z" fill="white"/>
<path d="M67.1235 68.3847C66.7525 68.3847 66.4434 68.261 66.1961 68.0137L63.9085 65.7261C63.4139 65.2315 63.4139 64.4278 63.9085 63.9332C64.4031 63.4386 65.2069 63.4386 65.7015 63.9332L67.0617 65.2934L70.7094 61.6456C71.204 61.151 72.0077 61.151 72.5024 61.6456C72.997 62.1402 72.997 62.944 72.5024 63.4386L67.9891 68.0137C67.8036 68.261 67.4944 68.3847 67.1235 68.3847Z" fill="white"/>
<path d="M67.1231 88.3565C66.7521 88.3565 66.443 88.2328 66.1957 87.9855L63.9081 85.6979C63.4135 85.2033 63.4135 84.3996 63.9081 83.905C64.4027 83.4104 65.2064 83.4104 65.7011 83.905L67.0612 85.2652L70.709 81.6174C71.2036 81.1228 72.0073 81.1228 72.5019 81.6174C72.9965 82.112 72.9965 82.9158 72.5019 83.4104L67.9886 87.9855C67.8031 88.2328 67.494 88.3565 67.1231 88.3565Z" fill="white"/>
<path d="M59.3334 102.08C54.8819 102.08 50.925 102.08 47.4628 102.08C28.9768 102.018 28.7913 101.895 28.2967 101.4L30.0278 99.6072C29.7805 99.3599 29.5332 99.298 29.5332 99.298C32.439 99.8545 99.5822 99.5453 143.973 99.2362V101.709C143.664 101.709 115.162 101.895 86.9078 102.018C76.3356 102.08 67.1235 102.08 59.3334 102.08Z" fill="#001B2A"/>
<path d="M133.525 101.71H38.9928C38.3127 101.71 37.7563 101.154 37.7563 100.473V41.5532C37.7563 40.8731 38.3127 40.3167 38.9928 40.3167H49.6269C50.307 40.3167 50.8634 40.8731 50.8634 41.5532C50.8634 42.2333 50.307 42.7897 49.6269 42.7897H40.2293V99.2369H132.227V42.7897H123.695C123.014 42.7897 122.458 42.2333 122.458 41.5532C122.458 40.8731 123.014 40.3167 123.695 40.3167H133.463C134.143 40.3167 134.7 40.8731 134.7 41.5532V100.473C134.761 101.154 134.205 101.71 133.525 101.71Z" fill="#001B2A"/>
<path d="M199.555 83.2231C198.627 83.2231 197.823 82.4812 197.823 81.492V73.1454C197.823 72.2181 198.565 71.4143 199.555 71.4143C200.544 71.4143 201.286 72.1562 201.286 73.1454V81.492C201.286 82.4812 200.544 83.2231 199.555 83.2231Z" fill="#00C1C9"/>
<path d="M203.759 79.0813H195.412C194.485 79.0813 193.681 78.3394 193.681 77.3501C193.681 76.3609 194.423 75.619 195.412 75.619H203.759C204.686 75.619 205.49 76.3609 205.49 77.3501C205.49 78.3394 204.686 79.0813 203.759 79.0813Z" fill="#00C1C9"/>
<path d="M12.0367 19.0484C11.1093 19.0484 10.3056 18.3065 10.3056 17.3173V8.97075C10.3056 8.04336 11.0475 7.23962 12.0367 7.23962C13.0259 7.23962 13.7679 7.98153 13.7679 8.97075V17.3173C13.7679 18.3065 13.0259 19.0484 12.0367 19.0484Z" fill="#00C1C9"/>
<path d="M16.179 14.9065H7.89426C6.96686 14.9065 6.16312 14.1646 6.16312 13.1754C6.16312 12.1861 6.90504 11.4442 7.89426 11.4442H16.2408C17.1682 11.4442 17.9719 12.1861 17.9719 13.1754C17.9719 14.1646 17.1682 14.9065 16.179 14.9065Z" fill="#00C1C9"/>
<path d="M7.52315 128.728C7.02854 128.728 6.59576 128.419 6.41028 127.986L3.19532 120.32C2.94802 119.701 3.19532 118.959 3.87541 118.712C4.49367 118.465 5.23558 118.712 5.48289 119.392L8.69784 127.059C8.94515 127.677 8.69784 128.419 8.01776 128.666C7.83228 128.728 7.70863 128.728 7.52315 128.728Z" fill="#001B2A"/>
<path d="M2.08239 126.502C1.58778 126.502 1.155 126.193 0.969522 125.76C0.722218 125.142 0.969522 124.4 1.64961 124.152L9.31605 120.937C9.93431 120.69 10.6762 120.937 10.9235 121.618C11.1708 122.236 10.9235 122.978 10.2434 123.225L2.577 126.44C2.39152 126.502 2.20604 126.502 2.08239 126.502Z" fill="#001B2A"/>
<path d="M200.667 139.795H194.918C194.237 139.795 193.681 139.239 193.681 138.558C193.681 137.878 194.237 137.322 194.918 137.322H200.667C201.347 137.322 201.904 137.878 201.904 138.558C201.904 139.239 201.347 139.795 200.667 139.795Z" fill="#001B2A"/>
<path d="M25.7001 140.228H2.02071C1.09332 140.228 0.289581 139.486 0.289581 138.497C0.289581 137.507 1.03149 136.765 2.02071 136.765H25.7001C26.6275 136.765 27.4312 137.507 27.4312 138.497C27.4312 139.486 26.6275 140.228 25.7001 140.228Z" fill="#00C1C9"/>
<path d="M181.068 139.795H43.5672C42.8872 139.795 42.3307 139.239 42.3307 138.558C42.3307 137.878 42.8872 137.322 43.5672 137.322H181.13C181.81 137.322 182.367 137.878 182.367 138.558C182.367 139.239 181.749 139.795 181.068 139.795Z" fill="#001B2A"/>
<path d="M103.539 130.892C96.4906 123.844 98.9636 113.952 99.0873 113.581L101.499 114.199L100.324 113.89L101.499 114.199C101.499 114.261 99.2728 123.164 105.27 129.161L103.539 130.892Z" fill="#001B2A"/>
<path d="M69.658 130.892L67.9269 129.161C73.924 123.164 71.7601 114.261 71.6983 114.199L74.1095 113.581C74.2332 113.952 76.7062 123.844 69.658 130.892Z" fill="#001B2A"/>
<path d="M111.7 139.795H61.4974C59.2717 139.795 57.4787 138.002 57.4787 135.776V132.747C57.4787 130.521 59.2717 128.728 61.4974 128.728H111.7C113.926 128.728 115.719 130.521 115.719 132.747V135.776C115.719 137.94 113.926 139.795 111.7 139.795ZM61.4974 131.201C60.6319 131.201 59.9518 131.881 59.9518 132.747V135.776C59.9518 136.642 60.6319 137.322 61.4974 137.322H111.7C112.566 137.322 113.246 136.642 113.246 135.776V132.747C113.246 131.881 112.566 131.201 111.7 131.201H61.4974Z" fill="#001B2A"/>
<path d="M172.661 138.559H170.188V78.217L162.398 63.7497L154.607 78.217V138.559H152.134V77.9079C152.134 77.7224 152.196 77.4751 152.258 77.3515L161.285 60.5966C161.47 60.2256 161.903 59.9165 162.398 59.9165C162.892 59.9165 163.263 60.1638 163.51 60.5966L172.537 77.3515C172.661 77.5369 172.661 77.7224 172.661 77.9079V138.559Z" fill="#001B2A"/>
<path d="M171.424 76.6697H153.371V79.1427H171.424V76.6697Z" fill="#001B2A"/>
<path d="M171.424 126.193H153.371V128.666H171.424V126.193Z" fill="#001B2A"/>
<path d="M101.19 25.541H80.3542C79.6741 25.541 79.1176 24.9846 79.1176 24.3045C79.1176 23.6244 79.6741 23.068 80.3542 23.068H101.19C101.87 23.068 102.426 23.6244 102.426 24.3045C102.426 24.9846 101.87 25.541 101.19 25.541Z" fill="#001B2A"/>
<path d="M114.05 45.0768H80.3544C79.6743 45.0768 79.1179 44.5204 79.1179 43.8403C79.1179 43.1602 79.6743 42.6038 80.3544 42.6038H114.05C114.73 42.6038 115.286 43.1602 115.286 43.8403C115.286 44.5204 114.73 45.0768 114.05 45.0768Z" fill="#001B2A"/>
<path d="M114.049 64.6767H80.3542C79.6741 64.6767 79.1176 64.1202 79.1176 63.4401C79.1176 62.76 79.6741 62.2036 80.3542 62.2036H114.049C114.729 62.2036 115.286 62.76 115.286 63.4401C115.286 64.1202 114.729 64.6767 114.049 64.6767Z" fill="#001B2A"/>
<path d="M114.05 84.5839H80.3544C79.6743 84.5839 79.1179 84.0274 79.1179 83.3474C79.1179 82.6673 79.6743 82.1108 80.3544 82.1108H114.05C114.73 82.1108 115.286 82.6673 115.286 83.3474C115.286 84.0274 114.73 84.5839 114.05 84.5839Z" fill="#001B2A"/>
</svg>
