<svg width="202" height="157" viewBox="0 0 202 157" fill="none" xmlns="http://www.w3.org/2000/svg">
<path d="M40.3755 144.46V131.6C48.4129 131.6 55.0283 125.047 55.0283 116.947C55.0283 108.91 48.4747 102.295 40.3755 102.295V89.4348C55.5229 89.4348 67.8263 101.738 67.8263 116.886C67.8263 132.033 55.5229 144.46 40.3755 144.46Z" fill="#E5F9FA"/>
<path d="M68.2588 23.1573C68.2588 23.1573 64.7966 4.42395 85.8793 0.652558C106.406 -3.05701 115.432 23.1573 115.432 23.1573H68.2588Z" fill="#E5F9FA"/>
<path d="M165.944 23.1577C165.944 23.1577 170.643 23.8996 170.643 34.2246V138.031H179.608V31.0715C179.608 31.0715 181.401 23.1577 165.944 23.1577Z" fill="#E5F9FA"/>
<path d="M91.7527 138.03C91.7527 138.03 102.263 156.392 122.295 156.392C142.327 156.392 152.528 138.03 152.528 138.03H91.7527Z" fill="#E5F9FA"/>
<path d="M11.1937 22.1058C10.2663 22.1058 9.46259 21.3639 9.46259 20.3747V12.0281C9.46259 11.1007 10.2045 10.297 11.1937 10.297C12.1829 10.297 12.9248 11.0389 12.9248 12.0281V20.3747C12.9248 21.302 12.1829 22.1058 11.1937 22.1058Z" fill="#00C1C9"/>
<path d="M15.3978 17.964H7.05126C6.12387 17.964 5.32013 17.2221 5.32013 16.2328C5.32013 15.2436 6.12387 14.5017 7.05126 14.5017H15.3978C16.3252 14.5017 17.1289 15.2436 17.1289 16.2328C17.1289 17.2221 16.3252 17.964 15.3978 17.964Z" fill="#00C1C9"/>
<path d="M193.333 84.4271C192.406 84.4271 191.602 83.6852 191.602 82.6959V74.3494C191.602 73.422 192.344 72.6183 193.333 72.6183C194.322 72.6183 195.064 73.3602 195.064 74.3494V82.6959C195.064 83.6233 194.261 84.4271 193.333 84.4271Z" fill="#00C1C9"/>
<path d="M197.476 80.2214H189.129C188.202 80.2214 187.398 79.4795 187.398 78.4903C187.398 77.5011 188.14 76.7592 189.129 76.7592H197.476C198.403 76.7592 199.207 77.5011 199.207 78.4903C199.207 79.4795 198.465 80.2214 197.476 80.2214Z" fill="#00C1C9"/>
<path d="M85.5084 154.661C84.581 154.661 83.7772 153.919 83.7772 152.93V145.882C83.7772 144.954 84.5191 144.151 85.5084 144.151C86.4976 144.151 87.2395 144.893 87.2395 145.882V152.992C87.1777 153.919 86.4357 154.661 85.5084 154.661Z" fill="#00C1C9"/>
<path d="M88.9707 151.199H81.9225C80.9951 151.199 80.1914 150.457 80.1914 149.468C80.1914 148.479 80.9333 147.737 81.9225 147.737H88.9707C89.8981 147.737 90.7018 148.479 90.7018 149.468C90.7018 150.457 89.9599 151.199 88.9707 151.199Z" fill="#00C1C9"/>
<path d="M7.42216 71.1345C6.92755 71.1345 6.49477 70.8253 6.30929 70.3925L3.03251 62.7261C2.78521 62.1078 3.03251 61.3659 3.7126 61.1186C4.33086 60.8713 5.07277 61.1186 5.32008 61.7987L8.53503 69.4652C8.78234 70.0834 8.53503 70.8253 7.85495 71.0726C7.73129 71.0726 7.60764 71.1345 7.42216 71.1345Z" fill="#001B2A"/>
<path d="M1.98144 68.9084C1.48683 68.9084 1.05405 68.5993 0.86857 68.1665C0.621265 67.5483 0.86857 66.8064 1.54866 66.5591L9.21509 63.3441C9.83336 63.0968 10.5753 63.3441 10.8226 64.0242C11.0699 64.6424 10.8226 65.3844 10.1425 65.6317L2.47605 68.8466C2.29057 68.9084 2.16692 68.9084 1.98144 68.9084Z" fill="#001B2A"/>
<path d="M164.46 124.985H61.458C60.7779 124.985 60.2214 124.428 60.2214 123.748C60.2214 123.068 60.7779 122.512 61.458 122.512H164.46C165.14 122.512 165.697 123.068 165.697 123.748C165.697 124.428 165.14 124.985 164.46 124.985Z" fill="#001B2A"/>
<path d="M117.658 139.267H19.3546C18.6745 139.267 18.1181 138.71 18.1181 138.03C18.1181 137.35 18.6745 136.793 19.3546 136.793H117.658C118.338 136.793 118.895 137.35 118.895 138.03C118.895 138.71 118.338 139.267 117.658 139.267Z" fill="#001B2A"/>
<path d="M135.34 23.1573C135.34 23.1573 150.055 6.27881 171.941 6.27881C193.828 6.27881 196.363 26.7433 196.363 29.2781C196.363 31.813 197.166 41.3342 179.731 55.3687L179.669 31.0711L177.691 25.8159L135.34 23.1573Z" fill="#E5F9FA"/>
<path d="M200.32 139.267H136.082C135.402 139.267 134.846 138.711 134.846 138.031C134.846 137.351 135.402 136.794 136.082 136.794H178.371V31.0715C178.371 27.362 175.404 24.3943 171.694 24.3943H48.2892C44.5797 24.3943 41.612 27.362 41.612 31.0715V95.9271C41.612 96.6072 41.0556 97.1636 40.3755 97.1636C39.6954 97.1636 39.139 96.6072 39.139 95.9271V31.0715C39.139 26.0018 43.2195 21.9213 48.2892 21.9213H171.694C176.764 21.9213 180.844 26.0018 180.844 31.0715V136.794H200.32C201 136.794 201.556 137.351 201.556 138.031C201.556 138.711 201 139.267 200.32 139.267Z" fill="#001B2A"/>
<path d="M56.5119 39.2325C59.2435 39.2325 61.458 37.0181 61.458 34.2864C61.458 31.5548 59.2435 29.3403 56.5119 29.3403C53.7802 29.3403 51.5658 31.5548 51.5658 34.2864C51.5658 37.0181 53.7802 39.2325 56.5119 39.2325Z" fill="#00C1C9"/>
<path d="M71.1648 39.2325C73.8964 39.2325 76.1109 37.0181 76.1109 34.2864C76.1109 31.5548 73.8964 29.3403 71.1648 29.3403C68.4331 29.3403 66.2187 31.5548 66.2187 34.2864C66.2187 37.0181 68.4331 39.2325 71.1648 39.2325Z" fill="#00C1C9"/>
<path d="M85.8793 39.2325C88.6109 39.2325 90.8253 37.0181 90.8253 34.2864C90.8253 31.5548 88.6109 29.3403 85.8793 29.3403C83.1476 29.3403 80.9332 31.5548 80.9332 34.2864C80.9332 37.0181 83.1476 39.2325 85.8793 39.2325Z" fill="#00C1C9"/>
<path d="M179.608 46.4657H40.3755C39.6954 46.4657 39.139 45.9093 39.139 45.2292C39.139 44.5491 39.6954 43.9927 40.3755 43.9927H179.608C180.288 43.9927 180.844 44.5491 180.844 45.2292C180.844 45.9093 180.288 46.4657 179.608 46.4657Z" fill="#001B2A"/>
<path d="M40.3755 139.267C28.0721 139.267 18.1181 129.251 18.1181 117.009C18.1181 104.706 28.1339 94.7517 40.3755 94.7517C52.6171 94.7517 62.6329 104.768 62.6329 117.009C62.6947 129.313 52.6789 139.267 40.3755 139.267ZM40.3755 97.2248C29.4323 97.2248 20.5911 106.128 20.5911 117.009C20.5911 127.891 29.4941 136.793 40.3755 136.793C51.2569 136.793 60.1599 127.891 60.1599 117.009C60.1599 106.128 51.3187 97.2248 40.3755 97.2248Z" fill="#001B2A"/>
<path d="M37.0986 124.984C36.7894 124.984 36.4803 124.861 36.233 124.613L29.4939 117.874C28.9993 117.38 28.9993 116.638 29.4939 116.143C29.9886 115.649 30.7305 115.649 31.2251 116.143L37.0986 122.017L49.5874 109.404C50.082 108.91 50.824 108.91 51.3186 109.404C51.8132 109.899 51.8132 110.641 51.3186 111.135L37.9641 124.552C37.7786 124.799 37.4695 124.984 37.0986 124.984Z" fill="#001B2A"/>
<path d="M8.9058 139.267H2.16676C1.48667 139.267 0.930237 138.71 0.930237 138.03C0.930237 137.35 1.48667 136.793 2.16676 136.793H8.9058C9.58589 136.793 10.1423 137.35 10.1423 138.03C10.1423 138.71 9.64772 139.267 8.9058 139.267Z" fill="#001B2A"/>
<path d="M164.46 60.6242H142.327C141.647 60.6242 141.09 60.0677 141.09 59.3876C141.09 58.7076 141.647 58.1511 142.327 58.1511H164.46C165.14 58.1511 165.697 58.7076 165.697 59.3876C165.697 60.0677 165.14 60.6242 164.46 60.6242Z" fill="#001B2A"/>
<path d="M164.46 35.523H101.089C100.408 35.523 99.852 34.9665 99.852 34.2864C99.852 33.6064 100.408 33.0499 101.089 33.0499H164.398C165.079 33.0499 165.635 33.6064 165.635 34.2864C165.635 34.9665 165.14 35.523 164.46 35.523Z" fill="#001B2A"/>
<path d="M164.46 76.3898H142.327C141.647 76.3898 141.09 75.8334 141.09 75.1533C141.09 74.4732 141.647 73.9167 142.327 73.9167H164.46C165.14 73.9167 165.697 74.4732 165.697 75.1533C165.697 75.8334 165.14 76.3898 164.46 76.3898Z" fill="#001B2A"/>
<path d="M164.46 92.6493H142.327C141.647 92.6493 141.09 92.0929 141.09 91.4128C141.09 90.7327 141.647 90.1763 142.327 90.1763H164.46C165.14 90.1763 165.697 90.7327 165.697 91.4128C165.697 92.0929 165.14 92.6493 164.46 92.6493Z" fill="#001B2A"/>
<path d="M164.46 109.158H83.3446C82.6645 109.158 82.1081 108.601 82.1081 107.921C82.1081 107.241 82.6645 106.685 83.3446 106.685H164.399C165.079 106.685 165.635 107.241 165.635 107.921C165.635 108.601 165.141 109.158 164.46 109.158Z" fill="#001B2A"/>
<path d="M125.572 77.6261V90.9187C125.572 90.9187 122.604 101.676 102.387 101.676C82.1699 101.676 79.264 90.9805 79.264 90.9805V77.6879H125.572V77.6261Z" fill="#E5F9FA"/>
<path d="M97.2554 85.4167L74.6888 75.8336C67.8261 72.9278 67.8261 68.1054 74.6888 65.1995L97.2554 55.6165C100.099 54.38 104.736 54.38 107.58 55.6165L130.147 65.1995C137.01 68.1054 137.01 72.9278 130.147 75.8336L107.58 85.4167C104.736 86.5914 100.099 86.5914 97.2554 85.4167Z" fill="#00C1C9"/>
<path d="M102.449 66.6833C99.7284 66.6833 97.5645 68.0435 97.1936 69.8365L72.8341 75.5863V110.889C71.6594 111.507 70.8557 112.682 70.8557 114.104C70.8557 116.144 72.525 117.752 74.5034 117.752C76.5437 117.752 78.1511 116.082 78.1511 114.104C78.1511 112.682 77.3474 111.507 76.1727 110.889V78.3067L98.6774 72.9896C99.6666 73.6079 100.903 73.9788 102.325 73.9788C105.293 73.9788 107.704 72.3714 107.704 70.3311C107.828 68.3527 105.416 66.6833 102.449 66.6833Z" fill="#E5F9FA"/>
<path d="M74.5035 105.324C77.1327 105.324 79.2641 103.193 79.2641 100.564C79.2641 97.9346 77.1327 95.8032 74.5035 95.8032C71.8743 95.8032 69.7429 97.9346 69.7429 100.564C69.7429 103.193 71.8743 105.324 74.5035 105.324Z" fill="#00C1C9"/>
</svg>
