<svg width="198" height="158" viewBox="0 0 198 158" fill="none" xmlns="http://www.w3.org/2000/svg">
<path d="M54.5454 67.0554C54.5454 67.0554 13.431 68.7865 10.6489 101.616C9.59781 114.105 20.3556 122.637 30.0005 122.637C48.301 122.637 52.7525 112.188 54.4836 108.046" fill="#E5F9FA"/>
<path d="M131.952 25.6939C131.952 25.6939 144.502 8.56812 170.284 8.56812C196.065 8.56812 196.807 28.167 196.807 29.8363C196.807 31.5674 196.189 46.4675 175.23 57.7199V52.4028C175.23 47.2094 170.964 43.0671 165.771 43.1907L133.93 43.8708L130.159 27.4869L131.952 25.6939Z" fill="#E5F9FA"/>
<g opacity="0.3">
<path opacity="0.3" d="M99.555 124.801C99.555 117.815 95.9072 113.116 93.3105 110.705C90.8375 102.977 84.5931 98.4017 76.061 98.4017C75.9374 98.4017 75.7519 98.4017 75.6283 98.4017C72.9697 95.6196 69.8166 94.1357 68.951 93.7648L66.2307 92.5901V124.801H99.555Z" fill="#00C1C9"/>
</g>
<path d="M66.2923 100.132C66.2923 100.132 70.9911 102.173 72.2894 105.759C72.2894 105.759 84.8401 102.296 87.1895 114.6C87.1895 114.6 92.692 118.062 92.692 124.801H66.2923V100.132Z" fill="#E5F9FA"/>
<path d="M107.84 12.0304C107.84 12.0304 103.759 0.839844 85.5204 0.839844C67.2817 0.839844 65.9833 23.1591 67.8999 30.0218C69.8165 36.8845 70.002 42.8816 70.002 42.8816H95.969C96.0308 42.9434 98.1329 23.4064 107.84 12.0304Z" fill="#E5F9FA"/>
<g opacity="0.3">
<path opacity="0.3" d="M130.221 124.801C130.221 117.815 133.868 113.116 136.465 110.705C138.938 102.977 145.183 98.4017 153.715 98.4017C153.838 98.4017 154.024 98.4017 154.147 98.4017C156.806 95.6196 159.959 94.1357 160.825 93.7648L163.545 92.5901V124.801H130.221Z" fill="#00C1C9"/>
</g>
<path d="M163.545 100.132C163.545 100.132 158.846 102.173 157.548 105.759C157.548 105.759 144.997 102.296 142.648 114.6C142.648 114.6 137.145 118.062 137.145 124.801H163.545V100.132Z" fill="#E5F9FA"/>
<path d="M162.618 42.9431C162.618 42.9431 169.295 44.7361 169.295 52.5262C169.295 60.3163 169.295 124.863 169.295 124.863H175.23V42.9431H162.618Z" fill="#E5F9FA"/>
<path d="M91.7647 139.269C91.7647 139.269 101.533 157.507 121.565 157.507C141.597 157.507 150.747 139.269 150.747 139.269H91.7647Z" fill="#E5F9FA"/>
<path d="M90.0335 124.801C90.0335 124.801 89.0443 131.788 84.531 131.788H63.1391C58.6258 131.788 57.6366 124.801 57.6366 124.801H90.0335Z" fill="#00C1C9"/>
<path d="M39.8307 140.505C34.761 140.505 30.495 137.784 27.5273 132.653C25.3634 128.881 24.6215 125.172 24.6215 125.048C24.5597 124.677 24.6215 124.306 24.8688 124.059C25.1161 123.75 25.4252 123.626 25.7962 123.626H53.3088V50.8568C53.3088 45.7871 57.4512 41.7065 62.4591 41.7065H167.316C172.386 41.7065 176.466 45.8489 176.466 50.8568V124.801C176.466 125.481 175.91 126.037 175.23 126.037H27.4037C28.4547 129.5 31.7933 138.032 39.8925 138.032C40.5726 138.032 41.1291 138.588 41.1291 139.268C41.1291 139.948 40.5108 140.505 39.8307 140.505ZM55.7818 123.564H174.055V50.8568C174.055 47.1472 171.026 44.1796 167.378 44.1796H62.4591C58.7495 44.1796 55.7818 47.2091 55.7818 50.8568V123.564Z" fill="#001B2A"/>
<path d="M164.781 124.801H162.308V55.9267H67.5288V124.801H65.0557V54.6901C65.0557 54.01 65.6122 53.4536 66.2922 53.4536H163.545C164.225 53.4536 164.781 54.01 164.781 54.6901V124.801Z" fill="#001B2A"/>
<path d="M161.195 140.506C160.515 140.506 159.959 139.949 159.959 139.269C159.959 138.589 160.515 138.033 161.195 138.033C171.335 138.033 173.993 124.678 174.055 124.554C174.179 123.874 174.859 123.442 175.477 123.565C176.157 123.689 176.59 124.369 176.466 124.987C176.466 125.173 175.724 128.882 173.561 132.592C170.531 137.785 166.265 140.506 161.195 140.506Z" fill="#001B2A"/>
<path d="M131.148 140.505C126.078 140.505 121.812 137.785 118.845 132.653C116.681 128.882 115.939 125.172 115.939 125.049C115.815 124.369 116.248 123.75 116.928 123.627C117.608 123.503 118.226 123.936 118.35 124.616C118.35 124.74 121.07 138.094 131.21 138.094C131.89 138.094 132.446 138.651 132.446 139.331C132.446 140.011 131.828 140.505 131.148 140.505Z" fill="#001B2A"/>
<path d="M181.784 140.505H76.3082C75.6281 140.505 75.0717 139.949 75.0717 139.269C75.0717 138.589 75.6281 138.032 76.3082 138.032H181.722C182.402 138.032 182.958 138.589 182.958 139.269C182.958 139.949 182.464 140.505 181.784 140.505Z" fill="#001B2A"/>
<path d="M62.9538 140.505H1.80775C1.12766 140.505 0.571228 139.949 0.571228 139.269C0.571228 138.589 1.12766 138.032 1.80775 138.032H62.9538C63.6339 138.032 64.1903 138.589 64.1903 139.269C64.1903 139.949 63.6339 140.505 62.9538 140.505Z" fill="#001B2A"/>
<path d="M191.305 107.551C190.378 107.551 189.574 106.809 189.574 105.82V97.4736C189.574 96.5462 190.316 95.7424 191.305 95.7424C192.294 95.7424 193.036 96.4843 193.036 97.4736V105.82C193.036 106.747 192.294 107.551 191.305 107.551Z" fill="#00C1C9"/>
<path d="M195.509 103.347H187.162C186.235 103.347 185.431 102.605 185.431 101.615C185.431 100.626 186.173 99.8843 187.162 99.8843H195.509C196.436 99.8843 197.24 100.626 197.24 101.615C197.24 102.605 196.436 103.347 195.509 103.347Z" fill="#00C1C9"/>
<path d="M85.5201 22.1083C84.5927 22.1083 83.789 21.3664 83.789 20.3772V12.0307C83.789 11.1033 84.5309 10.2996 85.5201 10.2996C86.5093 10.2996 87.2512 11.0415 87.2512 12.0307V20.3772C87.2512 21.3046 86.4475 22.1083 85.5201 22.1083Z" fill="#00C1C9"/>
<path d="M89.6626 17.9037H81.3161C80.3887 17.9037 79.5849 17.1618 79.5849 16.1725C79.5849 15.1833 80.3269 14.4414 81.3161 14.4414H89.6626C90.59 14.4414 91.3937 15.1833 91.3937 16.1725C91.3937 17.1618 90.59 17.9037 89.6626 17.9037Z" fill="#00C1C9"/>
<path d="M84.7162 156.209C83.7888 156.209 82.985 155.467 82.985 154.478V146.131C82.985 145.204 83.727 144.4 84.7162 144.4C85.7054 144.4 86.4473 145.142 86.4473 146.131V154.478C86.4473 155.467 85.6436 156.209 84.7162 156.209Z" fill="#00C1C9"/>
<path d="M88.8587 152.067H80.5121C79.5847 152.067 78.781 151.325 78.781 150.336C78.781 149.346 79.5229 148.604 80.5121 148.604H88.8587C89.786 148.604 90.5898 149.346 90.5898 150.336C90.5898 151.325 89.8479 152.067 88.8587 152.067Z" fill="#00C1C9"/>
<path d="M27.4038 57.8432C26.9092 57.8432 26.4764 57.5341 26.2909 57.1013L23.0141 49.4348C22.7668 48.8166 23.0142 48.0747 23.6942 47.8274C24.3125 47.5801 25.0544 47.8274 25.3017 48.5075L28.5167 56.1739C28.764 56.7922 28.5167 57.5341 27.8366 57.7814C27.7129 57.8432 27.5893 57.8432 27.4038 57.8432Z" fill="#001B2A"/>
<path d="M21.9631 55.6788C21.4685 55.6788 21.0357 55.3697 20.8502 54.9369C20.6029 54.3187 20.8502 53.5767 21.5303 53.3294L29.1967 50.1145C29.815 49.8672 30.5569 50.1145 30.8043 50.7946C31.0516 51.4128 30.8042 52.1547 30.1241 52.402L22.4577 55.617C22.2722 55.617 22.1486 55.6788 21.9631 55.6788Z" fill="#001B2A"/>
<path d="M114.888 56.6679C121.068 56.6679 126.078 51.6577 126.078 45.4774C126.078 39.297 121.068 34.2869 114.888 34.2869C108.707 34.2869 103.697 39.297 103.697 45.4774C103.697 51.6577 108.707 56.6679 114.888 56.6679Z" fill="white"/>
<path d="M114.888 57.8436C108.025 57.8436 102.461 52.2792 102.461 45.4165C102.461 38.5539 108.025 32.9895 114.888 32.9895C121.75 32.9895 127.315 38.5539 127.315 45.4165C127.315 52.2792 121.75 57.8436 114.888 57.8436ZM114.888 35.5244C109.385 35.5244 104.934 39.9759 104.934 45.4784C104.934 50.9809 109.385 55.4324 114.888 55.4324C120.39 55.4324 124.842 50.9809 124.842 45.4784C124.842 39.9759 120.39 35.5244 114.888 35.5244Z" fill="#001B2A"/>
<path d="M126.511 93.6418L128.551 99.2062C129.417 101.432 128.984 103.967 127.438 105.822H102.337C100.791 103.967 100.359 101.432 101.224 99.2062L103.264 93.6418" fill="white"/>
<path d="M127.439 107.058H102.337C101.966 107.058 101.595 106.873 101.41 106.626C99.6168 104.462 99.0604 101.432 100.05 98.7737L102.09 93.2093C102.337 92.5911 103.017 92.2201 103.697 92.4674C104.316 92.7147 104.687 93.3948 104.439 94.0749L102.399 99.6392C101.781 101.309 102.028 103.163 102.955 104.585H126.82C127.81 103.163 127.995 101.309 127.439 99.6392L125.398 94.0749C125.151 93.4566 125.46 92.7147 126.14 92.4674C126.759 92.2201 127.5 92.5292 127.748 93.2093L129.788 98.7737C130.777 101.432 130.283 104.462 128.428 106.626C128.18 106.873 127.81 107.058 127.439 107.058Z" fill="#001B2A"/>
<path d="M94.1759 66.9951C94.1759 34.7218 103.45 8.50757 114.888 8.50757C126.325 8.50757 135.599 34.66 135.599 66.9951C135.599 84.7392 126.325 99.0828 114.888 99.0828C103.45 99.0828 94.1759 84.7392 94.1759 66.9951Z" fill="white"/>
<path d="M114.888 100.319C102.77 100.319 92.9396 85.3569 92.9396 66.9945C92.9396 33.5466 102.584 7.27051 114.888 7.27051C127.191 7.27051 136.836 33.4848 136.836 66.9945C136.836 85.3569 127.006 100.319 114.888 100.319ZM114.888 9.74355C104.316 9.74355 95.4126 35.9578 95.4126 66.9945C95.4126 83.9967 104.13 97.8458 114.888 97.8458C125.646 97.8458 134.363 83.9967 134.363 66.9945C134.363 35.9578 125.46 9.74355 114.888 9.74355Z" fill="#001B2A"/>
<path d="M114.888 56.6686C121.068 56.6686 126.079 51.6585 126.079 45.4781C126.079 39.2978 121.068 34.2876 114.888 34.2876C108.708 34.2876 103.697 39.2978 103.697 45.4781C103.697 51.6585 108.708 56.6686 114.888 56.6686Z" fill="white"/>
<path d="M114.888 58.3388C107.778 58.3388 102.028 52.5271 102.028 45.479C102.028 38.4308 107.839 32.6191 114.888 32.6191C121.936 32.6191 127.747 38.4308 127.747 45.479C127.747 52.5271 121.998 58.3388 114.888 58.3388ZM114.888 36.0196C109.694 36.0196 105.428 40.2856 105.428 45.479C105.428 50.6724 109.694 54.9384 114.888 54.9384C120.081 54.9384 124.347 50.6724 124.347 45.479C124.347 40.2856 120.081 36.0196 114.888 36.0196Z" fill="#00C1C9"/>
<path d="M114.888 28.7242C109.262 28.7242 99.7404 27.735 99.7404 23.9636C99.7404 23.2835 100.297 22.7271 100.977 22.7271C101.657 22.7271 102.152 23.2217 102.213 23.9017C102.708 24.7673 107.283 26.313 114.888 26.313C122.431 26.313 127.006 24.7673 127.562 23.9017C127.624 23.2217 128.119 22.7271 128.799 22.7271C129.479 22.7271 130.035 23.2835 130.035 23.9636C130.035 27.6731 120.514 28.7242 114.888 28.7242Z" fill="#001B2A"/>
<path d="M140.669 92.961C140.051 92.961 139.494 92.8373 138.938 92.5282L130.53 87.9531C129.911 87.6439 129.726 86.902 130.035 86.2838C130.344 85.6655 131.086 85.48 131.704 85.7892L140.113 90.3643C140.669 90.6734 141.102 90.4261 141.287 90.3643C141.473 90.3025 141.844 89.9315 141.844 89.3751V73.3003C141.844 72.7439 141.597 72.1874 141.164 71.8165L134.734 66.0048C134.239 65.572 134.177 64.7683 134.672 64.2737C135.105 63.7791 135.909 63.7172 136.403 64.2119L142.833 70.0235C143.76 70.8891 144.317 72.0638 144.317 73.3621V89.4369C144.317 90.7352 143.637 91.9099 142.524 92.59C141.968 92.7755 141.349 92.961 140.669 92.961Z" fill="#001B2A"/>
<path d="M89.1063 93.023C88.4881 93.023 87.808 92.8376 87.2515 92.5284C86.1387 91.8483 85.4586 90.6737 85.4586 89.3753V73.3005C85.4586 72.0022 86.015 70.8275 86.9424 69.9619L93.3723 64.1503C93.8669 63.7175 94.6707 63.7175 95.1035 64.2121C95.5362 64.7067 95.5362 65.5104 95.0416 65.9432L88.6117 71.7549C88.1789 72.1258 87.9316 72.6823 87.9316 73.2387V89.3135C87.9316 89.9317 88.3644 90.2409 88.4881 90.3027C88.6735 90.4264 89.1063 90.6118 89.6628 90.3027L98.0711 85.7276C98.6894 85.4184 99.4313 85.6039 99.7404 86.2222C100.05 86.8404 99.8641 87.5823 99.2458 87.8915L90.8374 92.4666C90.281 92.8376 89.6627 93.023 89.1063 93.023Z" fill="#001B2A"/>
<path d="M119.463 126.039C119.092 126.039 118.721 125.853 118.474 125.544C118.103 124.988 118.226 124.246 118.783 123.813C119.834 123.071 120.823 121.834 121.689 120.103C122.987 117.568 123.667 114.539 123.667 111.386V107.058H106.294V111.386C106.294 114.539 106.974 117.568 108.272 120.103C109.138 121.834 110.127 123.071 111.178 123.813C111.735 124.184 111.858 124.988 111.487 125.544C111.116 126.1 110.313 126.224 109.756 125.853C108.396 124.864 107.16 123.318 106.109 121.278C104.625 118.372 103.821 114.972 103.821 111.386V105.821C103.821 105.141 104.377 104.585 105.058 104.585H124.904C125.584 104.585 126.14 105.141 126.14 105.821V111.386C126.14 114.972 125.336 118.372 123.853 121.278C122.802 123.318 121.565 124.864 120.205 125.853C119.958 125.977 119.71 126.039 119.463 126.039Z" fill="#001B2A"/>
<path d="M175.23 126.038H25.7962C25.1161 126.038 24.5596 125.481 24.5596 124.801C24.5596 124.121 25.1161 123.565 25.7962 123.565H175.292C175.972 123.565 176.528 124.121 176.528 124.801C176.528 125.481 175.91 126.038 175.23 126.038Z" fill="#001B2A"/>
</svg>
