<svg width="32" height="23" viewBox="0 0 32 23" fill="none" xmlns="http://www.w3.org/2000/svg">
<path d="M30.3999 4.08433C30.0999 2.68433 28.9999 1.68433 27.6999 1.28433C25.3999 0.684326 15.7999 0.684326 15.7999 0.684326C15.7999 0.684326 6.29985 0.684326 3.89985 1.28433C2.59985 1.68433 1.59985 2.68433 1.19985 4.08433C0.599854 6.38433 0.599854 11.3843 0.599854 11.3843C0.599854 11.3843 0.599854 16.3843 1.19985 18.7843C1.59985 20.0843 2.59985 21.1843 3.89985 21.4843C6.29985 22.0843 15.7999 22.0843 15.7999 22.0843C15.7999 22.0843 25.2999 22.0843 27.6999 21.4843C28.9999 21.0843 29.9999 20.0843 30.3999 18.7843C30.9999 16.3843 30.9999 11.3843 30.9999 11.3843C30.9999 11.3843 31.0999 6.38433 30.3999 4.08433ZM12.6999 15.9843V6.88433L20.6999 11.3843L12.6999 15.9843Z" fill="#00C1C9"/>
</svg>
