<svg width="21" height="17" viewBox="0 0 21 17" fill="none" xmlns="http://www.w3.org/2000/svg">
<path d="M0.699951 14.7843C2.49995 15.9843 4.69995 16.6843 7.09995 16.6843C14.8 16.6843 19.2 10.1843 18.9 4.28433C19.7 3.68433 20.4 2.98433 21 2.18433C20.2999 2.48433 19.5 2.78433 18.6 2.88433C19.5 2.38433 20.1 1.58433 20.4 0.584326C19.6 1.08433 18.7 1.38433 17.8 1.58433C17 0.684326 15.9 0.184326 14.7 0.184326C12.1 0.184326 10.1 2.68433 10.7 5.28433C7.19995 5.08433 4.19995 3.48433 2.09995 0.984326C0.999951 2.78433 1.49995 5.28433 3.39995 6.48433C2.69995 6.48433 2.09995 6.28433 1.49995 5.98433C1.49995 7.88433 2.79995 9.68433 4.79995 10.0843C4.19995 10.2843 3.59995 10.2843 2.89995 10.1843C3.39995 11.8843 4.99995 13.0843 6.79995 13.0843C5.09995 14.4843 2.89995 15.0843 0.699951 14.7843Z" fill="#00C1C9"/>
</svg>
