<svg width="21" height="21" viewBox="0 0 21 21" fill="none" xmlns="http://www.w3.org/2000/svg">
<path d="M10.4999 2.24052C13.2999 2.24052 13.5999 2.24052 14.6999 2.33636C15.6999 2.33636 16.2999 2.52802 16.5999 2.71969C17.0999 2.91136 17.3999 3.10303 17.7999 3.48636C18.1999 3.8697 18.3999 4.1572 18.5999 4.63637C18.6999 5.01971 18.8999 5.49888 18.9999 6.45722C18.9999 7.51139 19.0999 7.79889 19.0999 10.4822C19.0999 13.1656 19.0999 13.4531 18.9999 14.5073C18.9999 15.4656 18.7999 16.0406 18.5999 16.3281C18.3999 16.8073 18.1999 17.0948 17.7999 17.4781C17.3999 17.8615 17.0999 18.0531 16.5999 18.2448C16.1999 18.3406 15.6999 18.5323 14.6999 18.6281C13.6999 18.6281 13.2999 18.6281 10.4999 18.6281C7.69986 18.6281 7.39986 18.6281 6.29986 18.5323C5.29986 18.5323 4.69986 18.3406 4.39986 18.149C3.89986 17.9573 3.59986 17.7656 3.19986 17.3823C2.79986 16.999 2.59986 16.7115 2.39986 16.2323C2.29986 15.8489 2.09986 15.3698 1.99986 14.4114C1.89986 13.3573 1.89986 13.0698 1.89986 10.3864C1.89986 7.70306 1.89986 7.41556 1.99986 6.36138C1.99986 5.40304 2.19986 4.82804 2.39986 4.54054C2.59986 4.06137 2.79986 3.77387 3.19986 3.39053C3.59986 3.00719 3.89986 2.81553 4.39986 2.62386C4.69986 2.52802 5.29986 2.33636 6.29986 2.24052C7.39986 2.24052 7.69986 2.24052 10.4999 2.24052ZM10.4999 0.419678C7.69986 0.419678 7.29986 0.419678 6.19986 0.515512C5.09986 0.515512 4.39986 0.70718 3.69986 0.898848C2.99986 1.18635 2.39986 1.56969 1.89986 2.14469C1.29985 2.62386 0.899854 3.19886 0.599854 3.8697C0.399854 4.54054 0.199854 5.21138 0.199854 6.26555C0.0998535 7.31972 0.0998535 7.70306 0.0998535 10.3864C0.0998535 13.0698 0.0998535 13.4531 0.199854 14.5073C0.299854 15.5614 0.399854 16.3281 0.699854 16.9031C0.999855 17.574 1.29985 18.149 1.89986 18.6281C2.49986 19.2031 3.09986 19.4906 3.69986 19.7781C4.39986 20.0656 5.09986 20.1615 6.19986 20.2573C7.29986 20.3531 7.69986 20.3531 10.4999 20.3531C13.2999 20.3531 13.6999 20.3531 14.7999 20.2573C15.8999 20.1615 16.6999 20.0656 17.2999 19.7781C17.9999 19.4906 18.5999 19.2031 19.0999 18.6281C19.6999 18.0531 19.9999 17.4781 20.2999 16.9031C20.5999 16.2323 20.6999 15.5614 20.7999 14.5073C20.8999 13.4531 20.8999 13.0698 20.8999 10.3864C20.8999 7.70306 20.8999 7.31972 20.7999 6.26555C20.6999 5.21138 20.5999 4.4447 20.2999 3.8697C19.9999 3.19886 19.6999 2.62386 19.0999 2.14469C18.4999 1.56969 17.8999 1.28218 17.2999 0.994681C16.5999 0.70718 15.8999 0.611346 14.7999 0.515512C13.6999 0.419678 13.3999 0.419678 10.4999 0.419678Z" fill="#00C1C9"/>
<path d="M10.4999 5.30737C7.49986 5.30737 5.09985 7.60754 5.09985 10.4827C5.09985 13.358 7.49986 15.6581 10.4999 15.6581C13.4999 15.6581 15.8999 13.358 15.8999 10.4827C15.8999 7.60754 13.4999 5.30737 10.4999 5.30737ZM10.4999 13.7413C8.59986 13.7413 6.99986 12.2079 6.99986 10.3869C7.09986 8.56594 8.59986 7.12834 10.4999 7.12834C12.3999 7.12834 13.9999 8.66178 13.9999 10.4827C13.9999 12.3037 12.4999 13.7413 10.4999 13.7413Z" fill="#00C1C9"/>
<path d="M17.4001 5.11571C17.4001 5.78655 16.8001 6.36156 16.1001 6.36156C15.4 6.36156 14.8 5.78655 14.8 5.11571C14.8 4.44488 15.4 3.86987 16.1001 3.86987C16.8001 3.86987 17.4001 4.44488 17.4001 5.11571Z" fill="#00C1C9"/>
</svg>
