<svg width="19" height="20" viewBox="0 0 19 20" fill="none" xmlns="http://www.w3.org/2000/svg">
<path d="M4.2999 7.28418H0.399902V19.9842H4.2999V7.28418Z" fill="#00C1C9"/>
<path d="M2.3 5.58428C3.6 5.58428 4.6 4.48428 4.6 3.28428C4.6 2.08428 3.6 0.884277 2.3 0.884277C1 0.884277 0 1.98428 0 3.18428C0 4.38428 1 5.58428 2.3 5.58428Z" fill="#00C1C9"/>
<path d="M10.6 13.2842C10.6 11.4842 11.4 10.3842 13 10.3842C14.4 10.3842 15.1 11.3842 15.1 13.2842C15.1 15.0842 15.1 19.9842 15.1 19.9842H19C19 19.9842 19 15.3842 19 11.8842C19 8.48418 17.1 6.78418 14.4 6.78418C11.7 6.78418 10.6 8.88418 10.6 8.88418V7.28418H6.80005V19.9842H10.6C10.6 19.9842 10.6 15.2842 10.6 13.2842Z" fill="#00C1C9"/>
</svg>
