<svg width="186" height="50" viewBox="0 0 186 50" fill="none" xmlns="http://www.w3.org/2000/svg">
<path d="M74.4425 29.4744H68.4174L67.476 32.3368H62.4395L69.1235 14.67H73.7129L80.5382 32.3368H75.3839L74.4425 29.4744ZM71.43 20.207L69.5707 25.6736H73.3128L71.43 20.207Z" fill="white"/>
<path d="M89.5521 32.8065C84.3743 32.8065 80.491 28.818 80.491 23.5391C80.491 18.2132 84.3508 14.2482 89.5521 14.2482C94.0238 14.2482 97.46 17.2982 98.166 21.7794H93.4119C92.8235 19.9729 91.3643 18.7998 89.5756 18.7998C87.175 18.7998 85.3863 20.8175 85.3863 23.5391C85.3863 26.2606 87.1515 28.2549 89.5756 28.2549C91.4585 28.2549 92.9412 26.9879 93.4354 25.0171H98.2366C97.5541 29.6391 94.0944 32.8065 89.5521 32.8065Z" fill="white"/>
<path d="M132.033 23.5152C132.033 28.6768 128.385 32.3603 123.255 32.3603H116.359V14.6936H123.255C128.409 14.6936 132.033 18.3302 132.033 23.5152ZM127.232 23.5152C127.232 20.8875 125.561 19.1513 123.043 19.1513H121.09V27.9026H123.043C125.538 27.9026 127.232 26.1195 127.232 23.5152Z" fill="white"/>
<path d="M145.566 28.1372V32.3603H134.458V14.6936H145.355V18.8933H139.141V21.4975H144.743V25.486H139.141V28.1372H145.566Z" fill="white"/>
<path d="M165.101 32.3603L163.783 22.1779L159.264 32.3838H157.875L153.357 22.1779L152.039 32.3603H147.284L149.85 14.6936H154.533L158.534 24.3129L162.559 14.6936H167.242L169.784 32.3603H165.101Z" fill="white"/>
<path d="M180.069 25.4391V32.3603H175.291V25.4391L169.384 14.6936H174.585L177.692 21.0752L180.799 14.6936H186L180.069 25.4391Z" fill="white"/>
<path d="M110.334 22.9988L107.721 28.6062L109.487 32.36H114.711L110.334 22.9988Z" fill="white"/>
<path d="M106.45 14.67H106.38H101.226L103.791 20.207L98.1189 32.3603H103.344L109.039 20.207L106.45 14.67Z" fill="white"/>
<path d="M74.2542 12.4647L73.2657 11.3151C72.7479 11.5732 72.136 11.7139 71.477 11.7139C69.3117 11.7139 67.7349 10.142 67.7349 8.03043C67.7349 5.91887 69.3117 4.34692 71.477 4.34692C73.6422 4.34692 75.2191 5.91887 75.2191 8.03043C75.2191 9.18006 74.7484 10.1655 73.9717 10.8458L75.3603 12.4412L74.2542 12.4647ZM72.6538 10.6112L70.9827 8.6639H72.0654L73.3598 10.1655C73.9482 9.64929 74.2777 8.92198 74.2777 8.05389C74.2777 6.45849 73.0774 5.23847 71.4535 5.23847C69.8295 5.23847 68.6292 6.45849 68.6292 8.05389C68.6292 9.64929 69.8295 10.8458 71.4535 10.8458C71.9006 10.8693 72.3007 10.7755 72.6538 10.6112Z" fill="white"/>
<path d="M77.2432 8.96885V4.51111H78.1375V8.92193C78.1375 10.095 78.9377 10.8693 80.0439 10.8693C81.15 10.8693 81.9267 10.0716 81.9267 8.92193V4.51111H82.821V8.96885C82.821 10.5877 81.6207 11.7373 80.0203 11.7373C78.4435 11.7373 77.2432 10.5877 77.2432 8.96885Z" fill="white"/>
<path d="M89.3638 9.90733H85.9512L85.2451 11.62H84.3037L87.2221 4.51111H88.0458L91.0584 11.62H90.0934L89.3638 9.90733ZM86.2807 9.08616H89.0343L87.6457 5.73112L86.2807 9.08616Z" fill="white"/>
<path d="M98.5427 4.48755V11.5965H97.7896L93.718 6.05949V11.6199H92.8472V4.51101H93.6474L97.6484 10.0011V4.51101L98.5427 4.48755Z" fill="white"/>
<path d="M105.603 5.33217H103.438V11.6199H102.544V5.33217H100.378V4.48755H105.627L105.603 5.33217Z" fill="white"/>
<path d="M111.605 10.7519V11.5965H107.462V4.48755H111.51V5.33217H108.357V7.53758H111.228V8.35875H108.357V10.7519H111.605Z" fill="white"/>
<path d="M116.265 8.82808H114.641V11.62H113.746V4.51111H116.453C117.794 4.51111 118.783 5.42612 118.783 6.69306C118.783 7.70191 118.147 8.47615 117.206 8.73423L118.924 11.62H117.912L116.265 8.82808ZM114.641 7.98346H116.406C117.277 7.98346 117.865 7.44383 117.865 6.6696C117.865 5.91882 117.277 5.35573 116.406 5.35573H114.641V7.98346Z" fill="white"/>
<path d="M125.161 9.90733H121.725L121.019 11.62H120.077L122.996 4.51111H123.819L126.832 11.62H125.867L125.161 9.90733ZM122.054 9.08616H124.808L123.419 5.73112L122.054 9.08616Z" fill="white"/>
<path d="M132.669 10.7754V11.62H128.644V4.51111H129.539V10.7989H132.669V10.7754Z" fill="white"/>
<path d="M138.529 10.7754V11.62H134.505V4.51111H135.399V10.7989H138.529V10.7754Z" fill="white"/>
<path d="M32.8555 17.9301L29.2075 25.7194L31.6552 30.9514H38.9276L32.8555 17.9301Z" fill="white"/>
<path d="M27.4185 6.34021H27.3479H20.1461L23.747 14.0357L15.8391 30.9517H23.1115L31.0194 14.0357L27.4185 6.34021Z" fill="#00C1C9"/>
<path d="M35.1382 36.1848H19.5813V39.4695H35.1382V36.1848Z" fill="white"/>
<path d="M39.4453 42.0736H15.3215V45.3583H39.4453V42.0736Z" fill="white"/>
<path d="M15.2509 36.9115H9.67304C6.42516 36.9115 3.78919 34.2838 3.78919 31.0461V22.9987C3.78919 22.9987 3.78919 21.9664 3.03606 21.2156C2.42414 20.5821 1.38859 20.2771 0 20.2771V16.9925C1.38859 16.9925 2.42414 16.664 3.03606 16.054C3.78919 15.3032 3.78919 14.2474 3.78919 14.2474V6.22349C3.78919 2.98576 6.42516 0.358032 9.67304 0.358032H15.2509V3.64269H9.67304C8.23738 3.64269 7.08415 4.79232 7.08415 6.22349V14.177C7.08415 14.5759 7.06061 16.6405 5.46021 18.3063C5.34253 18.4236 5.22485 18.5409 5.10718 18.6348C5.22485 18.7521 5.34253 18.8459 5.46021 18.9633C7.06061 20.629 7.10768 22.6937 7.08415 23.0925V31.0461C7.08415 32.4773 8.23738 33.6269 9.67304 33.6269H15.2509V36.9115Z" fill="white"/>
<path d="M45.094 36.9115H39.5161V33.6269H45.094C46.5297 33.6269 47.6829 32.4773 47.6829 31.0461V23.0925C47.6829 22.6937 47.7064 20.629 49.3068 18.9633C49.4245 18.8459 49.5422 18.7286 49.6599 18.6348C49.5422 18.5175 49.4245 18.4236 49.3068 18.3063C47.7064 16.6405 47.6594 14.5759 47.6829 14.177V6.22349C47.6829 4.79232 46.5297 3.64269 45.094 3.64269H39.5161V0.358032H45.094C48.3419 0.358032 50.9778 2.98576 50.9778 6.22349V14.2709C50.9778 14.2709 50.9778 15.3032 51.731 16.054C52.3429 16.6875 53.3784 16.9925 54.767 16.9925V20.2771C53.3784 20.2771 52.3429 20.6056 51.731 21.2156C50.9778 21.9664 50.9778 23.0221 50.9778 23.0221V31.0461C50.9543 34.2838 48.3183 36.9115 45.094 36.9115Z" fill="white"/>
</svg>
