<svg width="186" height="46" viewBox="0 0 186 46" fill="none" xmlns="http://www.w3.org/2000/svg">
<path d="M74.4425 29.4742H68.4174L67.476 32.3365H62.4395L69.1235 14.6698H73.7129L80.5382 32.3365H75.3839L74.4425 29.4742ZM71.43 20.2068L69.5707 25.6734H73.3128L71.43 20.2068Z" fill="#001B2A"/>
<path d="M89.5521 32.8059C84.3743 32.8059 80.491 28.8174 80.491 23.5384C80.491 18.2126 84.3508 14.2476 89.5521 14.2476C94.0238 14.2476 97.46 17.2976 98.166 21.7788H93.4119C92.8235 19.9722 91.3643 18.7992 89.5756 18.7992C87.175 18.7992 85.3863 20.8169 85.3863 23.5384C85.3863 26.26 87.1515 28.2543 89.5756 28.2543C91.4584 28.2543 92.9412 26.9873 93.4354 25.0165H98.2366C97.5541 29.6385 94.0944 32.8059 89.5521 32.8059Z" fill="#001B2A"/>
<path d="M132.033 23.515C132.033 28.6766 128.385 32.3601 123.255 32.3601H116.359V14.6934H123.255C128.409 14.6934 132.033 18.3299 132.033 23.515ZM127.232 23.515C127.232 20.8873 125.561 19.1511 123.043 19.1511H121.09V27.9024H123.043C125.538 27.9024 127.232 26.1193 127.232 23.515Z" fill="#001B2A"/>
<path d="M145.566 28.137V32.3601H134.458V14.6934H145.355V18.893H139.141V21.4973H144.743V25.4858H139.141V28.137H145.566Z" fill="#001B2A"/>
<path d="M165.101 32.3601L163.783 22.1777L159.264 32.3836H157.875L153.357 22.1777L152.039 32.3601H147.284L149.85 14.6934H154.533L158.534 24.3127L162.559 14.6934H167.242L169.784 32.3601H165.101Z" fill="#001B2A"/>
<path d="M180.069 25.4389V32.3601H175.292V25.4389L169.384 14.6934H174.586L177.692 21.075L180.799 14.6934H186L180.069 25.4389Z" fill="#001B2A"/>
<path d="M110.334 22.9985L107.721 28.6059L109.486 32.3598H114.711L110.334 22.9985Z" fill="#001B2A"/>
<path d="M106.45 14.6698H106.38H101.226L103.791 20.2068L98.1189 32.36H103.344L109.039 20.2068L106.45 14.6698Z" fill="#001B2A"/>
<path d="M74.2542 12.4641L73.2657 11.3145C72.7479 11.5726 72.136 11.7133 71.477 11.7133C69.3117 11.7133 67.7349 10.1414 67.7349 8.02982C67.7349 5.91826 69.3117 4.34631 71.477 4.34631C73.6422 4.34631 75.2191 5.91826 75.2191 8.02982C75.2191 9.17945 74.7484 10.1648 73.9717 10.8452L75.3603 12.4406L74.2542 12.4641ZM72.6538 10.6106L70.9827 8.66329H72.0654L73.3598 10.1648C73.9482 9.64868 74.2777 8.92137 74.2777 8.05328C74.2777 6.45788 73.0774 5.23786 71.4535 5.23786C69.8295 5.23786 68.6292 6.45788 68.6292 8.05328C68.6292 9.64868 69.8295 10.8452 71.4535 10.8452C71.9006 10.8687 72.3007 10.7749 72.6538 10.6106Z" fill="#001B2A"/>
<path d="M77.2432 8.96837V4.51062H78.1375V8.92144C78.1375 10.0945 78.9377 10.8688 80.0439 10.8688C81.15 10.8688 81.9267 10.0711 81.9267 8.92144V4.51062H82.821V8.96837C82.821 10.5872 81.6207 11.7369 80.0203 11.7369C78.4435 11.7369 77.2432 10.5872 77.2432 8.96837Z" fill="#001B2A"/>
<path d="M89.3638 9.90684H85.9512L85.2451 11.6196H84.3037L87.2221 4.51062H88.0458L91.0583 11.6196H90.0934L89.3638 9.90684ZM86.2807 9.08567H89.0343L87.6457 5.73063L86.2807 9.08567Z" fill="#001B2A"/>
<path d="M98.5427 4.48694V11.5959H97.7896L93.718 6.05888V11.6193H92.8472V4.5104H93.6474L97.6484 10.0005V4.5104L98.5427 4.48694Z" fill="#001B2A"/>
<path d="M105.603 5.33156H103.438V11.6193H102.544V5.33156H100.378V4.48694H105.627L105.603 5.33156Z" fill="#001B2A"/>
<path d="M111.605 10.7512V11.5959H107.463V4.48694H111.511V5.33156H108.357V7.53697H111.228V8.35814H108.357V10.7512H111.605Z" fill="#001B2A"/>
<path d="M116.265 8.82759H114.641V11.6196H113.746V4.51062H116.453C117.794 4.51062 118.783 5.42563 118.783 6.69257C118.783 7.70143 118.147 8.47567 117.206 8.73375L118.924 11.6196H117.912L116.265 8.82759ZM114.641 7.98297H116.406C117.277 7.98297 117.865 7.44335 117.865 6.66911C117.865 5.91833 117.277 5.35525 116.406 5.35525H114.641V7.98297Z" fill="#001B2A"/>
<path d="M125.161 9.90684H121.725L121.019 11.6196H120.078L122.996 4.51062H123.82L126.832 11.6196H125.867L125.161 9.90684ZM122.055 9.08567H124.808L123.42 5.73063L122.055 9.08567Z" fill="#001B2A"/>
<path d="M132.669 10.7749V11.6196H128.644V4.51062H129.539V10.7984H132.669V10.7749Z" fill="#001B2A"/>
<path d="M138.529 10.7749V11.6196H134.505V4.51062H135.399V10.7984H138.529V10.7749Z" fill="#001B2A"/>
<path d="M32.8555 17.9308L29.2075 25.7201L31.6552 30.9521H38.9276L32.8555 17.9308Z" fill="#001B2A"/>
<path d="M27.4185 6.34094H27.3479H20.1461L23.747 14.0364L15.8391 30.9524H23.1115L31.0194 14.0364L27.4185 6.34094Z" fill="#00C1C9"/>
<path d="M35.1379 36.1843H19.5811V39.469H35.1379V36.1843Z" fill="#001B2A"/>
<path d="M39.4453 42.0737H15.3215V45.3584H39.4453V42.0737Z" fill="#001B2A"/>
<path d="M15.2509 36.9115H9.67303C6.42515 36.9115 3.78919 34.2838 3.78919 31.0461V22.9987C3.78919 22.9987 3.78919 21.9664 3.03606 21.2156C2.42414 20.5821 1.38859 20.2771 0 20.2771V16.9925C1.38859 16.9925 2.42414 16.664 3.03606 16.054C3.78919 15.3032 3.78919 14.2474 3.78919 14.2474V6.22349C3.78919 2.98576 6.42515 0.358032 9.67303 0.358032H15.2509V3.64269H9.67303C8.23738 3.64269 7.08414 4.79232 7.08414 6.22349V14.177C7.08414 14.5759 7.06061 16.6405 5.4602 18.3063C5.34253 18.4236 5.22485 18.5409 5.10717 18.6348C5.22485 18.7521 5.34253 18.8459 5.4602 18.9633C7.06061 20.629 7.10768 22.6937 7.08414 23.0925V31.0461C7.08414 32.4773 8.23738 33.6269 9.67303 33.6269H15.2509V36.9115Z" fill="#001B2A"/>
<path d="M45.094 36.9115H39.5161V33.6269H45.094C46.5297 33.6269 47.6829 32.4773 47.6829 31.0461V23.0925C47.6829 22.6937 47.7064 20.629 49.3068 18.9633C49.4245 18.8459 49.5422 18.7286 49.6599 18.6348C49.5422 18.5175 49.4245 18.4236 49.3068 18.3063C47.7064 16.6405 47.6593 14.5759 47.6829 14.177V6.22349C47.6829 4.79232 46.5297 3.64269 45.094 3.64269H39.5161V0.358032H45.094C48.3419 0.358032 50.9778 2.98576 50.9778 6.22349V14.2709C50.9778 14.2709 50.9778 15.3032 51.731 16.054C52.3429 16.6875 53.3784 16.9925 54.767 16.9925V20.2771C53.3784 20.2771 52.3429 20.6056 51.731 21.2156C50.9778 21.9664 50.9778 23.0222 50.9778 23.0222V31.0461C50.9543 34.2838 48.3183 36.9115 45.094 36.9115Z" fill="#001B2A"/>
</svg>
