<svg width="184" height="118" viewBox="0 0 184 118" fill="none" xmlns="http://www.w3.org/2000/svg">
<path d="M9.8616 114.025H2.47836C1.55546 114.025 0.863281 114.72 0.863281 115.647C0.863281 116.573 1.55546 117.268 2.47836 117.268H9.8616C10.7845 117.268 11.4767 116.573 11.4767 115.647C11.4767 114.72 10.7845 114.025 9.8616 114.025Z" fill="#00C1C9"/>
<path d="M181.522 90.3992H179.907V88.7777C179.907 87.8512 179.214 87.1562 178.292 87.1562C177.369 87.1562 176.676 87.8512 176.676 88.7777V90.3992H175.061C174.138 90.3992 173.446 91.0941 173.446 92.0207C173.446 92.9472 174.138 93.6421 175.061 93.6421H176.676V95.2636C176.676 96.1902 177.369 96.8851 178.292 96.8851C179.214 96.8851 179.907 96.1902 179.907 95.2636V93.6421H181.522C182.445 93.6421 183.137 92.9472 183.137 92.0207C183.137 91.0941 182.445 90.3992 181.522 90.3992Z" fill="#00C1C9"/>
<path d="M24.3972 66.5408H22.7821V64.9193C22.7821 63.9928 22.0899 63.2979 21.167 63.2979C20.2441 63.2979 19.5519 63.9928 19.5519 64.9193V66.5408H17.9369C17.014 66.5408 16.3218 67.2357 16.3218 68.1623C16.3218 69.0888 17.014 69.7837 17.9369 69.7837H19.5519V71.4052C19.5519 72.3318 20.2441 73.0267 21.167 73.0267C22.0899 73.0267 22.7821 72.3318 22.7821 71.4052V69.7837H24.3972C25.3201 69.7837 26.0123 69.0888 26.0123 68.1623C26.0123 67.2357 25.0894 66.5408 24.3972 66.5408Z" fill="#00C1C9"/>
<path d="M127.301 83.4492C127.301 79.048 123.84 75.5735 119.456 75.5735C115.073 75.5735 111.612 79.048 111.612 83.4492C111.612 87.8503 115.073 91.3249 119.456 91.3249C123.84 91.5565 127.301 87.8503 127.301 83.4492ZM119.456 89.7034C115.995 89.7034 113.227 86.9238 113.227 83.4492C113.227 79.9746 115.995 77.1949 119.456 77.1949C122.917 77.1949 125.686 79.9746 125.686 83.4492C125.686 86.9238 122.917 89.7034 119.456 89.7034ZM133.761 103.602L128.224 94.1046H128.916C129.147 94.1046 129.378 94.1045 129.608 93.8729C130.07 93.8729 130.07 93.6413 130.07 93.178L129.839 89.4718L133.069 87.8503C133.3 87.8503 133.531 87.6187 133.531 87.387C133.531 87.1554 133.531 86.9238 133.531 86.6921L131.454 83.6808L133.531 80.6695C133.761 80.4379 133.761 80.2062 133.531 79.9746C133.3 79.743 133.3 79.5113 133.069 79.5113L129.839 77.4266L130.07 73.7204C130.07 73.4887 130.07 73.2571 129.839 73.0254C129.608 72.7938 129.378 72.7938 129.147 72.7938L125.455 73.0254L123.84 69.7825C123.84 69.5509 123.609 69.3192 123.379 69.3192C123.148 69.3192 122.917 69.3192 122.687 69.3192L119.687 71.404L116.226 69.3192C115.995 69.0876 115.765 69.0876 115.534 69.3192C115.303 69.3192 115.073 69.5509 115.073 69.7825L113.457 73.0254L109.766 72.7938C109.535 72.7938 109.304 72.7938 109.074 73.0254C108.843 73.2571 108.843 73.4887 108.843 73.7204L109.074 77.4266L105.844 79.0481C105.613 79.0481 105.382 79.2797 105.382 79.5113C105.382 79.743 105.382 79.9746 105.382 80.2062L107.459 83.2175L105.382 86.6921C105.151 86.9238 105.151 87.1554 105.382 87.387C105.613 87.6187 105.613 87.8503 105.844 87.8503L109.074 89.4718L108.843 93.178C108.843 93.4096 108.843 93.6413 109.074 93.8729C109.304 94.1045 109.535 94.1046 109.766 94.1046H110.458L104.921 103.602C104.69 103.833 104.69 104.297 104.921 104.528C105.151 104.76 105.382 104.992 105.844 104.992L109.535 104.528L110.919 108.003C111.15 108.235 111.381 108.466 111.612 108.466C111.842 108.466 112.304 108.235 112.304 108.003L119.226 96.1893L126.147 108.003C126.378 108.235 126.609 108.466 126.84 108.466C127.07 108.466 127.532 108.235 127.532 108.003L128.916 104.528L132.608 104.992C132.838 104.992 133.3 104.992 133.531 104.528C133.992 104.297 133.992 104.065 133.761 103.602ZM111.842 105.686L110.919 103.138C110.689 102.675 110.458 102.444 109.997 102.675L107.459 102.907L112.535 93.8729H113.457L115.073 97.1159C115.073 97.3475 115.303 97.5791 115.534 97.5791C115.765 97.5791 115.995 97.5791 116.226 97.5791L116.688 97.3475L111.842 105.686ZM119.918 93.8729C119.918 93.8729 119.687 93.8729 119.918 93.8729C119.687 93.8729 119.687 93.8729 119.687 93.8729C119.687 93.8729 119.687 93.8729 119.456 93.8729C119.456 93.8729 119.456 93.8729 119.226 93.8729C119.226 93.8729 119.226 93.8729 118.995 93.8729L116.226 95.726L114.611 92.7147C114.38 92.4831 114.15 92.2514 113.688 92.2514L110.458 92.4831L110.689 89.2401C110.689 89.0085 110.458 88.5452 110.227 88.3136L107.228 86.6921L109.074 83.9125C109.304 83.6808 109.304 83.2175 109.074 82.9859L107.228 80.2062L110.227 78.5848C110.458 78.3531 110.689 78.1215 110.689 77.6582L110.458 74.4153L113.688 74.6469C114.15 74.6469 114.38 74.4153 114.611 74.1836L116.226 71.1723L118.995 73.0254C119.226 73.2571 119.687 73.2571 119.918 73.0254L122.687 71.1723L124.302 74.1836C124.532 74.4153 124.763 74.6469 125.224 74.6469L128.455 74.4153L128.224 77.6582C128.224 77.8899 128.455 78.3531 128.685 78.5848L131.685 80.2062L129.839 82.9859C129.608 83.2175 129.608 83.6808 129.839 83.9125L131.685 86.6921L128.685 88.3136C128.455 88.5452 128.224 88.7769 128.224 89.2401L128.455 92.4831L125.224 92.2514C124.994 92.2514 124.532 92.4831 124.302 92.7147L122.687 95.726L119.918 93.8729ZM128.916 102.675C128.455 102.675 128.224 102.907 127.993 103.138L127.07 105.686L122.225 97.3475L122.687 97.5791C122.917 97.5791 122.917 97.8108 123.148 97.8108H123.379C123.609 97.8108 123.84 97.5791 123.84 97.3475L125.455 94.1046H126.378L131.454 103.138L128.916 102.675Z" fill="#457D96"/>
<path d="M14.0144 4.22975C14.2452 4.92466 14.0144 5.85122 13.0915 6.31449L11.2457 7.00941L12.1686 9.09416C12.3994 9.78907 12.1686 10.7156 11.2457 11.1789C11.015 11.1789 10.7843 11.4105 10.5535 11.4105C10.0921 11.1789 9.39991 10.9473 9.16919 10.2523L8.24628 8.1676L6.40048 9.09416C6.16975 9.09416 5.93902 9.32579 5.7083 9.32579C5.01612 9.32579 4.55467 8.86252 4.32394 8.39924C4.09321 7.70432 4.32394 6.77777 5.24685 6.31449L7.32338 5.38794L6.40048 3.30319C6.16975 2.60828 6.40048 1.68173 7.32338 1.21845C8.01556 0.98681 8.93846 1.21845 9.39991 2.145L10.0921 4.22975L11.9379 3.30319C12.8608 3.07156 13.7837 3.30319 14.0144 4.22975ZM166.986 7.93596C167.217 7.93596 167.447 7.93596 167.678 7.70432L169.755 6.77777L170.677 8.86252C170.908 9.55743 171.6 9.78907 172.062 9.78907C172.292 9.78907 172.523 9.78907 172.754 9.55743C173.446 9.32579 173.908 8.39924 173.677 7.47269L172.754 5.38794L174.83 4.46139C175.523 4.22975 175.984 3.30319 175.753 2.37664C175.523 1.45009 174.6 1.21845 173.677 1.45009L171.6 2.37664L170.447 0.98681C170.216 0.291895 169.293 -0.171382 168.37 0.060256C167.678 0.291894 167.217 1.21845 167.447 2.145L168.37 4.22975L166.294 5.1563C165.601 5.38794 165.14 6.31449 165.371 7.24105C165.832 7.70432 166.524 7.93596 166.986 7.93596ZM180.368 114.026H150.835C149.912 114.026 149.22 114.721 149.22 115.648C149.22 116.574 149.912 117.269 150.835 117.269H180.368C181.291 117.269 181.983 116.574 181.983 115.648C181.983 114.721 181.291 114.026 180.368 114.026ZM131.223 114.026H141.144C142.067 114.026 142.76 114.721 142.76 115.648C142.76 116.574 142.067 117.269 141.144 117.269H21.1669C20.244 117.269 19.5519 116.574 19.5519 115.648C19.5519 114.721 20.244 114.026 21.1669 114.026H33.1647V12.8004C33.1647 7.70433 37.5485 3.30319 42.6245 3.30319H123.148H123.379C128.685 3.30319 133.069 7.70432 133.069 13.032H143.452C146.913 13.032 149.681 15.8117 149.681 19.2862V32.258C149.681 37.5857 145.298 41.9868 139.991 41.9868H116.918V60.7495C117.841 60.7495 118.533 60.5179 119.456 60.5179C134.915 60.5179 147.374 73.0264 147.374 88.5461C147.374 99.6648 140.683 109.394 131.223 114.026ZM133.3 32.0264C133.3 35.7326 136.299 38.7439 139.991 38.7439C143.682 38.7439 146.682 35.7326 146.682 32.0264V19.0546C146.682 17.4331 145.298 16.0433 143.682 16.0433H133.531V32.0264H133.3ZM116.918 38.7439H132.838C131.223 36.8908 130.07 34.5744 130.07 32.0264V13.2636C130.07 9.55743 127.07 6.54613 123.379 6.54613C119.687 6.54613 116.688 9.55743 116.688 13.2636V38.7439H116.918ZM107.689 114.026C97.9987 109.625 91.5384 99.8964 91.5384 88.5461C91.5384 88.3145 91.5384 87.8512 91.5384 87.6196H45.3932C44.4703 87.6196 43.7781 86.9247 43.7781 85.9981C43.7781 85.0716 44.4703 84.3766 45.3932 84.3766H91.7691C93.3842 72.5631 102.383 63.2976 113.688 60.7495V13.2636C113.688 10.7156 114.611 8.39924 116.457 6.54613H42.6245C39.1636 6.54613 36.3949 9.32579 36.3949 12.8004V114.026H107.689ZM144.375 88.5461C144.375 74.6478 133.3 63.5292 119.456 63.5292C105.613 63.5292 94.5378 74.6478 94.5378 88.5461C94.5378 102.444 105.613 113.563 119.456 113.563C133.3 113.563 144.375 102.213 144.375 88.5461ZM81.3864 101.055H45.3932C44.4703 101.055 43.7781 101.75 43.7781 102.676C43.7781 103.603 44.4703 104.298 45.3932 104.298H81.3864C82.3093 104.298 83.0015 103.603 83.0015 102.676C83.0015 101.75 82.3093 101.055 81.3864 101.055ZM45.3932 71.1733H85.3088C86.2317 71.1733 86.9239 70.4783 86.9239 69.5518C86.9239 68.6252 86.2317 67.9303 85.3088 67.9303H45.3932C44.4703 67.9303 43.7781 68.6252 43.7781 69.5518C43.7781 70.4783 44.701 71.1733 45.3932 71.1733ZM45.3932 54.7269H103.536C104.459 54.7269 105.151 54.032 105.151 53.1055C105.151 52.1789 104.459 51.484 103.536 51.484H45.3932C44.4703 51.484 43.7781 52.1789 43.7781 53.1055C43.7781 54.032 44.701 54.7269 45.3932 54.7269ZM44.4703 39.6704L55.0837 14.6535C55.5451 13.4953 57.3909 13.4953 57.8524 14.6535L68.4658 39.6704C68.6965 40.3653 68.4658 41.2919 67.5429 41.7552C67.3121 41.7552 67.0814 41.9868 66.8507 41.9868C66.1585 41.9868 65.6971 41.5235 65.4663 41.0603L63.1591 34.5744H50.0077L47.239 40.8286C47.0083 41.5235 46.0854 41.9868 45.1624 41.7552C44.4703 41.2919 44.2395 40.3653 44.4703 39.6704ZM51.392 31.3314H61.7747L56.468 19.0546L51.392 31.3314Z" fill="#457D96"/>
<path d="M86.2316 25.7718H80.4635V19.9808C80.4635 19.0543 79.7713 18.3594 78.8484 18.3594C77.9255 18.3594 77.2333 19.0543 77.2333 19.9808V25.7718H71.4652C70.5423 25.7718 69.8501 26.4667 69.8501 27.3933C69.8501 28.3198 70.5423 29.0147 71.4652 29.0147H77.2333V34.8057C77.2333 35.7323 77.9255 36.4272 78.8484 36.4272C79.7713 36.4272 80.4635 35.7323 80.4635 34.8057V29.0147H86.2316C87.1546 29.0147 87.8467 28.3198 87.8467 27.3933C87.8467 26.4667 87.1546 25.7718 86.2316 25.7718Z" fill="#00C1C9"/>
</svg>
