<svg width="196" height="116" viewBox="0 0 196 116" fill="none" xmlns="http://www.w3.org/2000/svg">
<path d="M69.736 100.785C69.736 100.785 68.813 107.039 64.8907 107.039H45.9712C42.0489 107.039 41.126 100.785 41.126 100.785H69.736Z" fill="#00C1C9"/>
<path d="M18.2845 43.5704C17.3616 43.5704 16.6694 42.8755 16.6694 41.9489V34.5365C16.6694 33.61 17.3616 32.915 18.2845 32.915C19.2074 32.915 19.8996 33.61 19.8996 34.5365V41.9489C19.8996 42.8755 19.2074 43.5704 18.2845 43.5704Z" fill="#00C1C9"/>
<path d="M21.9758 39.864H14.5926C13.6697 39.864 12.9775 39.1691 12.9775 38.2426C12.9775 37.316 13.6697 36.6211 14.5926 36.6211H21.9758C22.8987 36.6211 23.5909 37.316 23.5909 38.2426C23.5909 39.1691 22.8987 39.864 21.9758 39.864Z" fill="#00C1C9"/>
<path d="M193.636 82.7179H191.56V80.6332C191.56 79.7066 190.867 79.0117 189.944 79.0117C189.022 79.0117 188.329 79.7066 188.329 80.6332V82.7179H186.253C185.33 82.7179 184.638 83.4128 184.638 84.3394C184.638 85.266 185.33 85.9609 186.253 85.9609H188.329V88.0456C188.329 88.9722 189.022 89.6671 189.944 89.6671C190.867 89.6671 191.56 88.9722 191.56 88.0456V85.9609H193.636C194.559 85.9609 195.251 85.266 195.251 84.3394C195.251 83.4128 194.328 82.7179 193.636 82.7179Z" fill="#00C1C9"/>
<path d="M180.715 115.61H169.179C168.256 115.61 167.564 114.915 167.564 113.989C167.564 113.062 168.256 112.367 169.179 112.367H180.715C181.638 112.367 182.33 113.062 182.33 113.989C182.33 114.915 181.408 115.61 180.715 115.61Z" fill="#00C1C9"/>
<path d="M149.567 5.81303C149.567 4.88648 150.26 4.19157 151.182 4.19157H153.259V2.10682C153.259 1.18027 153.951 0.485352 154.874 0.485352C155.797 0.485352 156.489 1.18027 156.489 2.10682V4.19157H158.566C159.489 4.19157 160.181 4.88648 160.181 5.81303C160.181 6.73959 159.489 7.4345 158.566 7.4345H156.489V9.51925C156.489 10.4458 155.797 11.1407 154.874 11.1407C153.951 11.1407 153.259 10.4458 153.259 9.51925V7.4345H151.182C150.26 7.4345 149.567 6.73959 149.567 5.81303ZM112.651 63.0277V90.3611C112.651 91.2876 111.728 92.2142 110.805 92.2142H99.4998C98.5769 92.2142 97.654 91.2876 97.654 90.3611V63.0277C97.654 62.1012 98.5769 61.1746 99.4998 61.1746H110.805C111.728 61.1746 112.651 61.8695 112.651 63.0277ZM110.344 63.491H99.9612V89.8978H110.344V63.491ZM74.3506 77.8526V90.3611C74.3506 91.2876 73.4278 92.2142 72.5049 92.2142H61.1993C60.2763 92.2142 59.3534 91.2876 59.3534 90.3611V77.8526C59.3534 76.926 60.2763 75.9995 61.1993 75.9995H72.5049C73.6585 75.9995 74.3506 76.6944 74.3506 77.8526ZM72.0434 78.3158H61.6607V89.8978H72.0434V78.3158ZM93.5009 70.6718V89.8978C93.5009 91.056 92.578 92.2142 91.1936 92.2142H80.8109C79.6573 92.2142 78.5037 91.2876 78.5037 89.8978V70.6718C78.5037 69.5136 79.4266 68.3554 80.8109 68.3554H91.1936C92.3472 68.3554 93.5009 69.282 93.5009 70.6718ZM91.1936 89.6661V70.6718H80.8109V89.8978L91.1936 89.6661ZM174.486 94.7622L173.563 95.4571C172.64 96.3837 171.256 96.6153 169.871 96.6153C169.641 96.6153 169.41 96.6153 169.179 96.6153C167.564 96.3837 166.18 95.6887 165.257 94.2989L156.028 82.2537V100.322C156.028 100.322 156.028 100.322 156.028 100.553C156.028 100.553 156.028 100.553 156.028 100.785C156.028 101.248 154.643 108.197 150.029 112.367H160.411C161.334 112.367 162.027 113.062 162.027 113.988C162.027 114.915 161.334 115.61 160.411 115.61H52.4317C51.5088 115.61 50.8166 114.915 50.8166 113.988C50.8166 113.062 51.5088 112.367 52.4317 112.367H102.499C99.0384 109.124 97.4233 104.259 96.7311 102.175H10.901C12.2853 105.649 15.7462 112.367 22.2065 112.367H41.3568C42.2797 112.367 42.9719 113.062 42.9719 113.988C42.9719 114.915 42.2797 115.61 41.3568 115.61H2.3641C1.44119 115.61 0.749023 114.915 0.749023 113.988C0.749023 113.062 1.44119 112.367 2.3641 112.367H13.9004C9.05516 108.197 7.20933 101.248 7.20933 101.016C7.20933 101.016 7.20933 101.016 7.20933 100.785V100.553V100.322V100.09C7.20933 99.8582 7.20934 99.8582 7.44007 99.6266C7.44007 99.6266 7.44007 99.6266 7.44007 99.3949C7.44007 99.1633 7.67078 99.1633 7.90151 99.1633C7.90151 99.1633 7.90153 99.1633 8.13225 99.1633C8.36298 99.1633 8.59371 98.9317 8.82444 98.9317H35.5886V27.587C35.5886 22.7226 39.511 19.0164 44.1255 19.0164H147.26C152.105 19.0164 155.797 22.9543 155.797 27.587V33.6096C156.951 34.5362 158.104 35.6944 159.027 37.0842C165.026 44.7283 165.487 54.9204 161.334 63.0277C161.565 63.0277 161.796 63.2594 161.796 63.491L164.795 67.4288C166.18 69.0503 165.949 71.3667 164.565 72.7565L175.178 86.4232C177.485 89.2029 177.024 92.9091 174.486 94.7622ZM142.876 31.2933C141.953 31.2933 141.261 31.0616 140.338 31.0616C135.724 31.0616 131.34 32.6831 127.648 35.4628C118.65 42.6435 117.035 55.6153 124.187 64.8808C127.648 69.282 132.494 72.0616 138.031 72.7565C143.568 73.4514 148.875 71.83 153.259 68.587C162.257 61.4063 163.872 48.4345 156.72 39.169C153.259 34.7678 148.414 31.9882 142.876 31.2933ZM48.2786 30.3667H130.648C134.57 28.5136 138.954 27.8187 143.568 28.282C147.029 28.7452 150.26 29.9034 153.028 31.5249V27.587C153.028 24.5757 150.49 22.0277 147.491 22.0277H44.3562C41.3568 22.0277 38.8188 24.5757 38.8188 27.587V99.1633H46.8942V31.7565C46.6635 31.0616 47.3557 30.3667 48.2786 30.3667ZM141.261 99.1633V75.9995C141.03 75.9995 140.8 75.9995 140.569 75.9995C139.646 75.9995 138.723 75.9995 137.57 75.7678C131.34 75.0729 125.572 71.83 121.649 66.7339C113.574 56.3102 115.42 41.4854 125.572 33.378H49.8937V99.1633H141.261ZM152.336 102.175H99.9612C100.884 105.649 103.884 112.367 110.575 112.367H141.953C148.414 112.598 151.413 105.649 152.336 102.175ZM152.798 81.5588C152.336 81.5588 152.336 81.5588 152.105 81.5588C150.952 81.3272 150.029 80.8639 149.337 79.9373L146.337 75.9995C146.106 75.7678 146.106 75.5362 146.106 75.5362C145.645 75.7678 144.953 75.7678 144.491 75.7678V99.1633H153.028V81.5588H152.798ZM160.411 72.5249L161.334 71.83L162.488 70.9034C162.949 70.6718 162.949 69.9769 162.719 69.5136L160.642 66.7339L149.798 75.3046L151.875 78.0842C152.105 78.3159 152.336 78.5475 152.567 78.5475C152.798 78.5475 153.028 78.5475 153.259 78.3158L160.411 72.5249ZM173.101 88.5079L162.488 74.8413L157.181 79.0108L167.795 92.6774C168.256 93.3724 168.948 93.604 169.64 93.604C170.333 93.604 171.025 93.604 171.717 93.1407L172.64 92.4458C173.794 91.5192 174.024 89.6661 173.101 88.5079ZM145.414 63.9543C144.261 64.4175 143.107 64.6492 141.953 64.8808C141.03 64.8808 140.569 65.8074 140.569 66.5023C140.569 67.1972 141.261 67.8921 142.184 67.8921H142.415C143.799 67.6605 145.414 67.4289 146.799 66.7339C147.491 66.5023 147.952 65.5757 147.722 64.6492C147.029 63.9543 146.106 63.491 145.414 63.9543ZM138.723 36.1577C137.8 36.1577 137.339 37.0842 137.339 37.7791C137.339 38.4741 138.262 39.169 138.954 39.169C143.338 38.7057 147.722 40.5588 150.49 44.0334C154.413 49.1294 153.951 56.3102 149.567 60.943C148.875 61.6379 148.875 62.5644 149.567 63.0277C149.798 63.2594 150.26 63.491 150.721 63.491C151.182 63.491 151.413 63.2594 151.875 63.0277C157.412 57.2368 157.873 48.2029 153.028 41.9486C149.567 37.7791 144.261 35.4627 138.723 36.1577ZM61.1993 65.3441C61.1993 62.1012 63.7372 59.5531 66.9674 59.5531C68.121 59.5531 69.2747 60.0164 70.1976 60.4797L79.6573 52.1407C79.1959 51.4458 78.9652 50.5192 78.9652 49.5927C78.9652 46.3498 81.5031 43.8017 84.7333 43.8017C87.502 43.8017 90.04 45.8865 90.5015 48.6661L99.4998 49.5927C100.423 47.5079 102.499 45.8865 104.807 45.8865C108.037 45.8865 110.575 48.4345 110.575 51.6774C110.575 54.9204 108.037 57.4684 104.807 57.4684C102.038 57.4684 99.4998 55.3837 99.0384 52.604L90.04 51.6774C89.1171 53.7622 87.0406 55.3837 84.7333 55.3837C83.5797 55.3837 82.4261 54.9204 81.5032 54.4571L72.0434 62.7961C72.5048 63.491 72.7355 64.4176 72.7355 65.3441C72.7355 68.587 70.1976 71.1351 66.9674 71.1351C63.7372 71.1351 61.1993 68.587 61.1993 65.3441ZM101.115 52.1407C101.115 53.9938 102.73 55.6153 104.576 55.6153C106.422 55.6153 108.037 53.9938 108.037 52.1407C108.037 50.2876 106.422 48.6661 104.576 48.6661C102.73 48.6661 101.115 50.056 101.115 52.1407ZM81.2724 49.8243C81.2724 51.6774 82.8875 53.2989 84.7333 53.2989C86.5791 53.2989 88.1942 51.6774 88.1942 49.8243C88.1942 47.9712 86.5791 46.3498 84.7333 46.3498C82.6568 46.3498 81.2724 47.9712 81.2724 49.8243ZM63.5065 65.3441C63.5065 67.1972 65.1216 68.8187 66.9674 68.8187C68.8132 68.8187 70.4283 67.1972 70.4283 65.3441C70.4283 63.491 68.8132 61.8695 66.9674 61.8695C65.1216 61.8695 63.5065 63.491 63.5065 65.3441Z" fill="#457D96"/>
</svg>
