<svg width="183" height="122" viewBox="0 0 183 122" fill="none" xmlns="http://www.w3.org/2000/svg">
<path d="M90.923 94.5083C92.707 94.5083 94.1532 93.0564 94.1532 91.2654C94.1532 89.4744 92.707 88.0225 90.923 88.0225C89.139 88.0225 87.6929 89.4744 87.6929 91.2654C87.6929 93.0564 89.139 94.5083 90.923 94.5083Z" fill="#00C1C9"/>
<path d="M59.3134 11.1193C60.9699 11.1193 62.3128 9.77107 62.3128 8.10798C62.3128 6.44488 60.9699 5.09668 59.3134 5.09668C57.6569 5.09668 56.314 6.44488 56.314 8.10798C56.314 9.77107 57.6569 11.1193 59.3134 11.1193Z" fill="#00C1C9"/>
<path d="M84.4627 65.7856C84.232 65.7856 84.0012 65.7856 83.7705 65.554C83.0783 65.0907 82.6169 64.1641 83.0783 63.4692L96.4605 34.2828C96.9219 33.5879 97.8448 33.1246 98.537 33.5879C99.2292 34.0511 99.6906 34.9777 99.2292 35.6726L85.847 64.859C85.6163 65.554 84.9242 65.7856 84.4627 65.7856Z" fill="#00C1C9"/>
<path d="M68.5425 25.7117H60.0057C59.0828 25.7117 58.3906 25.0168 58.3906 24.0902C58.3906 23.1637 59.0828 22.4688 60.0057 22.4688H68.5425C69.4654 22.4688 70.1576 23.1637 70.1576 24.0902C70.1576 25.0168 69.4654 25.7117 68.5425 25.7117Z" fill="#00C1C9"/>
<path d="M180.906 121.379H172.831C171.908 121.379 171.216 120.684 171.216 119.757C171.216 118.831 171.908 118.136 172.831 118.136H180.906C181.829 118.136 182.521 118.831 182.521 119.757C182.521 120.684 181.829 121.379 180.906 121.379Z" fill="#00C1C9"/>
<path d="M159.68 31.2716C158.757 31.2716 158.064 30.5767 158.064 29.6501V22.2377C158.064 21.3111 158.757 20.6162 159.68 20.6162C160.602 20.6162 161.295 21.3111 161.295 22.2377V29.6501C161.295 30.5767 160.602 31.2716 159.68 31.2716Z" fill="#00C1C9"/>
<path d="M163.371 27.5652H155.988C155.065 27.5652 154.373 26.8703 154.373 25.9437C154.373 25.0172 155.065 24.3223 155.988 24.3223H163.371C164.294 24.3223 164.986 25.0172 164.986 25.9437C164.986 26.8703 164.294 27.5652 163.371 27.5652Z" fill="#00C1C9"/>
<path d="M122.994 115.357C122.071 115.357 121.379 114.662 121.379 113.735V107.481C121.379 106.554 122.071 105.859 122.994 105.859C123.917 105.859 124.609 106.554 124.609 107.481V113.735C124.378 114.662 123.686 115.357 122.994 115.357Z" fill="#00C1C9"/>
<path d="M125.994 112.113H119.764C118.841 112.113 118.149 111.418 118.149 110.492C118.149 109.565 118.841 108.87 119.764 108.87H125.994C126.917 108.87 127.609 109.565 127.609 110.492C127.609 111.418 126.917 112.113 125.994 112.113Z" fill="#00C1C9"/>
<path d="M8.32353 12.7399C8.55426 12.7399 8.78499 12.7399 9.01572 12.5082L11.0923 11.5817L12.0152 13.6664C12.2459 14.3613 12.9381 14.593 13.3995 14.593C13.6303 14.593 13.861 14.593 14.0917 14.3613C14.7839 14.1297 15.2453 13.2031 15.0146 12.2766L13.861 10.6551L15.9375 9.72857C16.6297 9.49693 17.0911 8.57037 16.8604 7.64382C16.6297 6.71727 15.7068 6.48563 14.7839 6.71727L12.7073 7.64382L11.7844 5.55908C11.5537 4.86416 10.6308 4.40088 9.70789 4.63252C9.01571 4.86416 8.55427 5.79071 8.785 6.71727L9.70789 8.80201L7.63137 9.72857C6.93919 9.96021 6.47773 10.8868 6.70846 11.8133C7.16991 12.5082 7.86208 12.7399 8.32353 12.7399Z" fill="#457D96"/>
<path d="M67.3891 5.09668C65.774 5.09668 64.3896 6.48651 64.3896 8.10798C64.3896 9.72945 65.774 11.1193 67.3891 11.1193C69.0042 11.1193 70.3885 9.72945 70.3885 8.10798C70.3885 6.48651 69.0042 5.09668 67.3891 5.09668Z" fill="#457D96"/>
<path d="M45.4701 118.367H2.09361C1.1707 118.367 0.478516 119.062 0.478516 119.989C0.478516 120.915 1.1707 121.61 2.09361 121.61H45.4701C46.393 121.61 47.0851 120.915 47.0851 119.989C47.0851 119.062 46.393 118.367 45.4701 118.367Z" fill="#457D96"/>
<path d="M122.533 22.7002H78.9256C78.0027 22.7002 77.3105 23.3951 77.3105 24.3217C77.3105 25.2482 78.0027 25.9431 78.9256 25.9431H122.533C123.456 25.9431 124.148 25.2482 124.148 24.3217C124.148 23.3951 123.225 22.7002 122.533 22.7002Z" fill="#457D96"/>
<path d="M101.536 57.6787C101.767 58.142 102.459 58.6053 102.921 58.6053C103.151 58.6053 103.382 58.6053 103.613 58.3736L118.149 51.1928C118.61 50.9612 119.072 50.4979 119.072 49.803C119.072 49.1081 118.841 48.6448 118.149 48.4132L103.613 41.2324C102.921 40.7691 101.998 41.2324 101.536 41.9273C101.075 42.6222 101.536 43.5488 102.229 44.012L113.996 49.803L102.229 55.594C101.306 55.8256 101.075 56.7522 101.536 57.6787Z" fill="#457D96"/>
<path d="M122.533 72.9658H113.996C113.073 72.9658 112.381 73.6607 112.381 74.5873C112.381 75.5139 113.073 76.2088 113.996 76.2088H122.533C123.456 76.2088 124.148 75.5139 124.148 74.5873C124.148 73.6607 123.225 72.9658 122.533 72.9658Z" fill="#457D96"/>
<path d="M159.218 118.367H116.765C116.534 114.198 112.842 110.723 108.689 110.723H107.074C103.613 107.017 103.844 101.921 104.075 99.8362H142.606C146.297 99.8362 149.528 96.8249 149.528 92.887V21.774C149.528 16.4463 145.375 12.2768 140.068 12.2768H132.915V7.87571C132.915 3.47458 129.454 0 125.071 0H57.2372C52.8534 0 49.3925 3.47458 49.3925 7.87571V12.2768H42.2401C36.9334 12.2768 32.7803 16.4463 32.7803 21.774V90.1073C32.7803 95.435 36.9334 99.6045 42.2401 99.6045H78.2333C78.464 101.921 78.6948 106.785 75.2339 110.492H73.6188C69.235 110.492 65.7741 113.966 65.5434 118.136H60.0059C59.083 118.136 58.3909 118.831 58.3909 119.757C58.3909 120.684 59.083 121.379 60.0059 121.379H159.218C160.141 121.379 160.833 120.684 160.833 119.757C160.833 118.831 160.141 118.367 159.218 118.367ZM132.685 15.5198H139.837C143.298 15.5198 146.067 18.2994 146.067 21.774V83.3898C143.759 83.3898 141.222 83.3898 138.684 83.3898V23.3955C138.684 22.4689 137.991 21.774 137.068 21.774H132.454V15.5198H132.685ZM132.685 24.7853H135.915V83.1582H132.685V24.7853ZM52.1613 7.87571C52.1613 5.32768 54.2378 3.0113 57.0065 3.0113H124.84C127.378 3.0113 129.685 5.09605 129.685 7.87571V12.2768H52.1613V7.87571ZM52.1613 15.5198H129.685V83.3898H52.1613V15.5198ZM35.549 21.774C35.549 18.2994 38.3177 15.5198 41.7786 15.5198H48.9311V22.0057H43.3937C42.4708 22.0057 41.7786 22.7006 41.7786 23.6271V83.8531C38.7792 83.8531 36.4719 83.8531 35.0875 83.6215V21.774H35.549ZM49.1618 24.7853V83.1582H45.2395V24.7853H49.1618ZM41.7786 96.5932C38.3177 96.5932 35.549 93.8136 35.549 90.339V86.4011C39.0099 86.6328 47.316 86.8644 68.0814 86.8644C84.6936 86.8644 109.612 86.8644 146.297 86.4011V92.887C146.297 94.9718 144.682 96.5932 142.606 96.5932H41.7786ZM80.7713 99.6045H100.844C100.614 102.153 100.614 106.554 103.152 110.492H78.6948C81.2327 106.554 81.2327 102.153 80.7713 99.6045ZM68.3121 118.367C68.5428 115.819 70.8501 113.734 73.3881 113.734H108.689C111.227 113.734 113.534 115.819 113.765 118.367H68.3121Z" fill="#457D96"/>
<path d="M75.2338 5.09668C73.6187 5.09668 72.2344 6.48651 72.2344 8.10798C72.2344 9.72945 73.6187 11.1193 75.2338 11.1193C76.8489 11.1193 78.2332 9.72945 78.2332 8.10798C78.2332 6.48651 76.8489 5.09668 75.2338 5.09668Z" fill="#457D96"/>
<path d="M64.1588 51.1928L78.6945 58.3736C78.9252 58.3736 79.1559 58.6053 79.3866 58.6053C79.8481 58.6053 80.5403 58.3736 80.771 57.6787C81.2325 56.9838 80.771 56.0572 80.0788 55.594L68.3118 49.803L80.0788 44.012C80.771 43.5488 81.2325 42.6222 80.771 41.9273C80.3096 41.2324 79.3867 40.7691 78.6945 41.2324L64.1588 48.4132C63.6973 48.6448 63.2358 49.1081 63.2358 49.803C63.2358 50.4979 63.6973 50.9612 64.1588 51.1928Z" fill="#457D96"/>
<path d="M104.305 72.9658H60.0057C59.0828 72.9658 58.3906 73.6607 58.3906 74.5873C58.3906 75.5139 59.0828 76.2088 60.0057 76.2088H104.305C105.228 76.2088 105.92 75.5139 105.92 74.5873C105.92 73.6607 105.228 72.9658 104.305 72.9658Z" fill="#457D96"/>
</svg>
