<svg width="183" height="124" viewBox="0 0 183 124" fill="none" xmlns="http://www.w3.org/2000/svg">
<path d="M11.3526 123.378H2.81578C1.89289 123.378 1.20068 122.683 1.20068 121.756C1.20068 120.83 1.89289 120.135 2.81578 120.135H11.3526C12.2754 120.135 12.9677 120.83 12.9677 121.756C12.9677 122.683 12.2754 123.378 11.3526 123.378Z" fill="#00C1C9"/>
<path d="M157.402 21.6888H155.095V19.3724C155.095 18.4459 154.403 17.751 153.48 17.751C152.557 17.751 151.865 18.4459 151.865 19.3724V21.6888H149.558C148.635 21.6888 147.942 22.3837 147.942 23.3103C147.942 24.2369 148.635 24.9318 149.558 24.9318H151.865V27.2482C151.865 28.1747 152.557 28.8696 153.48 28.8696C154.403 28.8696 155.095 28.1747 155.095 27.2482V24.9318H157.402C158.325 24.9318 159.017 24.2369 159.017 23.3103C159.017 22.3837 158.325 21.6888 157.402 21.6888Z" fill="#00C1C9"/>
<path d="M105.027 80.9878L104.797 79.1347L92.3376 72.6488C91.8761 72.4172 91.184 72.4172 90.7225 72.6488L84.0314 76.1234C83.3392 76.355 82.6471 75.8918 82.6471 75.1968L84.2622 65.9313C84.2622 65.468 84.2622 65.0048 83.8007 64.5415L79.4169 60.372C78.494 59.6771 78.9555 58.2872 80.1091 58.0556L87.2616 57.129C87.7231 57.129 88.1845 56.6658 88.4153 56.2025L93.9527 45.0838L92.5683 42.3042C92.1068 41.146 90.261 41.146 89.7996 42.3042L84.2622 53.4228C84.0314 53.8861 83.57 54.1177 83.1085 54.3494L70.8801 56.2025C69.4957 56.4341 69.0343 58.0556 69.9572 58.9822L78.9555 67.7844C79.4169 68.2477 79.4169 68.711 79.4169 69.1742L77.3404 81.4511C77.1097 82.8409 78.494 83.7675 79.6476 83.0725L90.7225 77.2816C91.184 77.0499 91.6454 77.0499 92.1068 77.2816L103.182 83.0725C103.874 83.0725 105.258 82.146 105.027 80.9878Z" fill="#00C1C9"/>
<path d="M180.706 120.367H165.939C165.016 120.367 164.324 121.062 164.324 121.989C164.324 122.915 165.016 123.61 165.939 123.61H180.706C181.629 123.61 182.321 122.915 182.321 121.989C182.321 121.062 181.629 120.367 180.706 120.367Z" fill="#457D96"/>
<path d="M8.81463 61.2993L6.73804 62.2259L5.81515 60.1411C5.58442 59.4462 4.66153 58.9829 3.73863 59.2146C3.04645 59.4462 2.58501 60.3727 2.81574 61.2993L3.73863 63.384L1.66211 64.3106C0.969931 64.5422 0.508493 65.4688 0.739219 66.3953C0.969945 67.0903 1.66207 67.3219 2.12352 67.3219C2.35425 67.3219 2.58501 67.3219 2.81574 67.0903L4.89226 66.1637L5.81515 68.2484C6.04588 68.9434 6.73807 69.175 7.19952 69.175C7.43025 69.175 7.66094 69.175 7.89167 68.9434C8.58385 68.7117 9.04536 67.7852 8.81463 66.8586L7.89167 64.7739L9.96826 63.8473C10.6604 63.6157 11.1219 62.6891 10.8912 61.7626C10.4297 61.2993 9.50681 61.0677 8.81463 61.2993Z" fill="#457D96"/>
<path d="M90.9529 79.3663H91.1836L92.7988 80.0613C93.4909 80.2929 94.4138 80.0612 94.8753 79.1347C95.106 78.4398 94.8753 77.5132 93.9524 77.0499L92.3373 76.355C91.4144 75.8918 90.4915 75.8918 89.5686 76.355L79.1859 80.7562C78.9552 80.7562 78.9552 80.7562 78.7245 80.7562L78.4937 80.5245L79.6473 69.1742C79.6473 68.2477 79.4166 67.3211 78.7245 66.6262L71.3412 58.0556C71.3412 57.824 71.3412 57.824 71.3412 57.5923C71.3412 57.5923 71.3412 57.3607 71.5719 57.3607L82.6468 54.8127C83.5697 54.581 84.4926 54.1177 84.9541 53.1912L85.877 51.8014C86.3384 51.1064 86.1077 50.1799 85.4155 49.7166C84.7233 49.2533 83.8004 49.485 83.339 50.1799L82.4161 51.5697L82.1853 51.8014L71.1105 54.3494C69.9569 54.581 69.034 55.5076 68.5725 56.6658C68.1111 57.824 68.3418 59.2138 69.2647 60.1403L76.6479 68.711V68.9426L75.4943 80.2929C75.4943 81.4511 75.9558 82.6093 76.8787 83.5358C77.5709 83.9991 78.263 84.2307 78.9552 84.2307C79.4166 84.2307 79.8781 84.2307 80.3396 83.9991L90.9529 79.3663Z" fill="#457D96"/>
<path d="M86.3382 47.8628C87.0304 48.3261 87.9533 48.0945 88.4148 47.3995L90.4913 43.6933C90.4913 43.4617 90.722 43.4617 90.722 43.4617C90.722 43.4617 90.9527 43.4617 90.9527 43.6933L96.7209 53.4221C97.1823 54.3487 98.1052 54.812 99.0281 55.0436L110.103 57.5916C110.334 57.5916 110.334 57.8233 110.334 57.8233C110.334 57.8233 110.334 58.0549 110.334 58.2865L102.95 66.8572C102.258 67.5521 102.028 68.4786 102.028 69.4052L103.181 80.7555C103.181 80.9871 103.181 80.9871 102.95 80.9871C102.95 80.9871 102.72 80.9871 102.489 80.9871L98.336 79.134C97.6438 78.9024 96.7209 79.134 96.2595 80.0606C96.0287 80.7555 96.2594 81.682 96.9516 82.1453L101.105 83.9984C101.566 84.23 102.028 84.23 102.489 84.23C103.181 84.23 103.873 83.9984 104.566 83.5351C105.489 82.8402 106.181 81.682 105.95 80.2922L104.796 68.9419V68.7103L112.18 60.1396C113.102 59.2131 113.333 58.0549 112.872 56.6651C112.41 55.2752 111.487 54.5803 110.334 54.3487L99.2589 51.8007C99.2589 51.8007 99.0281 51.8007 99.0281 51.569L93.26 41.8402C92.5678 40.682 91.4142 40.2188 90.2606 40.2188C89.1069 40.2188 87.9533 40.9137 87.2612 41.8402L85.1846 45.5464C85.4153 46.473 85.646 47.3995 86.3382 47.8628Z" fill="#457D96"/>
<path d="M80.1089 36.5137C80.3397 37.2086 81.0319 37.6719 81.4934 37.6719C81.7241 37.6719 81.724 37.6719 81.9548 37.6719C82.8777 37.4402 83.3392 36.5137 83.1084 35.8188L82.4163 33.5024C82.1855 32.5758 81.2626 32.1125 80.5704 32.3442C79.6474 32.5758 79.186 33.5024 79.4167 34.1973L80.1089 36.5137Z" fill="#457D96"/>
<path d="M99.4896 37.4394C99.7203 37.4394 99.7203 37.4394 99.9511 37.4394C100.643 37.4394 101.335 36.9762 101.335 36.2813L102.028 33.9649C102.258 33.0383 101.797 32.3434 100.874 32.1118C99.9511 31.8801 99.2588 32.3434 99.0281 33.27L98.3359 35.5863C98.3359 36.5129 98.7974 37.2078 99.4896 37.4394Z" fill="#457D96"/>
<path d="M64.189 46.9368L66.4963 47.8634C66.727 47.8634 66.9577 48.095 67.1884 48.095C67.8806 48.095 68.3421 47.8634 68.5728 47.1685C69.0343 46.4736 68.5728 45.547 67.8806 45.0837L65.5733 44.1572C64.8811 43.9255 63.9582 44.1572 63.4968 44.8521C63.0353 45.547 63.4968 46.4736 64.189 46.9368Z" fill="#457D96"/>
<path d="M114.256 48.096C114.487 48.096 114.718 48.096 114.948 47.8644L117.256 46.9378C117.948 46.4745 118.409 45.7796 117.948 44.8531C117.486 44.1582 116.794 43.6949 115.871 44.1582L113.564 45.0847C112.872 45.548 112.41 46.2429 112.872 47.1695C113.103 47.6327 113.564 48.096 114.256 48.096Z" fill="#457D96"/>
<path d="M83.8003 87.0109C83.1081 86.5477 82.1852 86.7793 81.7237 87.7058L80.5701 89.7906C80.1086 90.4855 80.3394 91.4121 81.2623 91.8753C81.493 92.107 81.7237 92.107 81.9545 92.107C82.4159 92.107 83.1081 91.8753 83.3388 91.1804L84.4925 89.0957C84.9539 88.1691 84.4925 87.2426 83.8003 87.0109Z" fill="#457D96"/>
<path d="M99.7204 87.4732C99.2589 86.7783 98.3361 86.5466 97.6439 86.7783C96.9518 87.2415 96.721 88.1681 96.9517 88.863L98.1053 90.9478C98.336 91.411 99.0282 91.8743 99.4896 91.8743C99.7203 91.8743 99.951 91.8743 100.182 91.6427C100.874 91.1794 101.105 90.2528 100.874 89.5579L99.7204 87.4732Z" fill="#457D96"/>
<path d="M117.487 72.6484L115.41 71.2586C114.718 70.7953 113.795 71.027 113.334 71.7219C112.872 72.4168 113.103 73.3434 113.795 73.8066L115.872 75.1965C116.102 75.4281 116.333 75.4281 116.795 75.4281C117.256 75.4281 117.718 75.1965 118.179 74.7332C118.41 74.0383 118.179 73.1117 117.487 72.6484Z" fill="#457D96"/>
<path d="M66.0348 71.2586L63.9584 72.6484C63.2662 73.1117 63.0355 74.0383 63.4969 74.7332C63.7276 75.1965 64.1891 75.4281 64.8812 75.4281C65.1119 75.4281 65.5734 75.4281 65.8041 75.1965L67.8805 73.8066C68.5727 73.3434 68.8034 72.4168 68.342 71.7219C67.6498 71.027 66.727 70.7953 66.0348 71.2586Z" fill="#457D96"/>
<path d="M101.336 119.672C101.567 119.44 101.567 119.44 101.797 119.208C102.028 118.977 102.028 118.977 102.259 118.745C102.49 118.513 102.49 118.513 102.72 118.282C102.951 118.05 102.951 118.05 103.182 117.818C103.412 117.587 103.412 117.587 103.412 117.355C103.643 117.124 103.643 116.892 103.643 116.892C103.643 116.66 103.874 116.429 103.874 116.429C103.874 116.197 104.105 115.965 104.105 115.734C104.105 115.502 104.335 115.27 104.335 115.27C104.335 115.039 104.566 114.807 104.566 114.575C104.566 114.344 104.797 114.112 104.797 113.881C104.797 113.649 105.027 113.417 105.027 113.186C105.027 112.954 105.028 112.722 105.258 112.491C105.258 112.259 105.258 112.027 105.258 111.796C105.258 111.564 105.258 111.333 105.258 111.101C105.258 110.869 105.258 110.869 105.258 110.638C122.101 105.542 135.253 92.1066 139.867 75.197C140.098 75.197 140.329 75.197 140.559 75.197C147.943 75.197 153.711 69.1743 153.711 61.9936C153.711 54.8128 147.712 48.7902 140.559 48.7902C140.329 48.7902 140.098 48.7902 139.867 48.7902C135.253 31.6489 122.332 18.2139 105.258 13.3495C105.028 6.1687 99.2593 0.609375 92.1068 0.609375C85.185 0.609375 79.4169 5.93706 78.9555 12.6546C61.1896 17.0557 46.8846 30.954 42.0393 48.7902C41.8086 48.7902 41.5778 48.7902 41.3471 48.7902C33.9639 48.7902 28.1958 54.8128 28.1958 61.9936C28.1958 69.1743 34.1946 75.197 41.3471 75.197C41.5778 75.197 41.8086 75.197 42.0393 75.197C46.8846 93.0331 60.9589 106.931 78.9555 111.333C78.9555 112.027 79.1862 112.954 79.4169 113.649V113.881C79.6476 114.575 79.8784 115.27 80.1091 115.965C80.1091 115.965 80.1091 116.197 80.3399 116.197C80.5706 116.892 81.032 117.355 81.4935 118.05L81.7242 118.282C82.1856 118.745 82.6471 119.44 83.1085 119.903L83.3393 120.135L83.57 120.366H22.4276C21.5047 120.366 20.8125 121.061 20.8125 121.988C20.8125 122.914 21.5047 123.609 22.4276 123.609H150.48C151.403 123.609 152.096 122.914 152.096 121.988C152.096 121.061 151.403 120.366 150.48 120.366H100.644L100.874 120.135C101.105 119.903 101.336 119.672 101.336 119.672ZM140.559 72.1856C140.098 72.1856 139.636 72.1856 138.944 71.954C138.483 71.954 137.791 71.7224 137.329 71.4907H137.098C136.637 71.2591 136.175 71.0275 135.945 71.0275C135.945 71.0275 135.714 71.0275 135.714 70.7958C135.945 69.1743 136.637 67.7845 138.021 67.0896L139.175 66.3947L138.252 65.6998C137.098 64.7732 136.637 63.615 136.637 62.4568C136.637 60.1404 138.483 58.2873 140.79 58.2873C143.097 58.2873 144.943 60.1404 144.943 62.4568C144.943 63.8467 144.251 65.0049 143.328 65.6998L142.405 66.3947L143.559 67.0896C144.943 68.0162 145.635 69.406 145.866 70.7958C144.02 71.4907 142.405 72.1856 140.559 72.1856ZM137.329 52.2647C137.791 52.0331 138.483 52.0331 138.944 51.8015C139.406 51.8015 139.867 51.5698 140.559 51.5698C146.097 51.5698 150.711 56.2026 150.711 61.7619C150.711 64.7732 149.327 67.5529 147.02 69.406C146.789 68.0162 146.097 66.858 144.943 65.9314C145.866 64.7732 146.558 63.3834 146.558 61.9936C146.558 58.7506 143.789 55.971 140.559 55.971C137.329 55.971 134.56 58.7506 134.56 61.9936C134.56 63.3834 135.022 64.7732 136.176 65.9314C135.022 66.858 134.33 68.0162 134.099 69.406L133.868 69.1744C133.638 68.9427 133.407 68.7111 133.176 68.4794C132.945 68.2478 132.715 68.0162 132.484 67.5529C132.253 67.3212 132.253 67.0896 132.022 66.858C131.792 66.6263 131.561 66.1631 131.561 65.6998C131.561 65.4681 131.33 65.2365 131.33 65.0049C131.1 64.5416 131.099 64.0783 130.869 63.615C130.869 63.3834 130.638 63.1518 130.638 63.1518C130.407 62.4568 130.407 61.7619 130.407 61.2986C130.407 60.6037 130.407 59.9088 130.638 59.4455C130.638 59.2139 130.638 58.9823 130.869 58.9823C130.869 58.519 131.1 58.0557 131.33 57.5924C131.33 57.3608 131.561 57.1292 131.561 56.8975C131.792 56.4342 132.022 56.2026 132.253 55.7393C132.484 55.5077 132.484 55.276 132.715 55.0444C132.945 54.8128 133.176 54.5811 133.407 54.1179C133.638 53.8862 133.868 53.6546 134.099 53.4229C134.33 53.1913 134.56 52.9597 134.791 52.9597C135.022 52.728 135.253 52.4964 135.714 52.2647C135.945 52.2647 136.176 52.0331 136.176 52.0331C136.406 52.728 136.637 52.4964 137.329 52.2647ZM81.9549 13.5811C81.9549 8.0218 86.5694 3.38904 92.1068 3.38904C97.6442 3.38904 102.028 7.79017 102.259 13.3495V14.0444C102.259 16.1292 101.567 17.9823 100.413 19.3721C100.182 19.8354 99.7208 20.2986 99.2593 20.7619L99.0286 20.9936C99.0286 20.9936 99.0287 20.9936 98.7979 21.2252C98.5672 19.8354 97.875 18.6772 96.7213 17.7506C97.6442 16.5924 98.3364 15.2026 98.3364 13.8128C98.3364 10.5698 95.5677 7.79017 92.3376 7.79017C89.1074 7.79017 86.3387 10.5698 86.3387 13.8128C86.3387 15.2026 86.8001 16.5924 87.9538 17.7506C86.8001 18.6772 86.108 19.8354 85.8773 21.2252C83.8007 19.3721 82.4164 16.8241 82.1856 13.8128C81.9549 13.8128 81.9549 13.8128 81.9549 13.5811ZM89.5689 17.2873C88.4153 16.3608 87.9538 15.2026 87.9538 14.0444C87.9538 11.728 89.7996 9.87491 92.1068 9.87491C94.4141 9.87491 96.2599 11.728 96.2599 14.0444C96.2599 15.4342 95.5677 16.5924 94.6448 17.2873L93.7219 17.9823L94.8756 18.6772C96.2599 19.6037 96.9521 20.9936 97.1828 22.3834C96.7214 22.615 96.4906 22.8467 96.0292 22.8467C95.7985 23.0783 95.337 23.0783 95.1063 23.0783C94.8756 23.0783 94.6449 23.3099 94.1834 23.3099C93.4912 23.5416 92.799 23.5416 92.1068 23.5416C90.261 23.5416 88.646 23.0783 87.2616 22.1517C87.4924 20.5303 88.1845 19.1404 89.5689 18.4455L90.7225 17.7506L89.5689 17.2873ZM31.1952 61.9936C31.1952 56.4342 35.8097 51.8015 41.3471 51.8015C41.8086 51.8015 42.5008 51.8015 42.9622 52.0331C43.4237 52.0331 44.1159 52.2647 44.5773 52.4964H44.808C45.2694 52.728 45.7309 52.9597 45.9616 52.9597C46.1923 52.9597 46.1924 53.1913 46.4231 53.1913C46.6538 53.4229 47.1153 53.6546 47.346 53.8862C47.5767 54.1179 47.8075 54.3495 48.0382 54.3495C48.2689 54.5811 48.4996 54.8128 48.7304 55.0444C48.9611 55.276 49.1918 55.5077 49.4225 55.971C49.6532 56.2026 49.6533 56.4342 49.884 56.6659C50.1147 56.8975 50.3455 57.3608 50.3455 57.8241C50.3455 58.0557 50.5761 58.2873 50.5761 58.519C50.8069 58.9823 50.8069 59.4455 51.0376 59.9088C51.0376 60.1405 51.2684 60.3721 51.2684 60.3721C51.4991 61.067 51.4991 61.7619 51.4991 62.2252C51.4991 62.9201 51.4991 63.615 51.2684 64.0783C51.2684 64.3099 51.2683 64.5416 51.0376 64.5416C51.0376 65.0049 50.8069 65.4681 50.5761 65.6998C50.5761 65.9314 50.3455 66.163 50.3455 66.3947C50.1147 66.858 49.884 67.0896 49.884 67.5529C49.6533 67.7845 49.6532 68.0162 49.4225 68.2478C49.1918 68.4794 48.9611 68.7111 48.7304 69.1744C48.4996 69.406 48.2689 69.6376 48.0382 69.8693L47.8075 70.1009C47.5767 68.7111 46.6539 67.5529 45.731 66.6263C46.6539 65.4681 47.346 64.0783 47.346 62.6885C47.346 59.4455 44.5773 56.6659 41.3471 56.6659C38.1169 56.6659 35.3483 59.4455 35.3483 62.6885C35.3483 64.0783 35.8097 65.4681 36.9633 66.6263C35.8097 67.5529 35.1175 68.7111 34.8868 70.1009C32.5795 67.7845 31.1952 65.0049 31.1952 61.9936ZM44.808 71.4907C44.3465 71.7224 43.6544 71.7224 43.193 71.954C42.7315 71.954 42.27 72.1856 41.5778 72.1856C39.732 72.1856 38.1169 71.7224 36.7326 70.7958C36.9633 69.1743 37.6555 67.7845 39.0398 67.0896L40.1935 66.3947L39.2706 65.6998C38.117 64.7732 37.6555 63.615 37.6555 62.4568C37.6555 60.1404 39.5013 58.2873 41.8086 58.2873C44.1158 58.2873 45.9616 60.1404 45.9616 62.4568C45.9616 63.8467 45.2695 65.0049 44.3466 65.6998L43.4237 66.3947L44.5773 67.0896C45.9617 68.0162 46.6539 69.406 46.8846 70.7958H46.6538C45.7309 71.0275 45.2694 71.2591 44.808 71.4907ZM79.1862 108.09C62.8047 103.92 49.884 90.9484 45.2695 74.7337C46.6538 74.2704 48.0382 73.5755 49.1918 72.8806C49.6533 72.4173 50.1147 72.1856 50.5761 71.7224L50.8069 71.4907C51.2683 71.0275 51.4991 70.5642 51.9605 70.1009C52.1912 69.8693 52.1912 69.8693 52.1912 69.6376C52.422 69.1743 52.8834 68.7111 53.1141 68.2478C53.1141 68.0162 53.3449 68.0162 53.3449 67.7845C53.5756 67.3212 53.8063 66.858 54.037 66.3947C54.037 66.163 54.037 66.163 54.2678 65.9314C54.4985 65.4681 54.4985 64.7732 54.7293 64.0783C54.7293 63.8467 54.7293 63.8467 54.7293 63.615C54.7293 62.9201 54.96 62.2252 54.96 61.7619C54.96 61.2986 54.96 60.3721 54.7293 59.9088C54.7293 59.6772 54.7293 59.6772 54.7293 59.4455C54.7293 58.7506 54.4985 58.2873 54.2678 57.5924C54.2678 57.3608 54.2678 57.3608 54.037 57.1292C53.8063 56.6659 53.5756 56.2026 53.3449 55.7393C53.3449 55.5077 53.1141 55.5077 53.1141 55.276C52.8834 54.8128 52.6527 54.3495 52.1912 53.8862C52.1912 53.6546 51.9605 53.6546 51.9605 53.4229C51.4991 52.9597 51.2683 52.4964 50.8069 52.0331L50.5761 51.8015C50.1147 51.3382 49.6533 50.8749 49.1918 50.6433C48.0382 49.7167 46.6538 49.2534 45.2695 48.7902C49.884 32.3438 62.8047 19.6037 79.1862 15.2026C79.1862 15.2026 79.1862 15.2026 79.1862 15.4342C79.4169 16.1292 79.4169 16.8241 79.6476 17.519V17.7506C79.8784 18.4455 80.1091 19.1404 80.5705 19.8354C81.2627 21.2252 82.1856 22.3834 83.3393 23.3099C83.3393 23.3099 83.3393 23.3099 83.57 23.3099C84.0315 23.7732 84.7236 24.2365 85.185 24.4681C85.185 24.4681 85.4158 24.4681 85.4158 24.6998C86.108 25.163 86.5695 25.3947 87.2616 25.6263H87.4923C88.1845 25.858 88.8767 26.0896 89.5689 26.3212H89.7996C90.4917 26.5529 91.1839 26.5529 92.1068 26.5529C92.799 26.5529 93.4912 26.5529 94.1834 26.3212H94.4141C95.1063 26.0896 95.7985 26.0896 96.2599 25.858H96.4907C97.1828 25.6263 97.6443 25.3947 98.3364 24.9314C98.3364 24.9314 98.3365 24.9314 98.5672 24.9314C101.797 23.0783 104.105 19.8354 104.797 16.1292C120.255 20.9936 132.253 33.2704 136.406 49.0218C135.022 49.4851 133.638 50.18 132.484 50.8749C132.022 51.3382 131.561 51.5698 131.1 52.0331L130.869 52.2647C130.407 52.728 130.177 53.1913 129.715 53.6546C129.484 53.8862 129.484 53.8862 129.484 54.1179C129.254 54.5811 128.792 55.0444 128.562 55.5077C128.562 55.7393 128.331 55.7393 128.331 55.971C128.1 56.4342 127.869 56.8975 127.639 57.3608C127.639 57.5924 127.639 57.5924 127.408 57.8241C127.177 58.2873 127.177 58.9823 126.946 59.6772C126.946 59.9088 126.946 59.9088 126.946 60.1404C126.946 60.8354 126.716 61.5303 126.716 61.9936C126.716 62.4568 126.716 63.3834 126.946 63.8467C126.946 64.0783 126.946 64.0783 126.946 64.3099C126.946 65.0049 127.177 65.4681 127.408 66.163C127.408 66.3947 127.408 66.3947 127.639 66.6263C127.869 67.0896 128.1 67.5529 128.331 68.0162C128.331 68.2478 128.562 68.2478 128.562 68.4794C128.792 68.9427 129.023 69.406 129.484 69.8693C129.484 70.1009 129.715 70.1009 129.715 70.3325C130.177 70.7958 130.407 71.2591 130.869 71.7224L131.1 71.954C131.561 72.4173 132.022 72.8806 132.484 73.1122C133.638 74.0388 135.022 74.502 136.406 74.9653C132.022 90.7167 120.025 102.994 104.797 107.858C103.643 101.835 98.3365 97.2026 91.8762 97.2026C85.6465 96.7393 80.1091 101.604 79.1862 108.09ZM92.1068 120.366C90.261 120.366 88.646 119.903 87.2616 118.977C87.4924 117.355 88.1845 115.965 89.5689 115.27L90.7225 114.575L89.7996 113.881C88.6459 112.954 88.1845 111.796 88.1845 110.638C88.1845 108.321 90.0303 106.468 92.3376 106.468C94.6448 106.468 96.4907 108.321 96.4907 110.638C96.4907 112.027 95.7985 113.186 94.8756 113.881L93.9527 114.575L95.1063 115.27C96.4907 116.197 97.1828 117.587 97.4136 118.977C95.5678 119.672 93.9526 120.366 92.1068 120.366ZM98.7979 117.818C98.5672 116.429 97.875 115.27 96.7213 114.344C97.6442 113.186 98.3364 111.796 98.3364 110.406C98.3364 107.163 95.5677 104.383 92.3376 104.383C89.1074 104.383 86.3387 107.163 86.3387 110.406C86.3387 111.796 86.8001 113.186 87.9538 114.344C86.8001 115.27 86.108 116.429 85.8773 117.818C83.57 115.965 82.1856 113.186 82.1856 110.174C82.1856 104.615 86.8001 99.9823 92.3376 99.9823C97.6443 99.9823 102.028 104.152 102.489 109.479C102.489 109.711 102.489 109.711 102.489 109.943C102.259 113.186 100.874 115.965 98.7979 117.818Z" fill="#457D96"/>
</svg>
