<svg width="182" height="122" viewBox="0 0 182 122" fill="none" xmlns="http://www.w3.org/2000/svg">
<path d="M79.6945 94.5093C81.4785 94.5093 82.9247 93.0574 82.9247 91.2664C82.9247 89.4753 81.4785 88.0234 79.6945 88.0234C77.9105 88.0234 76.4644 89.4753 76.4644 91.2664C76.4644 93.0574 77.9105 94.5093 79.6945 94.5093Z" fill="#00C1C9"/>
<path d="M48.3158 11.1193C49.9724 11.1193 51.3152 9.77107 51.3152 8.10798C51.3152 6.44488 49.9724 5.09668 48.3158 5.09668C46.6593 5.09668 45.3164 6.44488 45.3164 8.10798C45.3164 9.77107 46.6593 11.1193 48.3158 11.1193Z" fill="#00C1C9"/>
<path d="M157.91 16.9105H155.603V14.5941C155.603 13.6676 154.911 12.9727 153.988 12.9727C153.065 12.9727 152.373 13.6676 152.373 14.5941V16.9105H150.066C149.143 16.9105 148.451 17.6054 148.451 18.532C148.451 19.4585 149.143 20.1534 150.066 20.1534H152.373V22.4698C152.373 23.3964 153.065 24.0913 153.988 24.0913C154.911 24.0913 155.603 23.3964 155.603 22.4698V20.1534H157.91C158.833 20.1534 159.526 19.4585 159.526 18.532C159.526 17.6054 158.833 16.9105 157.91 16.9105Z" fill="#00C1C9"/>
<path d="M56.1601 5.09668C54.545 5.09668 53.1606 6.48651 53.1606 8.10798C53.1606 9.72945 54.545 11.1193 56.1601 11.1193C57.7751 11.1193 59.1595 9.72945 59.1595 8.10798C59.1595 6.48651 57.7751 5.09668 56.1601 5.09668Z" fill="#457D96"/>
<path d="M64.2357 5.09668C62.6207 5.09668 61.2363 6.48651 61.2363 8.10798C61.2363 9.72945 62.6207 11.1193 64.2357 11.1193C65.8508 11.1193 67.2352 9.72945 67.2352 8.10798C67.0045 6.48651 65.8508 5.09668 64.2357 5.09668Z" fill="#457D96"/>
<path d="M11.8609 118.367H2.1703C1.24739 118.367 0.555176 119.062 0.555176 119.989C0.555176 120.915 1.24739 121.61 2.1703 121.61H11.8609C12.7838 121.61 13.476 120.915 13.476 119.989C13.476 119.062 12.7838 118.367 11.8609 118.367Z" fill="#457D96"/>
<path d="M179.83 118.367H150.297C156.526 114.661 160.679 107.944 160.679 100.299C160.679 88.7175 151.22 79.2203 139.683 79.2203C139.222 79.2203 138.991 79.2203 138.53 79.2203V21.774C138.53 16.4463 134.377 12.2768 129.07 12.2768H121.917V7.87571C121.917 3.47458 118.457 0 114.073 0H46.2393C41.8555 0 38.3946 3.47458 38.3946 7.87571V12.2768H31.2421C25.9354 12.2768 21.7823 16.4463 21.7823 21.774V90.1073C21.7823 95.435 25.9354 99.6045 31.2421 99.6045H67.2354C67.4661 101.921 67.6968 106.785 64.2359 110.492H62.1594C57.7756 110.492 54.3147 113.966 54.084 118.136H22.0131C21.0902 118.136 20.3979 118.831 20.3979 119.757C20.3979 120.684 21.0902 121.379 22.0131 121.379H111.535C112.458 121.379 113.15 120.684 113.15 119.757C113.15 118.831 112.458 118.136 111.535 118.136H105.767C105.536 113.966 101.844 110.492 97.6912 110.492H96.0762C92.6153 106.785 92.846 101.689 93.0767 99.6045H118.687C118.687 99.8362 118.687 99.8362 118.687 100.068C118.687 107.712 122.84 114.429 129.07 118.136H123.763C122.84 118.136 122.148 118.831 122.148 119.757C122.148 120.684 122.84 121.379 123.763 121.379H179.83C180.753 121.379 181.445 120.684 181.445 119.757C181.445 118.831 180.522 118.367 179.83 118.367ZM121.687 15.5198H128.839C132.3 15.5198 135.069 18.2994 135.069 21.774V79.452C132.531 79.9153 129.993 81.0734 127.686 82.4633V23.3955C127.686 22.4689 126.993 21.774 126.071 21.774H121.456V15.5198H121.687ZM121.687 24.7853H124.917V83.1582H121.687V24.7853ZM41.1633 7.87571C41.1633 5.32768 43.2398 3.0113 46.0086 3.0113H113.842C116.38 3.0113 118.687 5.09605 118.687 7.87571V12.2768H41.1633V7.87571ZM41.1633 15.5198H118.687V83.3898H41.1633V15.5198ZM24.3203 21.774C24.3203 18.2994 27.089 15.5198 30.5499 15.5198H37.7024V22.0057H32.165C31.2421 22.0057 30.5499 22.7006 30.5499 23.6271V83.8531C27.5504 83.8531 25.2432 83.8531 23.8588 83.6215V21.774H24.3203ZM37.9331 24.7853V83.1582H34.0108V24.7853H37.9331ZM97.4605 113.734C99.9985 113.734 102.306 115.819 102.536 118.367H57.0834C57.3141 115.819 59.6214 113.734 62.1594 113.734H97.4605ZM69.7733 99.6045H89.8465C89.6158 102.153 89.6158 106.554 92.1538 110.492H67.6968C70.0041 106.554 70.0041 102.153 69.7733 99.6045ZM30.7806 96.5932C27.3197 96.5932 24.5511 93.8136 24.5511 90.339V86.4011C28.012 86.6328 36.318 86.8644 57.0834 86.8644C73.6957 86.8644 88.0007 86.8644 123.763 86.4011C121.225 89.1808 119.61 92.6554 118.918 96.5932H30.7806ZM121.456 100.299C121.456 90.339 129.531 82.2316 139.453 82.2316C149.374 82.2316 157.449 90.339 157.449 100.299C157.449 110.26 149.374 118.367 139.453 118.367C129.531 118.136 121.456 110.028 121.456 100.299Z" fill="#457D96"/>
<path d="M14.6296 5.09617L12.5531 6.02273L11.6302 3.93798C11.3994 3.24307 10.4765 2.77979 9.55364 3.01143C8.86146 3.24307 8.39996 4.16962 8.63068 5.09617L9.55364 7.18092L7.47705 8.10747C6.78487 8.33911 6.32343 9.26566 6.55416 10.1922C6.78489 10.8871 7.47708 11.1188 7.93853 11.1188C8.16926 11.1188 8.39996 11.1188 8.63068 10.8871L10.7073 9.96058L11.6302 12.0453C11.8609 12.7402 12.5531 12.9719 13.0145 12.9719C13.2453 12.9719 13.476 12.9719 13.7067 12.7402C14.3989 12.5086 14.8603 11.582 14.6296 10.6555L13.7067 8.57075L15.7832 7.6442C16.4754 7.41256 16.9368 6.486 16.7061 5.55945C16.4754 5.09617 15.5525 4.86454 14.6296 5.09617Z" fill="#457D96"/>
<path d="M147.758 92.8878L136.453 104.238L131.377 99.142C130.684 98.4471 129.762 98.4471 129.3 99.142C128.839 99.837 128.608 100.764 129.3 101.227L135.53 107.481C135.76 107.713 136.222 107.944 136.683 107.944C137.145 107.944 137.376 107.713 137.837 107.481L150.296 94.9725C150.988 94.2776 150.988 93.3511 150.296 92.8878C149.604 92.4245 148.22 92.1929 147.758 92.8878Z" fill="#457D96"/>
<path d="M108.766 59.5308L107.381 58.8359C106.228 58.1409 105.536 56.7511 106.228 55.3613L106.92 53.9714C107.843 51.8867 105.997 49.802 103.92 50.4969L102.536 50.9601C101.152 51.4234 99.7674 50.7285 99.306 49.3387L98.8445 47.9488C98.1523 45.8641 95.1529 45.6325 94.23 47.7172L93.5378 49.107C92.8456 50.2652 91.4613 50.9601 90.0769 50.2652L88.6926 49.5703C86.616 48.6438 84.5395 50.4969 85.2317 52.5816V53.9714C85.6931 55.3613 85.0009 56.7511 83.6166 57.2144L82.2323 57.6777C80.1557 58.3726 79.925 61.3839 82.0015 62.3104L83.3859 63.0053C84.5395 63.7003 85.2317 65.0901 84.5395 66.4799L83.8473 67.8697C82.9244 69.9545 84.7702 72.0392 86.8468 71.3443L88.2311 70.881C89.6154 70.4178 90.9998 71.1127 91.4613 72.5025L91.9227 73.8923C92.6149 75.9771 95.6143 76.2087 96.5372 74.124L97.2295 72.7342C97.9216 71.576 99.306 70.8811 100.69 71.576L102.075 72.2709C104.151 73.1974 106.228 71.3443 105.536 69.2596L105.074 67.8697C104.613 66.4799 105.305 65.0901 106.689 64.6268L108.074 64.1635C110.381 63.4686 110.612 60.689 108.766 59.5308ZM95.3836 67.8697C91.692 67.8697 88.6926 64.8585 88.6926 61.1522C88.6926 57.446 91.692 54.4347 95.3836 54.4347C99.0752 54.4347 102.075 57.446 102.075 61.1522C102.075 64.8585 99.0752 67.8697 95.3836 67.8697Z" fill="#457D96"/>
<path d="M82.6939 52.1191L82.2325 50.266C82.0017 49.3394 82.4632 48.4129 83.1554 48.1812L85.0011 47.4863C86.8469 46.7914 88.0006 45.1699 88.2313 43.3168C88.462 41.4637 87.3084 39.6106 85.6934 38.684L84.0782 37.7575C83.3861 37.2942 82.9246 36.3677 83.3861 35.6727L84.309 34.0513C85.2319 32.4298 84.7704 30.3451 83.6168 28.9552C82.4631 27.5654 80.3866 26.8705 78.5408 27.5654L76.695 28.0287C75.7721 28.2603 74.8492 27.797 74.6185 27.1021L73.9263 25.249C73.2341 23.3959 71.619 22.2377 69.7732 22.0061C67.9274 21.7744 66.0816 22.9326 65.1587 24.5541L64.2358 26.1756C63.7744 26.8705 62.8515 27.3338 62.1593 26.8705L60.5442 26.1756C58.9291 25.249 56.8526 25.7123 55.4683 26.8705C54.0839 28.0287 53.3917 30.1134 54.0839 31.9665L54.5454 33.8196C54.7761 34.7462 54.3146 35.6727 53.6224 35.9044L51.7766 36.5993C49.9308 37.2942 48.7772 38.9157 48.5465 40.7688C48.3158 42.6219 49.4694 44.475 51.0845 45.4016L52.6995 46.3281C53.3917 46.7914 53.8532 47.7179 53.3917 48.4129L52.6995 50.0343C51.7766 51.6558 52.2381 53.7405 53.3917 55.1304C54.5454 56.5202 56.6219 57.2151 58.4677 56.5202L60.3135 56.0569C61.2364 55.8253 62.1593 56.2886 62.39 56.9835L63.0822 58.8366C63.7744 60.6897 65.3895 61.8479 67.2353 62.0795H67.466C69.3118 62.0795 70.9269 61.153 71.6191 59.5315L72.542 57.91C73.0034 57.2151 73.9263 56.7518 74.6185 57.2151L76.2336 57.91C78.0794 58.8366 79.9252 58.3733 81.3095 57.2151C82.6939 56.0569 83.3861 53.9722 82.6939 52.1191ZM79.233 51.1925L79.6945 53.0456C79.9252 53.9722 79.4637 54.6671 79.233 54.8987C79.0023 55.1304 78.3101 55.5936 77.3872 55.1304L75.7721 54.4355C73.4648 53.2773 70.6962 54.2038 69.5425 56.5202L68.6196 58.1417C68.1581 59.0682 67.2353 59.0682 67.0046 59.0682C66.7738 59.0682 65.8509 58.8366 65.6202 57.91L64.928 56.0569C64.2359 54.2038 62.39 52.814 60.5442 52.814C60.0827 52.814 59.6213 52.814 59.1599 53.0456L57.314 53.5089C56.3911 53.7405 55.699 53.2773 55.4683 53.0456C55.2375 52.814 54.7761 52.1191 55.2375 51.1925L55.9297 49.5711C57.0833 47.2547 56.1604 44.475 53.8532 43.3168L52.2381 42.3903C51.3152 41.927 51.3152 41.0004 51.3152 40.7688C51.3152 40.5371 51.5459 39.6106 52.4688 39.379L54.3146 38.684C56.6219 37.7575 58.0062 35.2095 57.314 32.6614L56.8526 30.8083C56.6219 29.8818 57.0833 29.1869 57.314 28.9552C57.5448 28.7236 58.237 28.2603 59.1599 28.7236L60.7749 29.4185C63.0822 30.5767 65.8509 29.6501 67.0046 27.3338L67.9274 25.7123C68.3889 24.7857 69.3118 24.7857 69.5425 24.7857C69.7733 24.7857 70.6961 25.0174 70.9268 25.9439L71.6191 27.797C72.542 30.1134 75.08 31.5033 77.618 30.8083L79.4637 30.3451C80.3866 30.1134 81.0788 30.5767 81.3095 30.8083C81.5402 31.04 82.0017 31.7349 81.5402 32.6614L80.6174 34.2829C79.4637 36.5993 80.3866 39.379 82.6939 40.5372L84.309 41.4637C85.2319 41.927 85.2319 42.8535 85.2319 43.0852C85.2319 43.3168 85.0011 44.2434 84.0782 44.475L82.2325 45.1699C79.6945 46.0965 78.5408 48.8761 79.233 51.1925Z" fill="#457D96"/>
<path d="M68.1583 32.1982C62.8516 32.1982 58.4678 36.5994 58.4678 41.9271C58.4678 47.2547 62.8516 51.6559 68.1583 51.6559C73.465 51.6559 77.8487 47.2547 77.8487 41.9271C78.0794 36.5994 73.6957 32.1982 68.1583 32.1982ZM68.1583 48.8762C64.4667 48.8762 61.4672 45.8649 61.4672 42.1587C61.4672 38.4525 64.4667 35.4412 68.1583 35.4412C71.8499 35.4412 74.8493 38.4525 74.8493 42.1587C74.8493 45.8649 71.8499 48.8762 68.1583 48.8762Z" fill="#457D96"/>
<path d="M88.6927 38.6834L89.6156 38.9151C90.5385 39.1467 91 40.0733 91 40.9998L90.7692 41.9264C90.5385 43.3162 92.1536 44.4744 93.3072 43.7795L94.2301 43.3162C94.9223 42.8529 96.0759 43.0846 96.5374 43.7795L96.9989 44.706C97.9218 45.8642 99.7675 45.6326 99.9983 44.2428L100.229 43.3162C100.46 42.3897 101.383 41.9264 102.306 41.9264L103.228 42.158C104.613 42.3897 105.766 40.7682 105.074 39.61L104.613 38.6834C104.151 37.9885 104.382 36.8303 105.074 36.3671L105.997 35.4405C107.151 34.5139 106.92 32.6608 105.536 32.4292L104.613 32.1976C103.69 31.9659 103.228 31.0394 103.228 30.1128L103.459 29.1863C103.69 27.7964 102.075 26.6382 100.921 27.3332L99.9983 27.7964C99.3061 28.2597 98.1525 28.0281 97.691 27.3332L97.2296 26.4066C96.3067 25.2484 94.4609 25.4801 94.2301 26.8699L93.9994 27.7964C93.7687 28.723 92.8458 29.1863 91.9229 29.1863L91 28.9546C89.6156 28.723 88.462 30.3445 89.1542 31.5027L89.6156 32.4292C90.0771 33.1241 89.8464 34.2823 89.1542 34.7456L88.2312 35.2089C86.8469 36.3671 87.0776 38.2202 88.6927 38.6834ZM96.076 31.0394C98.3832 30.3445 100.921 31.9659 101.383 34.2823C102.075 36.5987 100.46 39.1467 98.1525 39.61C95.8452 40.3049 93.3072 38.6834 92.8458 36.3671C92.3843 34.0507 93.538 31.7343 96.076 31.0394Z" fill="#457D96"/>
</svg>
