<svg width="158" height="105" viewBox="0 0 158 105" fill="none" xmlns="http://www.w3.org/2000/svg">
<path d="M136.318 93.3568C137.871 93.3568 139.129 92.0984 139.129 90.5461C139.129 88.9938 137.871 87.7354 136.318 87.7354C134.766 87.7354 133.508 88.9938 133.508 90.5461C133.508 92.0984 134.766 93.3568 136.318 93.3568Z" fill="#00C1C9"/>
<path d="M69.0622 81.512C70.6145 81.512 71.8728 80.2536 71.8728 78.7013C71.8728 77.149 70.6145 75.8906 69.0622 75.8906C67.5099 75.8906 66.2514 77.149 66.2514 78.7013C66.2514 80.2536 67.5099 81.512 69.0622 81.512Z" fill="#00C1C9"/>
<path d="M41.7583 9.63981C43.1997 9.63981 44.3682 8.4713 44.3682 7.02986C44.3682 5.58843 43.1997 4.41992 41.7583 4.41992C40.3168 4.41992 39.1483 5.58843 39.1483 7.02986C39.1483 8.4713 40.3168 9.63981 41.7583 9.63981Z" fill="#00C1C9"/>
<path d="M137.121 14.6562H135.114V12.6485C135.114 11.8455 134.512 11.2432 133.708 11.2432C132.905 11.2432 132.504 12.0462 132.504 12.8493V14.8569H130.496C129.693 14.8569 129.091 15.4592 129.091 16.2623C129.091 17.0653 129.693 17.6676 130.496 17.6676H132.504V19.6753C132.504 20.4783 133.106 21.0806 133.909 21.0806C134.712 21.0806 135.315 20.4783 135.315 19.6753V17.6676H137.322C138.125 17.6676 138.728 17.0653 138.728 16.2623C138.728 15.4592 137.925 14.6562 137.121 14.6562Z" fill="#00C1C9"/>
<path d="M94.3584 51.1952L93.1539 50.5929C92.1501 49.9906 91.5478 48.786 92.1501 47.5815L92.7523 46.3769C93.5554 44.57 91.9493 42.7631 90.1424 43.3654L88.9378 43.7669C87.7332 44.1685 86.5287 43.5662 86.1271 42.3616L85.7256 41.157C85.1233 39.3501 82.5133 39.1493 81.7103 40.9562L81.108 42.1608C80.5057 43.1646 79.3011 43.7669 78.0965 43.1646L76.8919 42.5623C75.085 41.7593 73.2781 43.3654 73.8804 45.1723L74.282 46.3769C74.6835 47.5815 74.0812 48.786 72.8766 49.1876L71.672 49.5891C69.8652 50.1914 69.6643 52.8013 71.4712 53.6044L72.6759 54.2067C73.6797 54.809 74.282 56.0136 73.6797 57.2182L73.0774 58.4228C72.2744 60.2296 73.8805 62.0365 75.6873 61.4342L76.8919 61.0327C78.0965 60.6312 79.3011 61.2335 79.7026 62.4381L80.1042 63.6426C80.7065 65.4495 83.3164 65.6503 84.1195 63.8434L84.7218 62.6388C85.324 61.635 86.5286 61.0327 87.7332 61.635L88.9378 62.2373C90.7446 63.0404 92.5515 61.4342 91.9492 59.6273L91.5477 58.4228C91.1462 57.2182 91.7485 56.0136 92.9531 55.6121L94.1577 55.2105C95.7638 54.6082 95.9646 52.1991 94.3584 51.1952ZM82.5133 58.222C79.301 58.222 76.6912 55.6121 76.6912 52.3998C76.6912 49.1876 79.301 46.5776 82.5133 46.5776C85.7255 46.5776 88.3355 49.1876 88.3355 52.3998C88.3355 55.6121 85.7255 58.222 82.5133 58.222Z" fill="#457D96"/>
<path d="M59.0241 27.5049C54.4065 27.5049 50.592 31.3194 50.592 35.937C50.592 40.5546 54.4065 44.3691 59.0241 44.3691C63.6417 44.3691 67.4561 40.5546 67.4561 35.937C67.6569 31.3194 63.8425 27.5049 59.0241 27.5049ZM59.0241 41.9599C55.8119 41.9599 53.2019 39.35 53.2019 36.1378C53.2019 32.9255 55.8119 30.3156 59.0241 30.3156C62.2364 30.3156 64.8462 32.9255 64.8462 36.1378C64.8462 39.35 62.2364 41.9599 59.0241 41.9599Z" fill="#457D96"/>
<path d="M71.672 44.7705L71.2705 43.1644C71.0697 42.3613 71.4713 41.5583 72.0736 41.3575L73.6797 40.7552C75.2858 40.1529 76.2896 38.7476 76.4903 37.1415C76.6911 35.5353 75.6873 33.9292 74.282 33.1262L72.8766 32.3231C72.2743 31.9216 71.8728 31.1185 72.2743 30.5162L72.8766 29.1109C73.6796 27.7055 73.2781 25.8986 72.2743 24.694C71.2705 23.4894 69.4636 22.8872 67.8575 23.4894L66.2514 23.891C65.4483 24.0917 64.6452 23.6902 64.4444 23.0879L63.8422 21.4818C63.2399 19.8757 61.8345 18.8719 60.2284 18.6711C58.6223 18.4703 57.0162 19.4741 56.2131 20.8795L55.41 22.2849C55.0085 22.8871 54.2055 23.2887 53.6032 22.8872L52.1978 22.2849C50.7925 21.4818 48.9856 21.8833 47.781 22.8872C46.5764 23.891 45.9741 25.6979 46.5764 27.304L46.978 28.9101C47.1788 29.7132 46.7772 30.5162 46.1749 30.717L44.5688 31.3193C42.9627 31.9216 41.9588 33.3269 41.758 34.933C41.5573 36.5392 42.5612 38.1453 43.9665 38.9483L45.3718 39.7514C45.9741 40.1529 46.3757 40.956 45.9742 41.5583L45.3718 42.9636C44.5687 44.369 44.9703 46.1759 45.9742 47.3805C46.978 48.585 48.7848 49.1873 50.3909 48.585L51.9971 48.1835C52.8002 47.9828 53.6032 48.3843 53.8039 48.9866L54.4062 50.5927C55.0085 52.1988 56.4139 53.2026 58.0201 53.4034H58.2208C59.8269 53.4034 61.2322 52.6003 61.8345 51.195L62.6376 49.7896C63.0392 49.1873 63.8421 48.7858 64.4444 49.1873L65.8498 49.7896C67.2552 50.5927 69.0621 50.1912 70.2667 49.1873C71.672 47.9828 72.2743 46.3766 71.672 44.7705ZM68.6606 43.9675L69.0621 45.5736C69.2629 46.3766 68.8613 46.9789 68.6606 47.1797C68.4598 47.3805 67.8575 47.782 67.0545 47.3805L65.6491 46.7782C63.6415 45.7743 61.2323 46.5774 60.2284 48.585L59.4253 49.9904C59.0238 50.7935 58.2208 50.7935 58.0201 50.7935C57.8193 50.7935 57.0162 50.5927 56.8154 49.7896L56.2131 48.1835C55.6108 46.5774 54.0047 45.3728 52.3986 45.3728C51.997 45.3728 51.5955 45.3728 51.194 45.5736L49.5879 45.9751C48.7849 46.1759 48.1826 45.7743 47.9818 45.5736C47.7811 45.3728 47.3795 44.7705 47.781 43.9675L48.3833 42.5621C49.3871 40.5545 48.5841 38.1453 46.5764 37.1415L45.1711 36.3384C44.368 35.9369 44.368 35.1338 44.368 34.933C44.368 34.7323 44.5687 33.9292 45.3718 33.7284L46.978 33.1262C48.9856 32.3231 50.1902 30.1147 49.5879 27.9063L49.1864 26.3002C48.9856 25.4971 49.3872 24.8948 49.5879 24.694C49.7887 24.4933 50.391 24.0917 51.194 24.4933L52.5994 25.0956C54.607 26.0994 57.0162 25.2963 58.0201 23.2887L58.823 21.8833C59.2246 21.0803 60.0277 21.0803 60.2284 21.0803C60.4292 21.0803 61.2322 21.281 61.433 22.0841L62.0354 23.6902C62.8384 25.6979 65.0468 26.9024 67.2552 26.3002L68.8613 25.8986C69.6644 25.6979 70.2666 26.0994 70.4674 26.3002C70.6681 26.5009 71.0698 27.1032 70.6682 27.9063L70.066 29.3116C69.0621 31.3193 69.8651 33.7284 71.8728 34.7323L73.2781 35.5353C74.0812 35.9369 74.0812 36.7399 74.0812 36.9407C74.0812 37.1415 73.8805 37.9445 73.0774 38.1453L71.4712 38.7476C69.062 39.5506 67.8575 41.759 68.6606 43.9675Z" fill="#457D96"/>
<path d="M76.892 32.9257L77.6951 33.1264C78.4981 33.3272 78.8996 34.1303 78.8996 34.9333L78.6989 35.7364C78.4981 36.941 79.9034 37.9448 80.9073 37.3425L81.7104 36.941C82.3127 36.5394 83.3165 36.7402 83.718 37.3425L84.1196 38.1456C84.9226 39.1494 86.5287 38.9486 86.7295 37.744L86.9302 36.941C87.131 36.1379 87.9341 35.7364 88.7371 35.7364L89.5401 35.9371C90.7447 36.1379 91.7486 34.7326 91.1463 33.7287L90.7448 32.9257C90.3433 32.3234 90.5441 31.3196 91.1463 30.918L91.9493 30.5165C92.9532 29.7134 92.7524 28.1073 91.5478 27.9066L90.7448 27.7058C89.9417 27.505 89.5401 26.702 89.5401 25.8989L89.741 25.0959C89.9417 23.8913 88.5363 22.8874 87.5325 23.4897L86.7295 23.8913C86.1272 24.2928 85.1234 24.092 84.7218 23.4897L84.3203 22.6867C83.5172 21.6828 81.9111 21.8836 81.7104 23.0882L81.5095 23.8913C81.3088 24.6943 80.5058 25.0959 79.7027 25.0959L78.8996 24.8951C77.695 24.6943 76.6912 26.0997 77.2935 27.1035L77.6951 27.9066C78.0966 28.5089 77.8958 29.5127 77.2935 29.9142L76.4904 30.3157C75.2858 30.918 75.4866 32.7249 76.892 32.9257ZM83.3165 26.5012C85.3241 25.8989 87.5325 27.3043 87.934 29.3119C88.5363 31.3196 87.131 33.528 85.1234 33.9295C83.1158 34.5318 80.9072 33.1264 80.5057 31.1188C80.1042 29.1111 81.1081 27.1035 83.3165 26.5012Z" fill="#457D96"/>
<path d="M48.5843 4.41992C47.1789 4.41992 45.9743 5.62451 45.9743 7.02986C45.9743 8.43522 47.1789 9.63981 48.5843 9.63981C49.9896 9.63981 51.1942 8.43522 51.1942 7.02986C51.1942 5.62451 49.9896 4.41992 48.5843 4.41992Z" fill="#457D96"/>
<path d="M55.6109 4.41992C54.2055 4.41992 53.001 5.62451 53.001 7.02986C53.001 8.43522 54.2055 9.63981 55.6109 9.63981C57.0162 9.63981 58.2208 8.43522 58.2208 7.02986C58.2208 5.62451 57.0162 4.41992 55.6109 4.41992Z" fill="#457D96"/>
<path d="M10.0373 101.989H1.6052C0.80214 101.989 0.199821 102.592 0.199821 103.395C0.199821 104.198 0.80214 104.8 1.6052 104.8H10.0373C10.8404 104.8 11.4427 104.198 11.4427 103.395C11.4427 102.592 10.8404 101.989 10.0373 101.989Z" fill="#457D96"/>
<path d="M155.993 101.99H137.724L144.55 97.1711C145.554 96.3681 146.357 95.3643 146.557 94.1597C146.758 92.9551 146.557 91.7505 145.754 90.5459L140.133 82.5153C139.33 81.5115 138.326 80.7084 137.121 80.5077C136.72 80.5077 136.519 80.5077 136.118 80.5077L134.512 78.0985V72.4771C134.512 72.2763 134.512 71.8748 134.311 71.674L127.685 62.2381C126.481 60.4312 123.871 60.0297 122.064 61.2342L121.663 61.435C121.261 61.6358 120.859 62.0373 120.659 62.4388C120.458 62.2381 120.257 62.2381 119.856 62.0373V18.8729C119.856 14.2553 116.242 10.6415 111.624 10.6415H105.401V6.82698C105.401 3.01245 102.389 0.000976562 98.5746 0.000976562H39.5498C35.7352 0.000976562 32.7237 3.01245 32.7237 6.82698V10.6415H26.5001C21.8825 10.6415 18.2686 14.2553 18.2686 18.8729V77.697C18.2686 82.3145 21.8825 85.9283 26.5001 85.9283H57.8193C58.0201 87.936 58.2209 92.152 55.2094 95.3643H53.804C49.9895 95.3643 46.978 98.3757 46.7773 101.99H18.871C18.068 101.99 17.4656 102.592 17.4656 103.395C17.4656 104.198 18.068 104.8 18.871 104.8H96.7678C97.5708 104.8 98.1731 104.198 98.1731 103.395C98.1731 102.592 97.5708 101.99 96.7678 101.99H91.7486C91.5479 98.3757 88.3356 95.3643 84.7219 95.3643H83.3165C80.305 92.152 80.5058 87.7352 80.7066 85.9283H103.594C105.2 86.5306 107.207 86.7314 109.014 86.9321C114.234 87.5344 118.049 88.3375 119.253 92.5536C118.45 93.9589 118.651 95.9666 119.655 97.3719L123.068 102.19H107.408C106.605 102.19 106.003 102.793 106.003 103.596C106.003 104.399 106.605 105.001 107.408 105.001H125.076H134.311H156.395C157.198 105.001 157.8 104.399 157.8 103.596C157.8 102.793 156.796 101.99 155.993 101.99ZM111.825 13.4522C114.837 13.4522 117.246 15.8614 117.246 18.8729V61.8365C116.844 62.0373 116.443 62.2381 116.041 62.4388L115.64 62.6396C115.037 63.0411 114.636 63.6434 114.234 64.2457C114.034 64.2457 113.833 64.0449 113.632 64.0449C112.628 63.8442 111.624 64.045 110.821 64.6472V20.2782C110.821 19.4752 110.219 18.8729 109.416 18.8729H105.401V13.4522H111.825ZM97.9723 64.6472L102.991 71.8748H35.5345V13.653H102.991V58.022C102.791 58.022 102.59 57.8212 102.389 57.8212C101.185 57.6205 100.181 57.8212 99.1769 58.6243C96.9685 60.0296 96.5669 62.6396 97.9723 64.6472ZM30.9169 71.674H29.5115V21.6836H32.9246V71.674H30.9169ZM105.601 21.6836H108.412V64.4465L105.601 60.4312V21.6836ZM35.3336 6.82698C35.3336 4.61857 37.1406 2.61092 39.5498 2.61092H98.5746C100.783 2.61092 102.791 4.4178 102.791 6.82698V10.6415H35.3336V6.82698ZM26.5001 13.4522H32.7237V19.0736H28.1062C27.3031 19.0736 26.7008 19.6759 26.7008 20.479V71.8748H20.8787V18.8729C20.8787 15.8614 23.2878 13.4522 26.5001 13.4522ZM20.8787 77.697V74.284H27.9054H30.7161H104.798L107.007 77.2954C105.401 77.0947 103.393 77.2954 101.988 78.0985C101.185 78.7008 100.381 79.7046 100.381 81.3107C100.381 81.913 100.381 82.5153 100.582 82.9168H26.2992C23.2878 83.3184 20.8787 80.7084 20.8787 77.697ZM88.9379 101.99H49.3872C49.5879 99.7811 51.5956 97.9742 53.804 97.9742H84.521C86.7294 98.175 88.7371 99.7811 88.9379 101.99ZM79.7027 95.3643H58.4216C60.63 91.9513 60.63 87.936 60.4292 85.9283H77.8958C77.4943 88.1367 77.4943 91.9513 79.7027 95.3643ZM109.215 84.3222C104.598 83.7199 103.192 83.3184 103.192 81.7122C103.192 81.11 103.393 80.7084 103.594 80.5077C104.798 79.7046 107.81 80.1061 109.617 80.7084C110.219 80.9092 110.821 80.7084 111.022 80.3069C111.424 79.9054 111.424 79.3031 111.022 78.7008L99.9799 63.0411C99.3776 62.2381 99.5784 61.2342 100.381 60.8327C100.783 60.6319 101.185 60.4312 101.586 60.6319C101.988 60.6319 102.389 61.0335 102.59 61.2342L109.215 70.6702L112.628 75.4885C113.03 76.0908 113.833 76.2916 114.435 75.8901C115.037 75.4885 115.238 74.6855 114.837 74.0832L111.424 69.2648C111.022 68.6625 111.223 67.8595 111.825 67.458L112.227 67.2572C112.427 67.0564 112.829 67.0564 113.23 67.0564C113.632 67.0564 113.833 67.2572 114.033 67.6587L117.246 72.2763C117.647 72.8786 118.45 73.0794 119.053 72.6778C119.655 72.2763 119.856 71.4733 119.454 70.871L116.643 67.0564C116.242 66.4541 116.443 65.6511 117.045 65.2495L117.447 65.0488C117.647 64.848 118.049 64.848 118.45 64.848C118.852 64.848 119.053 65.0488 119.253 65.4503L120.659 67.458L122.466 70.0679C122.867 70.6702 123.67 70.871 124.273 70.4694C124.875 70.0679 125.076 69.2648 124.674 68.6625L122.867 65.8518C122.666 65.6511 122.666 65.2495 122.666 64.848C122.666 64.4465 122.867 64.2457 123.269 64.0449L123.67 63.8442C124.272 63.4426 125.076 63.6434 125.477 64.2457L131.902 73.4809V79.1023C131.902 79.3031 131.902 79.7046 132.102 79.9054L133.708 82.3145L121.261 90.9474C119.053 85.5268 113.431 84.7237 109.215 84.3222ZM126.079 101.99L121.663 95.7658C121.06 94.762 121.261 93.5574 122.064 92.9551L135.114 83.9207C136.118 83.3184 137.322 83.5191 137.925 84.3222L143.546 92.3528C144.148 93.3566 143.947 94.5612 143.144 95.1635L133.106 102.19H126.079V101.99Z" fill="#457D96"/>
<path d="M12.4467 4.42063L10.6398 5.22369L10.0375 3.41681C9.83672 2.81451 9.03361 2.41298 8.23055 2.61375C7.62826 2.81451 7.2268 3.61757 7.42757 4.42063L8.23055 6.22752L6.42374 7.03057C5.82145 7.23134 5.41987 8.0344 5.62063 8.83746C5.8214 9.43975 6.42377 9.64052 6.8253 9.64052C7.02606 9.64052 7.2268 9.64052 7.42757 9.43975L9.23438 8.63669L10.0375 10.4436C10.2382 11.0459 10.8405 11.2466 11.242 11.2466C11.4428 11.2466 11.6437 11.2466 11.8444 11.0459C12.4467 10.8451 12.8482 10.042 12.6474 9.23899L11.8444 7.4321L13.6512 6.62905C14.2535 6.42828 14.6551 5.62522 14.4543 4.82216C14.0528 4.6214 13.2497 4.21987 12.4467 4.42063Z" fill="#457D96"/>
</svg>
