<svg width="15" height="20" viewBox="0 0 15 20" fill="none" xmlns="http://www.w3.org/2000/svg">
<path d="M12.8341 3.42929V1.22653H14.1858V0H0.293457V1.22653H1.64515V3.40426C1.64515 4.85607 2.2459 6.25782 3.27218 7.25907L6.326 10.2128L3.39734 12.9662C2.32099 13.9675 1.72024 15.3942 1.72024 16.8711V18.7735H0.293457V20H14.1858V18.7735H12.8842V16.9212C12.8842 15.4193 12.2334 13.9925 11.132 12.9662L8.12825 10.2128L11.2071 7.25907C12.2334 6.25782 12.8341 4.85607 12.8341 3.42929ZM11.6577 18.7735H2.9718V16.8961C2.9718 15.7697 3.4474 14.6683 4.27343 13.8924L7.25216 11.0889L10.331 13.8924C11.1821 14.6683 11.6827 15.7697 11.6827 16.9212V18.7735H11.6577ZM7.25216 9.38673L4.14828 6.38298C3.34727 5.60701 2.89671 4.53066 2.87168 3.42929V1.22653H11.6076V3.40426C11.6076 4.50563 11.132 5.58198 10.331 6.35795L7.25216 9.38673Z" fill="#457D96"/>
</svg>
