<svg width="168" height="105" viewBox="0 0 168 105" fill="none" xmlns="http://www.w3.org/2000/svg">
<path d="M166.28 105H163.21C162.391 105 161.777 104.386 161.777 103.567C161.777 102.749 162.391 102.135 163.21 102.135H166.28C167.099 102.135 167.713 102.749 167.713 103.567C167.713 104.386 166.894 105 166.28 105Z" fill="#00C1C9"/>
<path d="M159.935 7.57503H158.502V5.93762C158.502 5.11891 157.888 4.50488 157.07 4.50488C156.251 4.50488 155.637 5.11891 155.637 5.93762V7.37036H154.204C153.386 7.37036 152.771 7.98439 152.771 8.8031C152.771 9.6218 153.386 10.2358 154.204 10.2358H155.637V11.6686C155.637 12.4873 156.251 13.1013 157.07 13.1013C157.888 13.1013 158.502 12.4873 158.502 11.6686V10.2358H159.935C160.754 10.2358 161.368 9.6218 161.368 8.8031C161.368 7.98439 160.754 7.57503 159.935 7.57503Z" fill="#00C1C9"/>
<path d="M120.023 92.9238C118.181 92.9238 116.748 94.3566 116.748 96.1987C116.748 98.0407 118.181 99.4735 120.023 99.4735C121.865 99.4735 123.298 98.0407 123.298 96.1987C123.093 94.3566 121.66 92.9238 120.023 92.9238Z" fill="#457D96"/>
<path d="M47.7726 92.9238C45.9305 92.9238 44.4978 94.3566 44.4978 96.1987C44.4978 98.0407 45.9305 99.4735 47.7726 99.4735C49.6147 99.4735 51.0474 98.0407 51.0474 96.1987C50.8428 94.3566 49.41 92.9238 47.7726 92.9238Z" fill="#457D96"/>
<path d="M154.614 102.134H151.134V88.8297C151.134 82.4847 146.017 77.3678 139.672 77.3678H134.76C133.941 75.9351 131.69 74.2977 128.21 72.4556C129.643 71.4322 130.871 70.4088 131.895 68.9761H135.169C139.263 68.9761 142.538 65.7012 142.538 61.6077V7.36836C142.538 3.27483 139.263 0 135.169 0H32.0122C27.9187 0 24.6438 3.27483 24.6438 7.36836V61.6077C24.6438 65.7012 27.9187 68.9761 32.0122 68.9761H35.4917C36.5151 70.4088 37.7432 71.4322 39.1759 72.4556C35.6964 74.2977 33.6497 75.9351 32.6263 77.3678H27.5093C21.1644 77.3678 16.0474 82.4847 16.0474 88.8297V102.134H11.9539C11.1352 102.134 10.5211 102.748 10.5211 103.566C10.5211 104.385 11.1352 104.999 11.9539 104.999H16.0474H78.2692H88.2983H150.52H154C154.818 104.999 155.432 104.385 155.432 103.566C155.432 102.748 155.228 102.134 154.614 102.134ZM132.509 79.0052C132.509 80.2333 131.485 85.7596 126.368 88.8297C125.959 89.0344 125.345 89.0344 124.935 88.6251C123.707 87.397 122.889 86.1689 121.865 85.1455C124.935 81.2567 126.982 77.9819 127.596 75.5257C130.257 76.9585 132.304 78.3912 132.509 79.0052ZM112.45 75.5257C113.064 77.9819 115.111 81.2567 118.181 85.1455C117.158 86.1689 116.134 87.397 115.111 88.6251C114.702 89.0344 114.088 89.0344 113.678 88.8297C108.561 85.7596 107.538 80.2333 107.333 79.2099C107.743 78.3912 109.789 76.9585 112.45 75.5257ZM114.906 74.2977C116.544 74.9117 118.181 75.1164 120.023 75.1164C121.865 75.1164 123.503 74.707 125.14 74.2977C124.731 75.9351 123.093 79.0052 120.023 82.8941C116.953 79.0052 115.316 75.9351 114.906 74.2977ZM120.023 72.4556C113.064 72.4556 107.538 66.9293 107.538 59.9703C107.538 53.0113 113.064 47.485 120.023 47.485C126.982 47.485 132.509 53.0113 132.509 59.9703C132.509 66.9293 126.778 72.4556 120.023 72.4556ZM32.2169 66.52C29.5561 66.52 27.5093 64.4732 27.5093 61.8124V7.36836C27.5093 4.70757 29.5561 2.6608 32.2169 2.6608H135.374C138.035 2.6608 140.082 4.70757 140.082 7.36836V61.6077C140.082 64.2685 138.035 66.3153 135.374 66.3153H133.737C134.76 64.2685 135.169 62.0171 135.169 59.7656C135.169 51.3739 128.415 44.6195 120.023 44.6195C111.631 44.6195 104.877 51.3739 104.877 59.7656C104.877 62.0171 105.491 64.2685 106.31 66.3153H61.4856C62.509 64.2685 62.9184 62.0171 62.9184 59.7656C62.9184 51.3739 56.1641 44.6195 47.7723 44.6195C39.3806 44.6195 32.6263 51.3739 32.6263 59.7656C32.6263 62.0171 33.2403 64.2685 34.059 66.3153H32.2169V66.52ZM35.287 59.9703C35.287 53.0113 40.8133 47.485 47.7723 47.485C54.7313 47.485 60.2576 53.0113 60.2576 59.9703C60.2576 66.9293 54.7313 72.4556 47.7723 72.4556C40.8133 72.4556 35.287 66.7246 35.287 59.9703ZM47.7723 75.1164C49.6144 75.1164 51.2518 74.707 52.8893 74.2977C52.4799 75.9351 50.8425 79.0052 47.7723 82.8941C44.7022 79.0052 43.0648 75.9351 42.6554 74.2977C44.2928 74.707 45.9302 75.1164 47.7723 75.1164ZM55.3453 75.5257C58.0061 76.9585 60.053 78.5959 60.2576 79.0052C60.2576 80.2333 59.2342 85.7596 54.1173 88.8297C53.708 89.0344 53.0939 89.0344 52.6846 88.6251C51.4565 87.397 50.6378 86.1689 49.6144 85.1455C52.6846 81.052 54.5266 77.9819 55.3453 75.5257ZM40.1993 75.5257C40.8133 77.9819 42.8601 81.2567 45.9303 85.1455C44.9069 86.1689 43.8835 87.397 42.8601 88.6251C42.4508 89.0344 41.8367 89.0344 41.4273 88.8297C36.3104 85.7596 35.287 80.2333 35.0824 79.2099C35.4917 78.3912 37.5385 76.9585 40.1993 75.5257ZM19.3223 102.134V88.8297C19.3223 84.1222 23.2111 80.2333 27.9187 80.2333H32.6263C33.0356 83.0988 34.8777 88.011 39.9946 91.0812C40.6086 91.4905 41.2227 91.4905 41.8367 91.4905C42.8601 91.4905 43.8835 91.0812 44.7022 90.2625C45.7256 89.2391 46.7489 88.011 47.5676 86.9876C48.3864 88.011 49.4097 89.0344 50.4331 90.2625C51.2518 91.0812 52.2752 91.4905 53.2986 91.4905C53.9126 91.4905 54.5267 91.2859 55.1407 90.8765C60.2576 87.8064 62.0997 82.8941 62.509 80.0286H67.2166C71.9242 80.0286 75.813 83.9175 75.813 88.6251V101.929H19.3223V102.134ZM78.8832 102.134V88.8297C78.8832 82.4847 73.7663 77.3678 67.4213 77.3678H62.509C61.6903 75.9351 59.4389 74.2977 55.9594 72.4556C57.3921 71.4322 58.6202 70.4088 59.6436 68.9761H107.743C108.766 70.4088 109.994 71.4322 111.427 72.4556C107.947 74.2977 105.901 75.9351 104.877 77.3678H99.7602C93.4152 77.3678 88.2983 82.4847 88.2983 88.8297V102.134H78.8832ZM91.5732 102.134V88.8297C91.5732 84.1222 95.462 80.2333 100.17 80.2333H104.877C105.286 83.0988 107.129 88.011 112.246 91.0812C112.86 91.4905 113.474 91.4905 114.088 91.4905C115.111 91.4905 116.134 91.0812 116.953 90.2625C117.976 89.2391 119 88.011 119.819 86.9876C120.637 88.011 121.661 89.0344 122.684 90.2625C123.503 91.0812 124.526 91.4905 125.55 91.4905C126.164 91.4905 126.778 91.2859 127.392 90.8765C132.509 87.8064 134.351 82.8941 134.76 80.0286H139.468C144.175 80.0286 148.064 83.9175 148.064 88.6251V101.929H91.5732V102.134Z" fill="#457D96"/>
<path d="M4.79028 102.135H1.72013C0.901424 102.135 0.287369 102.749 0.287369 103.567C0.287369 104.386 0.901424 105 1.72013 105H4.79028C5.60899 105 6.22298 104.386 6.22298 103.567C6.22298 102.749 5.40431 102.135 4.79028 102.135Z" fill="#457D96"/>
<path d="M11.7494 11.463L10.9307 9.62093L12.7728 8.80223C13.3868 8.59755 13.7962 7.77884 13.5915 6.96013C13.3868 6.3461 12.5681 5.93675 11.7494 6.14143L9.90732 6.96013L9.08863 5.11804C8.88395 4.50401 8.06519 4.09466 7.24649 4.29934C6.42778 4.50401 6.22312 5.32272 6.42779 6.14143L7.24649 7.98352L5.40441 8.80223C4.79038 9.0069 4.38104 9.82561 4.58571 10.6443C4.79039 11.2583 5.40443 11.463 5.81379 11.463C6.01846 11.463 6.22312 11.463 6.42779 11.2583L8.26987 10.4396L9.08863 12.2817C9.29331 12.8958 9.90729 13.1004 10.3166 13.1004C10.5213 13.1004 10.726 13.1004 10.9307 12.8958C11.7494 12.8958 11.9541 12.0771 11.7494 11.463Z" fill="#457D96"/>
<path d="M82.5674 59.561C82.3627 59.561 82.3627 59.561 82.158 59.561C79.9066 59.3563 78.0645 58.1283 77.4505 55.8768L76.6318 53.6254C76.2224 52.1926 74.585 51.5786 73.1523 51.988L70.9008 52.8067C68.854 53.4207 66.6026 52.8067 65.1699 51.1692C63.7372 49.5318 63.3278 47.2804 64.3512 45.2336L65.3746 42.9822C65.9886 41.5494 65.3746 40.1167 64.1465 39.298L61.895 38.2746C59.8483 37.2512 58.8249 35.2045 59.0296 32.953C59.2343 30.7016 60.4623 28.8595 62.7137 28.2454L64.9652 27.4267C66.3979 27.0174 67.0119 25.38 66.6026 23.9472L65.7839 21.6958C65.1699 19.649 65.7839 17.3976 67.4213 15.9648C69.0588 14.5321 71.3102 14.1227 73.357 15.1461L75.6084 16.1695C76.8365 16.7835 78.4739 16.1695 79.2926 14.9415L80.316 12.69C81.3393 10.6432 83.3861 9.61986 85.6376 9.82453C87.889 10.0292 89.7311 11.2573 90.3451 13.5087L91.1638 15.7602C91.5732 17.1929 93.2106 17.8069 94.6433 17.3976L96.8948 16.5789C98.9416 15.9648 101.193 16.5789 102.626 18.2163C104.058 19.8537 104.468 22.1051 103.444 24.1519L102.421 26.4034C101.807 27.8361 102.421 29.2688 103.649 30.0875L105.901 31.1109C107.947 32.1343 108.971 34.1811 108.766 36.4325C108.561 38.684 107.333 40.5261 105.082 41.1401L102.83 41.9588C101.398 42.3681 100.784 44.0056 101.193 45.4383L102.012 47.6897C102.626 49.7365 102.012 51.988 100.374 53.4207C98.7368 54.8534 96.4854 55.2628 94.4386 54.2394L92.1872 53.216C90.7544 52.602 89.3217 53.216 88.503 54.4441L87.4796 56.6955C86.4563 58.3329 84.6142 59.561 82.5674 59.561ZM73.971 48.9178C76.2224 48.9178 78.2692 50.3505 79.0879 52.602L79.9066 54.8534C80.3159 55.8768 81.1347 56.4908 82.3627 56.6955C83.5908 56.6955 84.4095 56.2862 85.0235 55.2628L86.0469 53.0113C87.4796 50.3505 90.5498 49.3272 93.2106 50.5552L95.462 51.5786C96.4854 51.988 97.5088 51.988 98.3275 51.1692C99.1462 50.3505 99.5556 49.3272 99.1462 48.3038L98.3275 46.0523C97.5088 43.1869 98.9415 40.3214 101.602 39.298L103.854 38.4793C104.877 38.0699 105.491 37.2512 105.696 36.0232C105.696 34.9998 105.287 33.9764 104.263 33.3624L102.012 32.339C99.3509 30.9062 98.3275 27.8361 99.5556 25.1753L100.579 22.9238C100.988 21.9005 100.988 20.8771 100.17 20.0584C99.3509 19.2397 98.3275 18.8303 97.3041 19.2397L95.0527 20.0584C92.1872 20.8771 89.3217 19.4443 88.2983 16.7835L87.6843 14.3274C87.275 13.304 86.4562 12.69 85.2282 12.4853C84.0001 12.4853 83.1814 12.8947 82.5674 13.9181L81.544 16.1695C80.1113 18.8303 77.0411 19.8537 74.3803 18.6256L72.1289 17.3976C71.1055 16.9882 70.0821 16.9882 69.2634 17.8069C68.4447 18.6256 68.0354 19.649 68.4447 20.6724L69.2634 22.9238C70.0821 25.7893 68.6494 28.6548 65.9886 29.6782L63.7371 30.4969C62.7137 30.9062 62.0997 31.725 61.895 32.953C61.6904 34.1811 62.3044 34.9998 63.3278 35.6138L65.5792 36.6372C68.24 38.0699 69.2634 41.1401 68.0353 43.8009L67.012 46.0523C66.6026 47.0757 66.6026 48.0991 67.4213 48.9178C68.2401 49.7365 69.2634 50.1459 70.2868 49.7365L72.5383 48.9178C72.9476 49.1225 73.3569 48.9178 73.971 48.9178ZM83.7955 46.6664C77.2458 46.6664 71.7195 41.3448 71.7195 34.5904C71.7195 27.8361 77.0412 22.5145 83.7955 22.5145C90.5498 22.5145 95.8714 27.8361 95.8714 34.5904C95.8714 41.3448 90.3451 46.6664 83.7955 46.6664ZM83.7955 25.38C78.6786 25.38 74.585 29.4735 74.585 34.5904C74.585 39.7073 78.6786 43.8009 83.7955 43.8009C88.9124 43.8009 93.0059 39.7073 93.0059 34.5904C93.0059 29.4735 88.9124 25.38 83.7955 25.38Z" fill="#00C1C9"/>
</svg>
