<svg width="21" height="21" viewBox="0 0 21 21" fill="none" xmlns="http://www.w3.org/2000/svg">
<path d="M10.5 0C4.71701 0 0 4.71701 0 10.5C0 16.283 4.71701 21 10.5 21C16.283 21 21 16.283 21 10.5C21 4.71701 16.283 0 10.5 0ZM10.5 19.6942C5.43655 19.6942 1.30584 15.5635 1.30584 10.5C1.30584 5.43655 5.43655 1.30584 10.5 1.30584C15.5635 1.30584 19.6942 5.43655 19.6942 10.5C19.6942 15.5635 15.5635 19.6942 10.5 19.6942Z" fill="#457D96"/>
<path d="M11.1662 3.94434H9.83374V10.7667L13.9645 14.8974L14.8972 13.9646L11.1662 10.2337V3.94434Z" fill="#457D96"/>
</svg>
