<svg width="160" height="105" viewBox="0 0 160 105" fill="none" xmlns="http://www.w3.org/2000/svg">
<path d="M29.6409 104.594H1.50494C0.689403 104.594 0.0777588 103.982 0.0777588 103.166C0.0777588 102.351 0.689403 101.739 1.50494 101.739H29.6409C30.4564 101.739 31.068 102.351 31.068 103.166C31.068 103.982 30.4564 104.594 29.6409 104.594Z" fill="#00C1C9"/>
<path d="M152.379 40.1649H150.951V38.7377C150.951 37.9222 150.34 37.3105 149.524 37.3105C148.709 37.3105 148.097 37.9222 148.097 38.7377V40.1649H146.67C145.854 40.1649 145.243 40.7766 145.243 41.5921C145.243 42.4076 145.854 43.0193 146.67 43.0193H148.097V44.4465C148.097 45.262 148.709 45.8737 149.524 45.8737C150.34 45.8737 150.951 45.262 150.951 44.4465V43.0193H152.379C153.194 43.0193 153.806 42.4076 153.806 41.5921C153.806 40.7766 153.194 40.1649 152.379 40.1649Z" fill="#00C1C9"/>
<path d="M14.9613 9.78894H13.5341V8.36175C13.5341 7.54622 12.9225 6.93457 12.107 6.93457C11.2914 6.93457 10.6798 7.54622 10.6798 8.36175V9.78894H9.25257C8.43704 9.78894 7.82539 10.4006 7.82539 11.2161C7.82539 12.0317 8.43704 12.6433 9.25257 12.6433H10.6798V14.0705C10.6798 14.886 11.2914 15.4977 12.107 15.4977C12.9225 15.4977 13.5341 14.886 13.5341 14.0705V12.6433H14.9613C15.7769 12.6433 16.3885 12.0317 16.3885 11.2161C16.3885 10.4006 15.573 9.78894 14.9613 9.78894Z" fill="#00C1C9"/>
<path d="M158.087 101.739H139.33C145.854 98.0689 150.34 91.1369 150.34 82.9816C150.34 71.1563 140.757 61.5738 128.932 61.5738C128.32 61.5738 127.709 61.5738 127.097 61.5738V21.8165C127.097 17.535 123.631 13.8651 119.349 13.8651H117.718V6.72913C117.718 3.05923 114.66 0.000976562 110.99 0.000976562H101.204H53.2912C50.0291 0.000976562 47.3786 3.05923 47.3786 6.93302V14.0689H38.8155C34.5339 14.0689 31.0679 17.535 31.0679 22.0204V78.2922C31.0679 82.5738 34.5339 86.2437 38.8155 86.2437H67.9708C68.1747 88.0787 68.3786 92.3602 65.5242 95.6223H65.1165C61.4466 95.6223 58.3883 98.4767 57.9805 102.147H43.7087C42.8932 102.147 42.2815 102.758 42.2815 103.574C42.2815 104.389 42.8932 105.001 43.7087 105.001H103.854C104.67 105.001 105.281 104.389 105.281 103.574C105.281 102.758 104.67 102.147 103.854 102.147H100.388C100.184 98.4767 97.1262 95.6223 93.2524 95.6223H92.029C89.1747 92.3602 89.1747 88.2825 89.5825 86.2437H108.136C108.951 93.1757 113.029 98.8845 118.942 102.147H113.845C113.029 102.147 112.417 102.758 112.417 103.574C112.417 104.389 113.029 105.001 113.845 105.001H158.495C159.311 105.001 159.922 104.389 159.922 103.574C159.922 102.758 158.903 101.739 158.087 101.739ZM124.243 21.8165V62.3893C122.204 62.7971 120.369 63.6126 118.738 64.4282V23.6515C118.738 22.8359 118.126 22.2243 117.311 22.2243H106.709V16.5155H112.825H116.087H119.146C122 16.5155 124.243 18.9621 124.243 21.8165ZM110.379 72.5835H106.709V24.8748H116.087V66.0592C113.641 67.8942 111.806 70.1369 110.379 72.5835ZM114.864 6.72913V13.8651H112.825H106.709V6.93302C106.709 4.6903 108.544 2.85535 110.786 2.85535C113.029 2.85535 114.864 4.48641 114.864 6.72913ZM49.8252 6.93302C49.8252 4.6903 51.2524 2.85535 52.8835 2.85535H100.796C102.427 2.85535 103.854 4.6903 103.854 6.93302V15.2922V72.5835H49.8252V6.93302ZM47.1747 72.5835H41.6699V24.8748H47.1747V72.5835ZM38.4077 16.5155H46.9708V22.2243H40.0388C39.2233 22.2243 38.6116 22.8359 38.6116 23.6515V72.5835H33.3106V21.8165C33.3106 18.9621 35.7572 16.5155 38.4077 16.5155ZM33.3106 78.0884V75.234H40.2427H108.951C107.932 77.6806 107.32 80.3311 107.32 83.1854H38.4077C35.7572 83.1854 33.3106 80.7388 33.3106 78.0884ZM97.1261 101.739H60.2233C60.4272 99.4961 62.2621 97.8651 64.5048 97.8651H92.8446C95.0873 97.8651 96.9223 99.7 97.1261 101.739ZM88.3592 95.2146H68.5825C70.6213 91.7486 70.6213 88.0786 70.4174 85.8359H86.5242C86.1165 88.0786 86.1165 91.7486 88.3592 95.2146ZM110.175 83.1854C110.175 72.9913 118.534 64.4282 128.932 64.4282C139.33 64.4282 147.689 72.7874 147.689 83.1854C147.689 93.5835 139.33 101.943 128.932 101.943C118.534 101.943 110.175 93.3796 110.175 83.1854Z" fill="#457D96"/>
<path d="M20.2622 71.1568L18.6311 71.9723L17.8155 70.3412C17.6117 69.7296 16.7961 69.3218 15.9806 69.5257C15.369 69.7296 14.9612 70.5451 15.1651 71.3606L15.9806 72.9917L14.3495 73.8073C13.7379 74.0111 13.3301 74.8267 13.534 75.6422C13.7379 76.2538 14.3495 76.4577 14.7573 76.4577C14.9612 76.4577 15.1651 76.4577 15.3689 76.2539L17 75.4383L17.8155 77.0694C18.0194 77.681 18.6311 77.8849 19.0389 77.8849C19.2427 77.8849 19.4466 77.8849 19.6505 77.681C20.2622 77.4771 20.6699 76.6616 20.466 75.8461L19.6505 74.215L21.2816 73.3995C21.8932 73.1956 22.301 72.3801 22.0971 71.5645C21.6893 71.1568 21.0777 70.9529 20.2622 71.1568Z" fill="#457D96"/>
<path d="M61.2427 45.6702C61.4466 45.6702 61.6505 45.6702 61.8543 45.4663L66.5436 41.1847L71.233 45.4663C71.4369 45.6702 71.6407 45.6702 71.8446 45.6702C72.2524 45.6702 72.6601 45.2624 72.6601 44.8546V30.3789H68.7864L66.5436 32.6216L64.301 30.3789H60.4271V44.8546C60.4271 45.2624 60.8349 45.6702 61.2427 45.6702ZM62.466 32.4177H63.4854L65.1165 34.0488C65.5243 34.4566 66.1359 34.6605 66.5436 34.6605C66.9514 34.6605 67.5631 34.4566 67.9708 34.0488L69.6019 32.4177H70.6213V42.0003L67.9708 39.5537C67.5631 39.1459 67.1553 38.942 66.5436 38.942C65.932 38.942 65.5243 39.1459 65.1165 39.5537L62.466 42.0003V32.4177Z" fill="#457D96"/>
<path d="M84.0776 13.4589H95.699C96.5145 13.4589 97.1261 12.8472 97.1261 12.0317C97.1261 11.2161 96.5145 10.6045 95.699 10.6045H84.0776C83.2621 10.6045 82.6505 11.2161 82.6505 12.0317C82.6505 12.8472 83.2621 13.4589 84.0776 13.4589Z" fill="#457D96"/>
<path d="M84.0776 24.0604H95.699C96.5145 24.0604 97.1261 23.4488 97.1261 22.6332C97.1261 21.8177 96.5145 21.2061 95.699 21.2061H84.0776C83.2621 21.2061 82.6505 21.8177 82.6505 22.6332C82.6505 23.4488 83.2621 24.0604 84.0776 24.0604Z" fill="#457D96"/>
<path d="M84.0776 34.66H95.699C96.5145 34.66 97.1261 34.0484 97.1261 33.2328C97.1261 32.4173 96.5145 31.8057 95.699 31.8057H84.0776C83.2621 31.8057 82.6505 32.4173 82.6505 33.2328C82.6505 34.0484 83.2621 34.66 84.0776 34.66Z" fill="#457D96"/>
<path d="M84.0776 45.6718H95.699C96.5145 45.6718 97.1261 45.0601 97.1261 44.2446C97.1261 43.429 96.5145 42.8174 95.699 42.8174H84.0776C83.2621 42.8174 82.6505 43.429 82.6505 44.2446C82.6505 45.0601 83.2621 45.6718 84.0776 45.6718Z" fill="#457D96"/>
<path d="M58.1846 56.0702H95.6992C96.5147 56.0702 97.1264 55.4585 97.1264 54.643C97.1264 53.8275 96.5147 53.2158 95.6992 53.2158H58.1846C57.3691 53.2158 56.7574 53.8275 56.7574 54.643C56.7574 55.4585 57.3691 56.0702 58.1846 56.0702Z" fill="#457D96"/>
<path d="M58.1846 65.2421H95.6992C96.5147 65.2421 97.1264 64.6304 97.1264 63.8149C97.1264 62.9993 96.5147 62.3877 95.6992 62.3877H58.1846C57.3691 62.3877 56.7574 62.9993 56.7574 63.8149C56.7574 64.6304 57.3691 65.2421 58.1846 65.2421Z" fill="#457D96"/>
<path d="M139.126 81.1458L138.107 80.5341C137.699 80.3302 137.495 79.9225 137.699 79.3108L138.107 78.2914C138.515 77.272 138.515 76.0487 137.699 75.2332C136.884 74.4176 135.66 74.0099 134.641 74.4176L133.621 74.8254C133.214 75.0293 132.806 74.8254 132.602 74.2137L132.194 73.1943C131.787 72.1749 130.767 71.3594 129.748 71.3594C128.524 71.3594 127.505 71.971 126.893 72.9904L126.486 74.0099C126.282 74.4176 125.874 74.6215 125.262 74.4176L124.243 74.0099C123.223 73.6021 122 73.6021 121.185 74.4176C120.369 75.2332 119.961 76.4565 120.369 77.4759L120.777 78.4953C120.981 78.9031 120.777 79.3108 120.165 79.5147L119.146 79.9225C118.126 80.3303 117.311 81.3497 117.311 82.3691C117.311 83.5924 117.922 84.6118 118.942 85.2235L119.961 85.8351C120.369 86.039 120.573 86.4468 120.369 87.0584L119.961 88.0778C119.554 89.0972 119.554 90.3205 120.369 91.1361C121.185 91.9516 122.408 92.3594 123.427 91.9516L124.447 91.5438C124.855 91.34 125.262 91.5438 125.466 92.1555L125.874 93.1749C126.282 94.1943 127.301 95.0099 128.321 95.0099H128.524C129.544 95.0099 130.563 94.3982 131.175 93.3788L131.583 92.3594C131.787 91.9516 132.194 91.7477 132.806 91.9516L133.825 92.3594C134.845 92.7671 136.068 92.7671 136.884 91.9516C137.699 91.1361 138.107 89.9128 137.699 88.8934L137.291 87.8739C137.087 87.4662 137.291 87.0584 137.903 86.8545L138.922 86.4468C139.942 86.039 140.757 85.0196 140.757 84.0002C140.757 82.7769 140.146 81.7574 139.126 81.1458ZM138.107 84.6118L137.087 85.0196C135.66 85.6312 134.845 87.0584 135.253 88.6895L135.66 89.7089C135.864 90.1167 135.456 90.5244 135.456 90.5244C135.456 90.5244 135.049 90.9322 134.437 90.7283L133.418 90.3205C131.99 89.7089 130.359 90.1167 129.544 91.5438L128.932 92.5633C128.728 92.971 128.32 92.971 128.117 92.971C127.913 92.971 127.505 92.971 127.301 92.3594L126.893 91.34C126.486 90.1167 125.262 89.505 124.243 89.505C124.039 89.505 123.631 89.505 123.427 89.7089L122.408 90.1167C122 90.3205 121.592 89.9128 121.592 89.9128C121.592 89.9128 121.185 89.505 121.388 88.8934L121.796 87.8739C122.408 86.4468 121.796 84.8157 120.573 84.0002L119.553 83.3885C119.146 83.1846 119.146 82.7769 119.146 82.573C119.146 82.3691 119.146 81.9613 119.757 81.7574L120.777 81.3497C122.204 80.738 123.02 79.3108 122.612 77.6798L122.204 76.6603C122 76.2526 122.408 75.8448 122.408 75.8448C122.408 75.8448 122.816 75.437 123.427 75.6409L124.447 76.0487C125.874 76.6603 127.505 76.2526 128.321 74.8254L128.932 73.806C129.136 73.3982 129.544 73.3982 129.748 73.3982C129.952 73.3982 130.359 73.3982 130.563 74.0099L130.971 75.0293C131.583 76.4565 133.01 77.272 134.641 76.8642L135.66 76.4565C136.068 76.2526 136.476 76.6603 136.476 76.6603C136.476 76.6603 136.884 77.0681 136.68 77.6798L136.272 78.6992C135.66 80.1264 136.272 81.7574 137.495 82.573L138.515 83.1846C138.922 83.3885 138.922 83.7963 138.922 84.0002C138.719 84.0002 138.515 84.4079 138.107 84.6118Z" fill="#457D96"/>
<path d="M128.932 77.2725C125.67 77.2725 123.02 79.9229 123.02 83.1851C123.02 86.4472 125.67 89.0977 128.932 89.0977C132.194 89.0977 134.845 86.4472 134.845 83.1851C134.845 79.9229 132.194 77.2725 128.932 77.2725ZM128.932 87.0589C126.893 87.0589 125.059 85.4278 125.059 83.1851C125.059 80.9424 126.69 79.3113 128.932 79.3113C131.175 79.3113 132.806 80.9424 132.806 83.1851C132.806 85.4278 130.971 87.0589 128.932 87.0589Z" fill="#457D96"/>
<path d="M74.6989 15.9031L76.33 16.5148C76.9417 16.7187 77.3494 17.3303 77.3494 18.1458L76.9416 19.7769C76.9416 20.1847 76.9417 20.5925 77.3494 21.0002L78.5728 22.2235C78.9805 22.8352 78.9805 23.4468 78.5728 24.0585L77.3494 25.2818C77.1456 25.6895 76.9416 26.0973 76.9416 26.5051L77.3494 28.1361C77.5533 28.7478 77.1456 29.5633 76.33 29.7672L74.6989 30.3789C74.2911 30.5827 73.8834 30.7866 73.8834 31.1944L73.2718 32.8255C73.0679 33.4371 72.4562 33.8449 71.6407 33.8449L70.0096 33.4371C69.6019 33.4371 69.1941 33.4371 68.7863 33.8449L67.563 35.0682C66.9513 35.4759 66.3397 35.4759 65.7281 35.0682L64.5047 33.8449C64.097 33.641 63.6893 33.4371 63.2815 33.4371L61.6504 33.8449C61.0387 34.0488 60.2232 33.641 60.0193 32.8255L59.4077 31.1944C59.2038 30.7866 58.9999 30.3789 58.5921 30.3789L56.9611 29.7672C56.3494 29.5633 55.9417 28.9517 55.9417 28.1361L56.3494 26.5051C56.3494 26.0973 56.3494 25.6895 55.9417 25.2818L54.7184 24.0585C54.3106 23.4468 54.3106 22.8352 54.7184 22.2235L55.9417 21.0002C56.1456 20.5925 56.3494 20.1847 56.3494 19.7769L55.7378 17.942C55.5339 17.3303 55.9417 16.5148 56.7572 16.3109L58.3883 15.6992C58.796 15.4954 59.2038 15.2915 59.2038 14.8837L59.8154 13.2526C60.0193 12.641 60.631 12.2332 61.4465 12.2332L63.0776 12.641C63.4854 12.641 63.8931 12.641 64.3009 12.2332L65.5242 11.0099C66.1358 10.6022 66.7475 10.6022 67.3592 11.0099L68.5824 12.2332C68.9902 12.4371 69.398 12.641 69.8057 12.641L71.4368 12.2332C72.0485 12.0293 72.864 12.4371 73.0679 13.2526L73.6795 14.8837C73.8834 15.2915 74.2911 15.6992 74.6989 15.9031Z" fill="#00C1C9"/>
<path d="M66.5438 29.7688C70.2597 29.7688 73.272 26.7565 73.272 23.0407C73.272 19.3248 70.2597 16.3125 66.5438 16.3125C62.8279 16.3125 59.8157 19.3248 59.8157 23.0407C59.8157 26.7565 62.8279 29.7688 66.5438 29.7688Z" fill="white"/>
</svg>
