<svg width="162" height="106" viewBox="0 0 162 106" fill="none" xmlns="http://www.w3.org/2000/svg">
<path d="M71.4827 79.8268C73.1783 79.8268 74.5528 78.4523 74.5528 76.7567C74.5528 75.0611 73.1783 73.6865 71.4827 73.6865C69.7871 73.6865 68.4125 75.0611 68.4125 76.7567C68.4125 78.4523 69.7871 79.8268 71.4827 79.8268Z" fill="#00C1C9"/>
<path d="M65.1375 56.6976C64.9328 56.6976 64.7282 56.6976 64.5235 56.4929C63.9095 56.0835 63.5001 55.2648 63.9095 54.6508L76.3947 27.2241C76.8041 26.6101 77.6228 26.2007 78.2369 26.6101C78.8509 27.0194 79.2602 27.8381 78.8509 28.4522L66.3656 55.8789C66.161 56.2882 65.5468 56.6976 65.1375 56.6976Z" fill="#00C1C9"/>
<path d="M45.4887 21.4915H36.0736C35.2549 21.4915 34.6408 20.8774 34.6408 20.0587C34.6408 19.24 35.2549 18.626 36.0736 18.626H45.4887C46.3074 18.626 46.9214 19.24 46.9214 20.0587C46.9214 20.8774 46.1027 21.4915 45.4887 21.4915Z" fill="#00C1C9"/>
<path d="M160.312 105.001H154.786C153.967 105.001 153.353 104.387 153.353 103.568C153.353 102.75 153.967 102.136 154.786 102.136H160.312C161.131 102.136 161.745 102.75 161.745 103.568C161.745 104.387 160.926 105.001 160.312 105.001Z" fill="#00C1C9"/>
<path d="M139.435 9.0045H137.184V6.75305C137.184 5.93434 136.57 5.32031 135.751 5.32031C134.932 5.32031 134.318 5.93434 134.318 6.75305V9.0045H132.067C131.248 9.0045 130.634 9.61853 130.634 10.4372C130.634 11.2559 131.248 11.87 132.067 11.87H134.318V14.1214C134.318 14.9401 134.932 15.5542 135.751 15.5542C136.57 15.5542 137.184 14.9401 137.184 14.1214V11.6653H139.435C140.254 11.6653 140.868 11.0513 140.868 10.2326C140.868 9.41385 140.254 9.0045 139.435 9.0045Z" fill="#00C1C9"/>
<path d="M9.05608 17.192H6.80456V14.9406C6.80456 14.1218 6.19063 13.5078 5.37192 13.5078C4.55322 13.5078 3.93916 14.1218 3.93916 14.9406V17.192H1.68764C0.868935 17.192 0.255005 17.806 0.255005 18.6247C0.255005 19.4434 0.868935 20.0575 1.68764 20.0575H3.93916V22.3089C3.93916 23.1276 4.55322 23.7417 5.37192 23.7417C6.19063 23.7417 6.80456 23.1276 6.80456 22.3089V20.0575H9.05608C9.87479 20.0575 10.4888 19.4434 10.4888 18.6247C10.4888 17.806 9.87479 17.192 9.05608 17.192Z" fill="#00C1C9"/>
<path d="M47.1258 42.7776L60.8392 49.5319C61.0439 49.5319 61.2485 49.7366 61.4532 49.7366C61.8626 49.7366 62.4767 49.5319 62.6813 48.9179C63.0907 48.3039 62.6812 47.4851 62.0672 47.0758L50.81 41.5495L62.0672 36.0232C62.6812 35.6139 63.0907 34.7952 62.6813 34.1812C62.272 33.5671 61.4532 33.1578 60.8392 33.5671L47.1258 40.3215C46.7165 40.5261 46.3072 40.9355 46.3072 41.5495C46.3072 42.1635 46.7165 42.5729 47.1258 42.7776Z" fill="#457D96"/>
<path d="M95.6346 40.3215L81.9212 33.5671C81.3072 33.1578 80.4885 33.5671 80.0792 34.1812C79.6698 34.7952 80.0792 35.6139 80.6932 36.0232L91.9504 41.5495L80.6932 47.0758C80.0792 47.4851 79.6698 48.3039 80.0792 48.9179C80.2839 49.3272 80.8978 49.7366 81.3072 49.7366C81.5119 49.7366 81.7165 49.7366 81.9212 49.5319L95.6346 42.7776C96.0439 42.5729 96.4533 42.1635 96.4533 41.5495C96.4533 40.9355 96.0439 40.5261 95.6346 40.3215Z" fill="#457D96"/>
<path d="M55.5179 21.4915H106.278C107.096 21.4915 107.711 20.8774 107.711 20.0587C107.711 19.24 107.096 18.626 106.278 18.626H55.5179C54.6992 18.626 54.0852 19.24 54.0852 20.0587C54.0852 20.8774 54.6992 21.4915 55.5179 21.4915Z" fill="#457D96"/>
<path d="M36.0736 62.427H92.9737C93.7924 62.427 94.4065 61.813 94.4065 60.9943C94.4065 60.1756 93.7924 59.5615 92.9737 59.5615H36.0736C35.2549 59.5615 34.6408 60.1756 34.6408 60.9943C34.6408 61.813 35.2549 62.427 36.0736 62.427Z" fill="#457D96"/>
<path d="M146.804 102.135H132.476C140.459 98.0412 145.985 89.6494 145.985 80.0296C145.985 68.1583 137.593 58.3339 126.541 55.8777V8.80208C126.541 3.88984 122.652 0.000976562 117.74 0.000976562H25.021C20.1087 0.000976562 16.2199 3.88984 16.2199 8.80208V75.7314C16.2199 80.6436 20.1087 84.5325 25.021 84.5325H58.9973C59.2019 86.5793 59.4067 91.2868 56.1319 94.971H54.6991C50.6056 94.971 47.3307 98.2458 47.126 102.135H19.9041C19.0853 102.135 18.4713 102.749 18.4713 103.567C18.4713 104.386 19.0853 105 19.9041 105H146.599C147.418 105 148.032 104.386 148.032 103.567C148.032 102.749 147.622 102.135 146.804 102.135ZM143.119 80.0296C143.119 92.3102 133.295 102.135 121.014 102.135C108.734 102.135 98.9092 92.3102 98.9092 80.0296C98.9092 67.749 108.734 57.9245 121.014 57.9245C133.295 57.9245 143.119 67.9537 143.119 80.0296ZM114.055 56.2871C107.301 58.3339 101.775 63.0414 98.7046 69.1817H33.8221H28.2958V11.6676H114.055V56.2871ZM25.021 2.66177H117.74C121.014 2.66177 123.88 5.32257 123.88 8.80208V55.4684C123.061 55.4684 122.038 55.2637 121.219 55.2637C119.786 55.2637 118.354 55.4684 116.921 55.6731V10.2348C116.921 9.41611 116.307 8.80208 115.488 8.80208H26.8631C26.0444 8.80208 25.4304 9.41611 25.4304 10.2348V69.1817H19.0853V8.80208C19.0853 5.52725 21.7461 2.66177 25.021 2.66177ZM19.0853 75.7314V72.0472H26.8631H33.8221H97.6812C96.8625 74.5033 96.2485 77.3688 96.2485 80.2343C96.2485 80.8483 96.2485 81.2577 96.2485 81.8717H25.021C21.7461 81.8717 19.0853 79.0062 19.0853 75.7314ZM61.8628 84.5325H80.8977C80.693 86.7839 80.4884 91.0822 82.9445 94.971H59.816C62.2721 91.0822 62.0675 86.7839 61.8628 84.5325ZM54.6991 97.8365H88.0614C90.7222 97.8365 92.769 99.8833 92.9737 102.339H49.7868C50.1962 99.6786 52.243 97.8365 54.6991 97.8365ZM95.8391 102.135C95.6344 98.0412 92.3597 94.971 88.2661 94.971H86.8334C83.5586 91.2868 83.7632 86.5793 83.9679 84.5325H96.8625C98.2952 92.3102 103.208 98.6552 109.962 102.135H95.8391Z" fill="#457D96"/>
<path d="M9.05624 102.136H2.30193C1.48323 102.136 0.869171 102.75 0.869171 103.568C0.869171 104.387 1.48323 105.001 2.30193 105.001H9.05624C9.87495 105.001 10.489 104.387 10.489 103.568C10.489 102.75 9.67027 102.136 9.05624 102.136Z" fill="#457D96"/>
<path d="M160.312 86.3758C160.107 85.7617 159.289 85.3524 158.47 85.557L156.423 86.3758L155.604 84.329C155.4 83.715 154.581 83.3056 153.762 83.5103C153.148 83.715 152.739 84.5337 152.944 85.3524L153.762 87.3991L151.716 88.2178C151.102 88.4225 150.692 89.2412 150.897 90.0599C151.102 90.674 151.716 90.8786 152.125 90.8786C152.33 90.8786 152.534 90.8786 152.739 90.674L154.786 89.8553L155.604 91.902C155.809 92.5161 156.423 92.7207 156.833 92.7207C157.037 92.7207 157.242 92.7207 157.447 92.5161C158.061 92.3114 158.47 91.4927 158.265 90.674L157.447 88.6272L159.493 87.8085C160.312 87.8085 160.721 86.9898 160.312 86.3758Z" fill="#457D96"/>
<path d="M115.079 66.5215H112.009L104.845 74.2992H113.237L115.079 66.5215Z" fill="#457D96"/>
<path d="M137.184 74.2992L130.02 66.5215H127.155L128.997 74.2992H137.184Z" fill="#457D96"/>
<path d="M104.845 76.3438L118.354 91.2852L113.237 76.3438H104.845Z" fill="#457D96"/>
<path d="M123.675 91.2852L137.184 76.3438H128.997L123.675 91.2852Z" fill="#457D96"/>
<path d="M115.283 74.2992H126.745L124.289 66.5215H117.739L115.283 74.2992Z" fill="#457D96"/>
<path d="M121.014 91.2852L126.745 76.3438H115.488L121.014 91.2852Z" fill="#457D96"/>
</svg>
