<svg width="160" height="105" viewBox="0 0 160 105" fill="none" xmlns="http://www.w3.org/2000/svg">
<path d="M6.70987 104.8H2.30144C1.49991 104.8 0.898865 104.199 0.898865 103.398C0.898865 102.596 1.49991 101.995 2.30144 101.995H6.70987C7.51139 101.995 8.11256 102.596 8.11256 103.398C8.11256 104.199 7.31101 104.8 6.70987 104.8Z" fill="#00C1C9"/>
<path d="M147.177 3.20611H145.374V1.40267C145.374 0.601146 144.773 0 143.971 0C143.17 0 142.569 0.601146 142.569 1.40267V3.20611H140.765C139.964 3.20611 139.363 3.80726 139.363 4.60878C139.363 5.41031 139.964 6.01146 140.765 6.01146H142.569V7.81489C142.569 8.61642 143.17 9.21757 143.971 9.21757C144.773 9.21757 145.374 8.61642 145.374 7.81489V5.81107H147.177C147.979 5.81107 148.58 5.20993 148.58 4.4084C148.58 3.60687 147.979 3.20611 147.177 3.20611Z" fill="#00C1C9"/>
<path d="M123.533 14.6266H75.0404C74.2389 14.6266 73.6377 14.0255 73.6377 13.224C73.6377 12.4224 74.2389 11.8213 75.0404 11.8213H123.533C124.334 11.8213 124.935 12.4224 124.935 13.224C124.935 14.0255 124.134 14.6266 123.533 14.6266Z" fill="#00C1C9"/>
<path d="M31.3569 19.2364C28.1508 19.2364 25.5459 16.6314 25.5459 13.4253C25.5459 10.2192 28.1508 7.61426 31.3569 7.61426C34.563 7.61426 37.168 10.2192 37.168 13.4253C37.168 16.6314 34.563 19.2364 31.3569 19.2364ZM31.3569 10.2192C29.5535 10.2192 28.1508 11.6219 28.1508 13.4253C28.1508 15.2288 29.5535 16.6314 31.3569 16.6314C33.1603 16.6314 34.5631 15.2288 34.5631 13.4253C34.5631 11.6219 33.1603 10.2192 31.3569 10.2192Z" fill="#00C1C9"/>
<path d="M47.1872 19.2364C43.9811 19.2364 41.376 16.6314 41.376 13.4253C41.376 10.2192 43.9811 7.61426 47.1872 7.61426C50.3933 7.61426 52.9983 10.2192 52.9983 13.4253C52.9983 16.6314 50.3933 19.2364 47.1872 19.2364ZM47.1872 10.2192C45.3837 10.2192 43.9811 11.6219 43.9811 13.4253C43.9811 15.2288 45.3837 16.6314 47.1872 16.6314C48.9906 16.6314 50.3932 15.2288 50.3932 13.4253C50.1928 11.6219 48.7902 10.2192 47.1872 10.2192Z" fill="#00C1C9"/>
<path d="M62.8169 19.2364C59.6108 19.2364 57.0059 16.6314 57.0059 13.4253C57.0059 10.2192 59.6108 7.61426 62.8169 7.61426C66.023 7.61426 68.628 10.2192 68.628 13.4253C68.628 16.6314 66.023 19.2364 62.8169 19.2364ZM62.8169 10.2192C61.0134 10.2192 59.6108 11.6219 59.6108 13.4253C59.6108 15.2288 61.0134 16.6314 62.8169 16.6314C64.6203 16.6314 66.023 15.2288 66.023 13.4253C65.8227 11.6219 64.4199 10.2192 62.8169 10.2192Z" fill="#00C1C9"/>
<path d="M8.91391 50.0968L7.31075 50.6979L6.70963 49.0949C6.50925 48.4937 5.7078 48.093 4.90627 48.2933C4.30512 48.4937 3.90431 49.2952 4.10469 50.0968L4.70581 51.6998L3.10278 52.301C2.50164 52.5014 2.10082 53.3029 2.30121 54.1044C2.50159 54.7056 3.10281 54.9059 3.50357 54.9059C3.70395 54.9059 3.90431 54.9059 4.10469 54.7056L5.70772 54.1044L6.30884 55.7075C6.50923 56.3086 7.11044 56.509 7.51121 56.509C7.71159 56.509 7.91195 56.509 8.11233 56.3086C8.71348 56.1082 9.11429 55.3067 8.91391 54.5052L8.31266 52.9021L9.91582 52.301C10.517 52.1006 10.9177 51.2991 10.7173 50.4975C10.5169 50.0968 9.71543 49.8964 8.91391 50.0968Z" fill="#457D96"/>
<path d="M122.931 92.9759C122.931 92.1744 122.33 91.5732 121.528 91.5732H28.1505C27.349 91.5732 26.7478 92.1744 26.7478 92.9759C26.7478 93.7774 27.349 94.3786 28.1505 94.3786H121.528C122.33 94.3786 122.931 93.7774 122.931 92.9759Z" fill="#457D96"/>
<path d="M157.798 101.993H149.382C151.185 99.9897 151.385 96.9839 149.983 94.7797L139.763 79.3503C141.366 78.148 141.767 75.7435 140.565 73.94L137.559 69.5316C137.359 69.3312 137.158 69.1309 136.958 69.1309C142.168 61.1156 142.368 50.4953 136.758 41.8789C135.555 40.2759 134.353 38.6728 132.95 37.4705V9.41706C132.95 5.40942 129.744 2.00293 125.536 2.00293H23.3414C19.3337 2.00293 15.9273 5.20904 15.9273 9.41706V102.194H12.9216C12.1201 102.194 11.5189 102.795 11.5189 103.597C11.5189 104.398 12.1201 104.999 12.9216 104.999H15.9273H38.5705C39.372 104.999 39.9732 104.398 39.9732 103.597C39.9732 102.795 39.372 102.194 38.5705 102.194H18.7326V24.6461H130.345V35.4667C127.54 33.4629 124.534 32.2606 121.128 31.4591C114.716 30.2568 108.103 31.4591 102.492 35.0659C101.09 36.0678 99.8873 37.0698 98.685 38.0717H31.7574C29.1525 38.0717 26.9483 40.2759 26.9483 42.8808V50.295C26.9483 52.8999 29.1525 55.1041 31.7574 55.1041H91.4712C91.2708 58.5106 91.872 62.1175 93.2747 65.3236H28.3509C27.5494 65.3236 26.9483 65.9247 26.9483 66.7263C26.9483 67.5278 27.5494 68.129 28.3509 68.129H94.6774C95.0782 68.7301 95.2785 69.1309 95.6793 69.732C98.2843 73.5393 101.691 76.545 105.899 78.3484H28.5514C27.7499 78.3484 27.1487 78.9496 27.1487 79.7511C27.1487 80.5526 27.7499 81.1538 28.5514 81.1538H120.927L123.933 85.5622C124.534 86.3637 125.536 87.1652 126.538 87.3656C126.738 87.3656 127.139 87.3656 127.34 87.3656C127.941 87.3656 128.742 87.1652 129.343 86.7645L130.746 88.9687V102.194H49.7918C48.9903 102.194 48.3891 102.795 48.3891 103.597C48.3891 104.398 48.9903 104.999 49.7918 104.999H131.948H133.351H144.372H158.198C159 104.999 159.601 104.398 159.601 103.597C159.601 102.795 158.599 101.993 157.798 101.993ZM18.9331 22.0411V9.41706C18.9331 6.81209 20.9369 4.80828 23.5418 4.80828H125.737C128.342 4.80828 130.345 6.81209 130.345 9.41706V22.0411H18.9331ZM146.977 100.791L145.775 101.593C145.174 101.993 144.572 102.194 143.971 102.194C143.771 102.194 143.571 102.194 143.37 102.194C142.569 101.993 141.767 101.593 141.366 100.791L131.147 85.5622L137.559 81.3541L147.779 96.5832C148.781 97.7855 148.38 99.7893 146.977 100.791ZM31.7574 52.4992C30.5552 52.4992 29.7536 51.4973 29.7536 50.4953V43.0812C29.7536 41.8789 30.7555 41.0774 31.7574 41.0774H96.4808C93.8758 44.4839 92.2728 48.4915 91.6717 52.4992H31.7574ZM97.8835 68.129C94.8777 63.7205 93.8758 58.711 94.2766 53.9018C94.2766 53.9018 94.2766 53.9018 94.2766 53.7015C94.8778 47.2892 98.2843 41.2778 104.095 37.4705C107.702 35.0659 111.91 33.6633 116.319 33.6633C117.721 33.6633 119.324 33.8636 120.727 34.064C126.538 35.2663 131.548 38.6728 134.754 43.482C141.567 53.7015 138.761 67.5278 128.542 74.1404C123.532 77.3465 117.721 78.5488 111.91 77.3465C106.099 76.545 101.09 73.1385 97.8835 68.129ZM126.739 84.5603C126.338 84.5603 126.137 84.3599 125.937 83.9591L123.733 80.5526L136.357 72.1366L138.561 75.5431C138.962 76.1442 138.761 76.9457 138.16 77.3465L136.758 78.3484L134.553 79.7511L127.74 84.3599C127.54 84.5603 127.139 84.7606 126.739 84.5603ZM133.151 92.9763L139.162 101.993H133.151V92.9763Z" fill="#457D96"/>
<path d="M120.526 68.9301C119.324 69.3308 118.122 69.5312 116.719 69.5312C115.918 69.5312 115.316 70.1323 115.517 70.9339C115.517 71.7354 116.118 72.1362 116.92 72.1362C118.523 72.1362 119.925 71.7354 121.328 71.3346C122.13 71.1342 122.33 70.3327 122.13 69.7316C121.929 69.1304 121.328 68.7297 120.526 68.9301Z" fill="#457D96"/>
<path d="M115.918 42.0788C120.727 41.8784 125.135 44.283 127.74 48.2906C131.548 54.1017 130.546 61.7162 125.336 66.325C124.735 66.7257 124.735 67.7277 125.136 68.1284C125.336 68.5292 125.737 68.5292 126.137 68.5292C126.538 68.5292 126.738 68.3288 126.939 68.1284C133.151 62.7181 134.353 53.5005 129.744 46.6876C126.538 41.8784 121.328 39.2734 115.517 39.2734C114.716 39.2734 114.115 39.8746 114.115 40.6761C114.515 41.4776 115.116 42.0788 115.918 42.0788Z" fill="#457D96"/>
</svg>
