<svg width="160" height="105" viewBox="0 0 160 105" fill="none" xmlns="http://www.w3.org/2000/svg">
<path d="M157.442 104.592H131.242C130.436 104.592 129.831 103.987 129.831 103.181C129.831 102.375 130.436 101.77 131.242 101.77H157.442C158.248 101.77 158.853 102.375 158.853 103.181C158.853 103.987 158.046 104.592 157.442 104.592Z" fill="#457D96"/>
<path d="M29.2655 104.592H1.65513C0.848991 104.592 0.244385 103.987 0.244385 103.181C0.244385 102.375 0.848991 101.77 1.65513 101.77H29.2655C30.0716 101.77 30.6762 102.375 30.6762 103.181C30.6762 103.987 30.0716 104.592 29.2655 104.592Z" fill="#00C1C9"/>
<path d="M155.225 7.46468H153.21V5.44932C153.21 4.64318 152.605 4.03857 151.799 4.03857C150.993 4.03857 150.791 4.64318 150.791 5.44932V7.46468H148.776C147.97 7.46468 147.365 8.06928 147.365 8.67389C147.365 9.2785 147.97 10.0846 148.776 10.0846H150.791V12.1C150.791 12.9061 151.396 13.5107 152.202 13.5107C153.008 13.5107 153.411 12.7046 153.411 12.1V10.0846H155.426C156.233 10.0846 156.837 9.48003 156.837 8.67389C156.837 7.86775 156.031 7.46468 155.225 7.46468Z" fill="#00C1C9"/>
<path d="M157.845 69.3211H155.83V67.3058C155.83 66.4996 155.225 65.895 154.419 65.895C153.613 65.895 153.008 66.4996 153.008 67.3058V69.3211H150.993C150.187 69.3211 149.582 69.9257 149.582 70.7319C149.582 71.538 150.187 72.1426 150.993 72.1426H153.008V74.158C153.008 74.9641 153.613 75.5687 154.419 75.5687C155.225 75.5687 155.83 74.9641 155.83 74.158V72.1426H157.845C158.651 72.1426 159.256 71.538 159.256 70.7319C159.256 69.9257 158.449 69.3211 157.845 69.3211Z" fill="#457D96"/>
<path d="M14.7551 21.9603H12.7398V19.9449C12.7398 19.1388 12.1352 18.5342 11.329 18.5342C10.5229 18.5342 9.9183 19.1388 9.9183 19.9449V21.9603H8.30601C7.49987 21.9603 6.89526 22.5649 6.89526 23.371C6.89526 24.1772 7.49987 24.7818 8.30601 24.7818H10.3214V26.7971C10.3214 27.6033 10.926 28.2079 11.7321 28.2079C12.5383 28.2079 13.1429 27.6033 13.1429 26.7971V24.7818H15.1582C15.9644 24.7818 16.569 24.1772 16.569 23.371C16.569 22.5649 15.5613 21.9603 14.7551 21.9603Z" fill="#00C1C9"/>
<path d="M139.305 56.6315L131.646 45.547V37.4856C131.646 29.6257 127.011 20.1536 119.353 12.6967C111.09 4.63532 100.61 0 90.1299 0C67.5579 0 60.3027 10.8829 59.8996 11.4875H46.1952C45.7921 11.4875 45.389 11.6891 45.1875 12.0921L32.8938 29.4242H18.7864C17.9802 29.4242 17.3756 30.0288 17.3756 30.8349C17.3756 31.6411 17.9802 32.2457 18.7864 32.2457H33.4984C33.9015 32.2457 34.3046 32.0441 34.5061 31.6411L46.7998 14.309H82.4716L86.9053 16.3244C86.9053 16.7274 86.7038 17.1305 86.7038 17.3321C86.7038 21.1612 89.7268 24.1843 93.556 24.1843C97.3852 24.1843 100.408 21.1612 100.408 17.3321C100.408 13.5029 97.3852 10.4798 93.556 10.4798C91.1376 10.4798 89.1222 11.6891 87.913 13.7044L83.6808 11.4875C83.4792 11.4875 83.0762 11.4875 82.8746 11.4875H63.3257C66.1472 8.66603 73.8055 2.8215 89.9284 2.8215C112.097 2.8215 128.825 23.9827 128.825 37.4856V45.9501C128.825 46.1516 128.825 46.5547 129.026 46.7562L136.886 58.2438C137.491 59.0499 137.491 60.2591 137.088 61.2668H135.475C131.646 61.2668 128.623 64.2898 128.623 68.119V79.405C128.623 81.4203 127.011 83.2342 124.794 83.2342H120.36C115.725 83.2342 112.097 87.0633 112.097 91.4971V102.179H78.0378C77.8362 96.1324 75.8209 92.7063 75.0148 91.2956C75.2163 90.0864 75.4178 88.6756 75.4178 87.2649C75.4178 77.3896 67.5579 69.5298 57.6827 69.5298C57.4812 69.5298 57.2796 69.5298 57.0781 69.5298C55.8689 67.9175 54.6597 65.9021 54.0551 64.4914H76.224C77.0301 66.3052 79.247 70.1344 85.2931 79.0019C85.4946 79.405 85.8977 79.6065 86.5023 79.6065H93.7576C94.3622 82.6296 97.1837 85.048 100.408 85.048C104.237 85.048 107.26 82.0249 107.26 78.1958C107.26 74.3666 104.237 71.3436 100.408 71.3436C97.1837 71.3436 94.3622 73.762 93.7576 76.785H87.3084C84.0838 71.9482 80.8593 66.9098 79.4485 64.2898H87.7115H87.913C88.5176 67.5144 91.3391 69.7313 94.5637 69.7313C98.3929 69.7313 101.416 66.7083 101.416 62.8791C101.416 59.0499 98.3929 56.0269 94.5637 56.0269C91.3391 56.0269 88.5176 58.4453 87.913 61.4683H87.7115H47.0013L34.5061 44.5393C34.3046 44.1363 33.9015 43.9347 33.4984 43.9347H18.7864C17.9802 43.9347 17.3756 44.5393 17.3756 45.3455C17.3756 46.1516 17.9802 46.7562 18.7864 46.7562H32.8938L45.1875 64.0883C45.389 64.4914 45.7921 64.6929 46.1952 64.6929H51.032C51.6366 65.9021 52.6443 67.9175 54.0551 69.9328C45.9936 71.7466 40.1491 78.8004 40.1491 87.2649C40.1491 93.5125 43.3737 98.9539 48.2105 101.977H39.343C38.5368 101.977 37.9322 102.582 37.9322 103.388C37.9322 104.194 38.5368 104.798 39.343 104.798H55.2643C56.0704 105 57.0781 105 57.8842 105C58.8919 105 59.6981 105 60.5042 104.798H76.0224C76.224 105 76.4255 105 76.627 105C76.8286 105 77.0301 105 77.2316 104.798H121.368C122.174 104.798 122.779 104.194 122.779 103.388C122.779 102.582 122.174 101.977 121.368 101.977H115.12V91.2956C115.12 88.2726 117.74 85.6526 120.763 85.6526H125.197C128.825 85.6526 131.646 82.8311 131.646 79.2035V67.9175C131.646 65.7006 133.46 63.8868 135.677 63.8868H138.095C138.498 63.8868 138.901 63.6852 139.103 63.4837C140.514 61.4683 140.715 58.6468 139.305 56.6315ZM93.556 13.3013C95.7729 13.3013 97.5867 15.1152 97.5867 17.3321C97.5867 19.5489 95.7729 21.3628 93.556 21.3628C91.3391 21.3628 89.5253 19.5489 89.5253 17.3321C89.5253 15.1152 91.3391 13.3013 93.556 13.3013ZM100.207 74.1651C102.424 74.1651 104.237 75.9789 104.237 78.1958C104.237 80.4127 102.424 82.2265 100.207 82.2265C97.9898 82.2265 96.176 80.4127 96.176 78.1958C95.9744 75.9789 97.9898 74.1651 100.207 74.1651ZM94.3622 59.0499C96.579 59.0499 98.3929 60.8637 98.3929 63.0806C98.3929 65.2975 96.579 67.1113 94.3622 67.1113C92.1453 67.1113 90.3315 65.2975 90.3315 63.0806C90.1299 60.8637 92.1453 59.0499 94.3622 59.0499ZM60.3027 101.977H55.2643C48.2105 100.768 42.7691 94.5201 42.7691 87.2649C42.7691 79.0019 49.4198 72.1497 57.8842 72.1497C66.3487 72.1497 72.9994 78.8004 72.9994 87.2649C72.7979 94.5201 67.3564 100.768 60.3027 101.977ZM67.5579 101.977C70.1779 100.163 72.3948 97.7447 73.8055 94.7217C74.4101 96.334 75.2163 98.7524 75.2163 101.977H67.5579Z" fill="#457D96"/>
<path d="M63.1237 25.4026C63.7283 28.4256 66.5498 30.8441 69.7744 30.8441C73.6035 30.8441 76.6266 27.821 76.6266 23.9919C76.6266 20.1627 73.6035 17.1396 69.7744 17.1396C66.5498 17.1396 63.7283 19.5581 63.1237 22.5811H51.0316C50.6285 22.5811 50.2254 22.7826 49.8224 23.1857L39.7456 38.3009C39.7456 38.3009 39.7456 38.3009 39.7456 38.5024V38.7039C39.7456 38.7039 39.7456 38.7039 39.7456 38.9055C39.7456 38.9055 39.7456 38.9055 39.7456 39.107C39.7456 39.107 39.7456 39.107 39.7456 39.3086C39.7456 39.3086 39.7456 39.3086 39.7456 39.5101V39.7116C39.7456 39.7116 39.7456 39.7116 39.7456 39.9132V40.1147C39.7456 40.1147 39.7456 40.1147 39.7456 40.3162L49.6208 54.0206C49.8224 54.4237 50.2254 54.6253 50.6285 54.6253H104.035C104.842 57.4467 107.461 59.6636 110.485 59.6636C114.314 59.6636 117.337 56.6406 117.337 52.8114C117.337 48.9823 114.314 45.9592 110.485 45.9592C107.058 45.9592 104.237 48.5792 103.834 52.0053H80.2542L87.1064 40.9208H89.7264C90.331 43.9439 93.1525 46.3623 96.3771 46.3623C100.206 46.3623 103.229 43.3393 103.229 39.5101C103.229 35.6809 100.206 32.6579 96.3771 32.6579C93.1525 32.6579 90.331 35.0763 89.7264 38.0993H86.3003C85.8972 38.0993 85.4941 38.3009 85.0911 38.7039L77.0296 51.8038H51.6362L43.7763 40.7193H59.8991C60.5038 43.7423 63.3252 46.1608 66.5498 46.1608C70.379 46.1608 73.402 43.1377 73.402 39.3086C73.402 35.4794 70.379 32.4563 66.5498 32.4563C63.3252 32.4563 60.5038 34.8748 59.8991 37.8978H43.5748L51.8377 25.4026H63.1237ZM69.9759 19.7596C72.1928 19.7596 74.0066 21.5734 74.0066 23.7903C74.0066 26.0072 72.1928 27.821 69.9759 27.821C67.759 27.821 65.9452 26.0072 65.9452 23.7903C65.7437 21.775 67.5575 19.7596 69.9759 19.7596ZM110.888 48.1761C113.104 48.1761 114.918 49.9899 114.918 52.2068C114.918 54.4237 113.104 56.2375 110.888 56.2375C108.671 56.2375 106.857 54.4237 106.857 52.2068C106.857 50.1915 108.671 48.1761 110.888 48.1761ZM96.3771 35.0763C98.5939 35.0763 100.408 36.8901 100.408 39.107C100.408 41.3239 98.5939 43.1377 96.3771 43.1377C94.1602 43.1377 92.3463 41.3239 92.3463 39.107C92.3463 36.8901 94.1602 35.0763 96.3771 35.0763ZM66.5498 35.0763C68.7667 35.0763 70.5805 36.8901 70.5805 39.107C70.5805 41.3239 68.7667 43.1377 66.5498 43.1377C64.3329 43.1377 62.5191 41.3239 62.5191 39.107C62.5191 36.8901 64.3329 35.0763 66.5498 35.0763Z" fill="#457D96"/>
<path d="M57.0779 98.7603C55.8686 98.7603 55.0625 97.9542 54.6594 97.148L54.0548 95.5357C53.8533 95.1327 53.4502 94.9311 53.0471 95.1327L51.4349 95.5357C50.4272 95.9388 49.4195 95.5357 48.8149 94.7296C48.2103 93.9235 48.0088 92.9158 48.4118 91.9081L49.0164 90.4974C49.218 90.0943 49.0164 89.6912 48.6134 89.4897L47.2026 88.6835C46.3965 88.2805 45.7919 87.2728 45.7919 86.2651C45.7919 85.2574 46.3965 84.4513 47.4042 84.0482L49.0164 83.4436C49.4195 83.2421 49.621 82.839 49.4195 82.4359L49.0164 80.8237C48.6134 79.816 49.0164 78.8083 49.8226 78.2037C50.6287 77.5991 51.6364 77.3976 52.6441 77.8006L54.0548 78.4052C54.4579 78.6068 54.861 78.4052 55.0625 78.0022L55.8686 76.5914C56.2717 75.7853 57.2794 75.1807 58.2871 75.1807C59.2947 75.1807 60.1009 75.7853 60.504 76.793L61.1086 78.4052C61.3101 78.8083 61.7132 79.0098 62.1162 78.8083L63.7285 78.4052C64.7362 78.0022 65.7439 78.4052 66.3485 79.2114C66.9531 80.0175 67.1546 81.0252 66.7516 82.0329L66.1469 83.4436C65.9454 83.8467 66.147 84.2498 66.55 84.4513L67.9608 85.2574C68.7669 85.6605 69.3715 86.6682 69.3715 87.6759C69.3715 88.6835 68.7669 89.4897 67.7592 89.8928L66.1469 90.4974C65.7439 90.6989 65.5423 91.102 65.7439 91.505L66.1469 93.1173C66.55 94.125 66.1469 95.1327 65.3408 95.7373C64.5347 96.3419 63.527 96.5434 62.5193 96.1404L61.1086 95.5357C60.7055 95.3342 60.3024 95.5357 60.1009 95.9388L59.2947 97.3496C58.8917 98.1557 58.0855 98.7603 57.0779 98.7603ZM53.4502 92.9158C54.6594 92.9158 55.6671 93.7219 56.0702 94.7296L56.6748 96.3419C56.6748 96.5434 57.0779 96.745 57.0779 96.745C57.0779 96.745 57.4809 96.745 57.4809 96.5434L58.2871 95.1327C58.8917 93.7219 60.504 93.3189 61.9147 93.9235L63.3255 94.5281C63.527 94.7296 63.7285 94.5281 63.9301 94.5281C63.9301 94.5281 64.1316 94.3265 64.1316 93.9235L63.7285 92.3112C63.3255 90.9004 63.9301 89.2882 65.3408 88.8851L66.9531 88.2805C67.1546 88.2805 67.3562 87.8774 67.3562 87.8774C67.3562 87.8774 67.3562 87.4743 67.1546 87.4743L65.7439 86.6682C64.3331 86.0636 63.9301 84.4513 64.5347 83.0405L65.1393 81.6298C65.3408 81.4283 65.1393 81.2267 65.1393 81.0252C65.1393 81.0252 64.9377 80.8237 64.5347 80.8237L62.9224 81.2267C61.5116 81.6298 59.8993 81.0252 59.4963 79.6144L58.8917 78.0022C58.8917 77.8006 58.4886 77.5991 58.4886 77.5991C58.2871 77.5991 58.0855 77.5991 58.0855 77.8006L57.2794 79.2114C56.6748 80.6221 55.0625 81.0252 53.6518 80.4206L52.0395 80.0175C51.8379 79.816 51.6364 80.0175 51.4349 80.0175C51.4349 80.0175 51.2333 80.2191 51.2333 80.6221L51.6364 82.2344C52.0395 83.6452 51.4349 85.2574 50.0241 85.6605L48.6134 86.0636C48.4118 86.0636 48.2103 86.4667 48.2103 86.4667C48.2103 86.4667 48.2103 86.8697 48.4118 86.8697L49.8226 87.6759C51.2333 88.2805 51.6364 89.8928 51.0318 91.3035L50.4272 92.7142C50.2256 92.9158 50.4272 93.1173 50.4272 93.3189C50.4272 93.3189 50.6287 93.5204 51.0318 93.5204L52.6441 93.1173C53.0471 92.9158 53.2487 92.9158 53.4502 92.9158Z" fill="#00C1C9"/>
<path d="M57.6819 92.7059C54.6589 92.7059 52.0389 90.2875 52.0389 87.0629C52.0389 84.0399 54.4574 81.4199 57.6819 81.4199C60.9065 81.4199 63.3249 83.8383 63.3249 87.0629C63.3249 90.2875 60.9065 92.7059 57.6819 92.7059ZM57.6819 83.6368C55.6666 83.6368 54.0543 85.2491 54.0543 87.2644C54.0543 89.2798 55.6666 90.8921 57.6819 90.8921C59.6973 90.8921 61.3096 89.2798 61.3096 87.2644C61.3096 85.2491 59.6973 83.6368 57.6819 83.6368Z" fill="#00C1C9"/>
</svg>
